<svg width="304" height="131" viewBox="0 0 304 131" fill="none" xmlns="http://www.w3.org/2000/svg">
<mask id="mask0_94_336" style="mask-type:alpha" maskUnits="userSpaceOnUse" x="0" y="0" width="304" height="131">
<rect width="304" height="131" rx="2" fill="#2A2E30"/>
</mask>
<g mask="url(#mask0_94_336)">
<g opacity="0.19">
<path d="M-109.944 59.9879C-97.9295 56.2162 -93.623 42.8968 -92.1258 31.6877C-90.419 18.9078 -90.5202 2.91355 -79.1919 -5.75976C-74.7335 -9.1735 -68.441 -10.3874 -63.0774 -8.62351C-57.7138 -6.85961 -54.8493 -2.13739 -54.2232 3.25966C-53.6354 8.32842 -54.5343 13.4221 -54.5965 18.4943C-54.6488 22.7391 -54.0895 27.2326 -51.097 30.4856C-47.6251 34.2604 -42.3689 34.8026 -37.6151 33.589C-32.0865 32.1777 -27.643 28.8269 -23.5984 24.9405C-19.289 20.8 -15.1865 16.1658 -9.80597 13.3796C-3.48685 10.1074 3.69115 10.7671 10.4989 11.7452C15.9927 12.5343 22.4635 13.9547 25.9886 18.6624C29.6847 23.5985 27.822 29.9312 29.0067 35.5472C30.1242 40.8458 34.4386 43.5537 39.5195 44.4171C45.5859 45.4483 52.097 44.807 58.15 43.9893C71.3303 42.2086 84.0418 38.1314 96.9724 35.1637C103.495 33.6667 110.097 32.4411 116.778 31.9529C122.717 31.5188 128.761 31.6557 134.474 33.5113C139.631 35.1865 144.466 38.3999 146.589 43.5781C149.315 50.2253 146.715 57.3663 143.207 63.172C139.722 68.94 134.977 73.786 131.32 79.4348C128.07 84.4538 125.385 90.3704 126.284 96.4905C128.252 109.895 143.478 113.846 154.212 117.572C155.798 118.123 157.375 118.703 158.92 119.36C160.766 120.146 162.849 121.323 162.704 123.646C162.512 126.708 159.093 129.186 157.06 131.099C153.065 134.861 151.415 139.942 151.48 145.363C151.556 151.718 154.021 157.602 156.675 163.268C159.358 168.997 162.115 174.648 163.369 180.895C165.543 191.727 163.956 203.167 159.449 213.211C154.943 223.251 147.427 232.013 137.747 237.362C126.156 243.767 112.562 245.404 101.089 252.039C96.004 254.98 91.2764 258.867 88.0679 263.841C86.6487 266.041 85.5495 268.447 84.9145 270.991C84.0731 274.363 84.6142 277.867 83.828 281.225C82.4333 287.18 76.2034 288.874 70.8397 289.198C65.7706 289.504 60.752 288.66 55.7437 289.875C51.8376 290.822 48.1775 292.953 47.101 297.063C47.0673 297.191 47.2732 297.217 47.3067 297.09C48.781 291.461 55.0459 289.795 60.1648 289.418C65.2904 289.041 70.3911 289.966 75.4673 288.77C80.2064 287.653 83.7179 284.73 84.2886 279.7C84.6863 276.196 84.4464 272.829 85.5851 269.426C86.5464 266.553 88.0879 263.906 89.9804 261.549C98.5912 250.822 112.185 247.384 124.608 243.138C130.496 241.125 136.338 238.804 141.511 235.293C145.916 232.304 149.804 228.565 153.047 224.348C159.478 215.984 163.458 205.725 164.349 195.211C164.792 189.972 164.469 184.662 163.288 179.535C161.884 173.449 159.052 167.92 156.447 162.287C153.632 156.203 151.203 149.79 151.768 142.967C152.028 139.825 152.92 136.69 154.712 134.067C156.402 131.592 158.935 129.878 160.879 127.621C162.188 126.102 163.521 124.032 162.608 121.986C161.47 119.433 157.654 118.578 155.293 117.733C148.708 115.375 141.728 113.711 135.847 109.767C130.248 106.012 125.999 100.249 126.333 93.2454C126.666 86.2415 130.859 80.0286 134.979 74.6533C141.764 65.8025 152.729 53.4785 145.867 41.6478C140.583 32.5367 128.144 31.1431 118.679 31.6275C105.142 32.3201 92.0499 36.1609 78.9841 39.4684C72.5652 41.0929 66.1069 42.6112 59.5524 43.5812C53.0714 44.5403 46.0534 45.3292 39.5467 44.2117C36.352 43.6631 33.0712 42.4382 31.055 39.7646C29.2726 37.4014 28.8991 34.4123 28.7895 31.5408C28.5892 26.3007 28.902 20.892 24.7666 16.9884C20.9562 13.3914 15.3471 12.2179 10.3297 11.5117C3.99567 10.6201 -2.73759 9.94369 -8.74596 12.6379C-14.1519 15.0619 -18.3102 19.4778 -22.4711 23.5576C-26.8694 27.8698 -31.5336 31.8198 -37.6429 33.3835C-43.4681 34.8745 -49.8858 33.4394 -52.7615 27.7065C-54.9658 23.3121 -54.4551 18.0402 -54.1312 13.303C-53.8137 8.65413 -53.3417 3.72109 -54.8934 -0.77056C-56.4069 -5.14699 -59.9465 -8.19728 -64.4458 -9.21709C-69.2773 -10.3122 -74.6537 -9.2049 -78.7069 -6.37346C-83.5003 -3.02453 -86.5479 2.31247 -88.3896 7.75062C-92.8534 20.9295 -90.3459 35.8748 -97.1333 48.3531C-99.9608 53.5512 -104.276 57.9922 -110.025 59.7967C-110.152 59.8365 -110.071 60.0277 -109.944 59.9879Z" fill="white"/>
</g>
<g opacity="0.264">
<path d="M-110.588 69.4959C-99.9726 65.5427 -95.9019 53.6075 -94.4026 43.3751C-92.633 31.2975 -93.0251 17.1085 -83.9875 7.64408C-80.2128 3.69125 -74.8807 1.47164 -69.3856 1.99769C-64.269 2.4874 -60.1485 5.5995 -58.647 10.5599C-56.2337 18.5339 -60.3349 28.1624 -55.5337 35.4881C-52.7887 39.6765 -47.8745 41.1259 -43.0897 40.4698C-37.8366 39.7495 -33.1499 37.0499 -29.1572 33.6766C-24.9519 30.1241 -21.1294 26.0031 -16.3207 23.2347C-10.548 19.9113 -4.24255 20.0096 2.1658 20.9674C7.47038 21.7604 13.3865 22.7963 17.5664 26.4382C22.1572 30.4381 21.5548 36.1167 22.2219 41.592C22.481 43.7184 23.0319 45.8432 24.3215 47.5922C25.7308 49.5031 27.8392 50.7038 30.0739 51.4008C35.5572 53.1109 41.8939 52.5047 47.5018 51.8742C60.7635 50.3827 73.4892 46.1306 86.4169 43.0335C92.9446 41.4699 99.5595 40.1856 106.264 39.7085C111.828 39.3124 117.484 39.4585 122.84 41.1647C127.57 42.6712 132.063 45.4973 134.296 50.0851C137.148 55.9453 135.534 62.4617 132.685 67.9805C129.731 73.7016 125.398 78.4607 121.799 83.7541C118.384 88.7766 115.249 94.6028 115.517 100.859C115.761 106.558 119.071 111.363 123.594 114.63C128.669 118.296 134.824 119.851 140.527 122.231C142.166 122.915 144.398 123.632 145.554 125.041C146.625 126.345 146.436 127.964 145.681 129.361C144.342 131.836 141.976 133.563 140.115 135.612C136.383 139.721 135.458 145.558 135.995 150.916C136.611 157.054 139.276 162.718 141.731 168.295C144.034 173.527 146.039 178.802 146.768 184.505C148.063 194.642 145.951 205.057 141.374 214.149C136.744 223.346 129.538 231.273 120.561 236.374C109.527 242.644 96.6647 245.026 85.9812 251.974C81.4158 254.943 77.1848 258.695 74.289 263.35C73.0153 265.398 72.0157 267.617 71.4202 269.958C70.6201 273.105 71.0929 276.555 69.8951 279.594C67.9879 284.433 62.4143 285.706 57.7507 285.986C52.911 286.276 48.1131 285.481 43.3196 286.547C39.6493 287.363 36.0198 289.215 34.8132 293.019C34.7585 293.191 35.0188 293.302 35.0739 293.129C36.6567 288.139 42.3111 286.682 46.9606 286.298C51.7789 285.899 56.5852 286.753 61.3806 285.838C65.4463 285.062 69.2992 282.979 70.4702 278.742C71.3281 275.638 70.986 272.356 71.9078 269.244C72.7025 266.561 74.0281 264.061 75.673 261.805C83.2007 251.48 95.5497 247.161 106.998 242.78C112.773 240.569 118.56 238.198 123.727 234.754C127.858 232.002 131.563 228.615 134.736 224.801C141.033 217.23 145.302 207.941 146.822 198.204C147.568 193.417 147.642 188.517 146.946 183.72C146.143 178.184 144.139 173.059 141.896 167.967C139.285 162.04 136.502 156.014 136.167 149.444C136 146.184 136.411 142.813 137.741 139.809C138.994 136.976 141.109 135.063 143.223 132.891C144.676 131.398 146.568 129.466 146.612 127.227C146.66 124.809 144.437 123.683 142.538 122.803C136.516 120.013 129.822 118.575 124.293 114.775C118.751 110.967 115.127 105.044 115.892 98.1539C116.677 91.0871 121.122 84.91 125.299 79.4057C131.545 71.1755 140.225 59.6116 134.031 48.991C129.095 40.5267 117.662 38.9347 108.779 39.2861C95.2183 39.8226 82.1536 43.8559 69.1089 47.2373C62.5713 48.9321 55.9779 50.4912 49.2749 51.3724C45.664 51.8472 42.0235 52.1273 38.3802 52.1228C35.5001 52.1194 32.5568 51.9472 29.8078 51.0179C27.0076 50.0714 24.6306 48.2699 23.4616 45.4946C22.4542 43.1032 22.3735 40.4429 22.2239 37.8898C21.9384 33.0211 20.9964 28.5737 16.8685 25.5151C12.6824 22.4136 7.23611 21.4378 2.20362 20.6867C-3.64536 19.8141 -9.57191 19.5415 -15.0162 22.2154C-19.8771 24.6028 -23.738 28.5346 -27.7471 32.0807C-32.1708 35.9939 -37.1358 39.3674 -43.1276 40.189C-48.7977 40.9666 -54.3704 38.5577 -56.4723 33.0011C-58.0806 28.7493 -57.5841 23.9834 -57.5081 19.5383C-57.4395 15.5194 -57.5306 11.2296 -59.5783 7.64383C-61.8119 3.73346 -66.0382 1.77715 -70.4356 1.64879C-81.5519 1.32507 -88.4175 10.8791 -91.2235 20.5763C-94.7693 32.8306 -92.9536 46.4197 -98.9538 57.9898C-101.51 62.9193 -105.397 67.2606 -110.696 69.2338C-110.867 69.2972 -110.757 69.5582 -110.586 69.4944L-110.588 69.4959Z" fill="white"/>
</g>
<g opacity="0.337">
<path d="M-111.233 79.0034C-101.555 74.7221 -97.9233 63.4794 -96.509 53.834C-94.8295 42.3806 -95.122 29.3374 -87.3047 19.924C-84.0133 15.9606 -79.4002 13.4047 -74.1957 13.2416C-69.4414 13.0924 -64.9159 15.1981 -62.9218 19.6825C-59.7484 26.819 -63.3456 35.7258 -58.5984 42.338C-52.3991 50.9733 -40.0606 46.2223 -33.2924 41.053C-29.1701 37.9042 -25.3705 34.1977 -20.6906 31.8588C-15.0633 29.0463 -9.06304 29.4858 -3.05528 30.6157C1.93077 31.5535 7.42698 32.811 11.2388 36.4002C15.3368 40.2591 14.8776 45.5213 15.8611 50.599C16.7433 55.1543 19.6615 58.1141 24.1459 59.255C29.4741 60.6108 35.4451 59.9825 40.8212 59.2794C53.1987 57.6606 65.0572 53.5571 77.1418 50.603C83.1716 49.1291 89.2856 47.9312 95.4853 47.4817C100.759 47.0996 106.129 47.2309 111.213 48.8274C115.703 50.2372 119.982 52.8575 122.225 57.1335C124.949 62.328 123.96 68.2649 121.677 73.4165C116.945 84.094 106.118 92.3622 104.944 104.541C104.443 109.737 106.37 114.665 110.155 118.231C114.327 122.164 119.909 123.759 124.964 126.192C126.273 126.823 127.782 127.453 128.854 128.455C130.146 129.663 130.172 131.333 129.434 132.835C128.327 135.09 126.304 136.807 124.632 138.63C121.026 142.558 119.923 147.922 120.292 153.124C120.701 158.897 122.938 164.286 125.102 169.585C127.166 174.638 129.074 179.706 129.722 185.16C130.875 194.864 128.616 204.767 124.13 213.386C119.564 222.159 112.65 229.738 104.204 234.908C93.9188 241.204 81.9822 244.35 72.0235 251.23C67.7585 254.176 63.7763 257.752 60.9427 262.129C59.6074 264.192 58.5417 266.433 57.9088 268.812C57.197 271.487 57.3856 274.432 56.2394 276.984C54.206 281.511 48.7631 282.578 44.3011 282.796C39.7946 283.016 35.3339 282.324 30.8615 283.229C27.4089 283.927 23.8619 285.511 22.5159 289.003C22.4329 289.218 22.763 289.357 22.846 289.142C24.5745 284.658 29.9287 283.462 34.2206 283.139C38.8275 282.792 43.4205 283.584 48.0078 282.753C51.9353 282.042 55.7135 280.119 56.9592 276.065C57.7859 273.376 57.6925 270.514 58.5734 267.823C59.4175 265.245 60.7611 262.855 62.3849 260.69C69.6984 250.938 81.2901 246.249 92.0601 241.451C97.2943 239.119 102.533 236.658 107.232 233.348C111.126 230.606 114.641 227.332 117.693 223.678C123.75 216.428 128.046 207.614 129.673 198.286C130.472 193.703 130.612 188.997 129.985 184.384C129.265 179.088 127.356 174.155 125.346 169.236C123.053 163.62 120.717 157.885 120.585 151.732C120.518 148.613 121.006 145.415 122.358 142.582C123.547 140.093 125.492 138.315 127.316 136.31C128.656 134.837 130.348 132.943 130.311 130.81C130.276 128.717 128.497 127.643 126.847 126.75C121.595 123.909 115.538 122.467 110.955 118.476C105.952 114.119 104.224 107.73 105.889 101.354C107.555 94.9791 111.627 89.4998 115.464 84.2739C121.167 76.5061 127.964 65.3869 121.929 55.9115C116.971 48.1265 106.3 46.6524 97.8588 46.9913C85.2367 47.498 73.0913 51.2891 60.984 54.5586C54.9581 56.1858 48.8887 57.709 42.7128 58.6505C36.8838 59.5394 30.3888 60.353 24.5726 58.9929C21.8684 58.3607 19.2773 57.0615 17.7429 54.6603C16.3333 52.454 16.0384 49.7912 15.7674 47.2469C15.2705 42.5859 14.3784 38.333 10.4981 35.2932C6.66736 32.2927 1.6757 31.1421 -3.00746 30.2614C-8.49724 29.229 -14.1283 28.6684 -19.4128 30.8785C-24.0751 32.8284 -27.878 36.2799 -31.7723 39.4049C-36.142 42.9115 -40.9471 45.8952 -46.6269 46.5871C-51.9821 47.2396 -57.3228 45.1174 -59.5256 39.9469C-61.1443 36.1482 -60.9002 31.8416 -61.071 27.8029C-61.2315 24.0079 -61.6958 19.9872 -64.1793 16.9354C-66.725 13.8072 -70.8612 12.6623 -74.7668 12.9112C-85.2212 13.5774 -91.1945 23.0496 -93.6804 32.2708C-96.8121 43.8875 -95.3632 56.6142 -100.77 67.6257C-103.063 72.2957 -106.528 76.5311 -111.371 78.6733C-111.581 78.7663 -111.443 79.0972 -111.232 79.0036L-111.233 79.0034Z" fill="white"/>
</g>
<g opacity="0.411">
<path d="M-111.878 88.5111C-103.244 83.9587 -100.002 73.5807 -98.6554 64.5831C-97.0422 53.8084 -97.274 41.902 -90.7662 32.5953C-87.9837 28.6158 -84.0815 25.6515 -79.2381 24.7771C-75.0538 24.0218 -70.3548 24.8829 -67.6871 28.4561C-63.2356 34.4185 -66.3658 42.9736 -61.8476 48.9671C-55.8432 56.9317 -44.2134 53.0029 -37.427 48.4114C-33.3805 45.6736 -29.5974 42.4071 -25.0478 40.5066C-19.59 38.2268 -13.905 38.9876 -8.30751 40.2922C-3.56114 41.3984 1.63644 42.9097 5.08755 46.5692C8.48568 50.1725 8.28723 54.868 9.49998 59.3515C10.6295 63.5277 13.6193 66.0369 17.7915 66.9744C22.9531 68.1343 28.6566 67.4713 33.8258 66.7083C45.2689 65.0194 56.2179 61.1103 67.398 58.2878C72.9432 56.8877 78.5663 55.7472 84.2749 55.2899C89.1832 54.8965 94.1741 54.959 98.9463 56.2994C103.137 57.4765 107.226 59.6841 109.67 63.4009C112.676 67.974 112.428 73.5843 110.66 78.5651C106.962 88.9824 97.7965 96.5399 94.9084 107.33C93.6618 111.987 93.9588 117.048 96.6883 121.139C99.4482 125.276 103.929 127.175 108.163 129.428C110.571 130.709 114.486 132.47 113.362 135.831C112.6 138.113 110.618 139.926 109.066 141.684C105.761 145.426 104.474 150.051 104.605 154.999C104.888 165.716 111.49 174.965 112.71 185.52C113.782 194.792 111.447 204.177 107.08 212.347C102.627 220.679 96.0522 227.916 88.2055 233.173C78.7886 239.481 67.9765 243.403 58.7392 250.01C54.6758 252.917 50.8356 256.315 47.9368 260.412C46.5977 262.305 45.4619 264.36 44.6998 266.554C43.8418 269.025 43.8241 271.78 42.6919 274.147C40.683 278.349 35.5934 279.357 31.3808 279.577C27.103 279.8 22.856 279.147 18.5979 279.876C15.2881 280.443 11.7446 281.761 10.2183 284.987C10.0987 285.239 10.499 285.407 10.6181 285.155C12.5597 281.052 17.8579 280.172 21.9221 279.953C26.2848 279.718 30.6209 280.418 34.96 279.61C38.6969 278.914 42.2219 277.09 43.5051 273.288C44.3499 270.784 44.4916 268.135 45.4993 265.666C46.4701 263.287 47.8666 261.098 49.4728 259.099C56.6234 250.202 67.2239 245.179 77.1213 240.022C81.9001 237.532 86.6884 234.965 91.0038 231.716C94.6468 228.973 97.9665 225.796 100.884 222.292C106.708 215.297 111.016 206.89 112.675 197.903C113.474 193.575 113.638 189.119 113.051 184.753C112.369 179.69 110.537 174.933 108.763 170.174C106.745 164.757 104.811 159.172 105.044 153.308C105.154 150.524 105.733 147.72 107.04 145.241C108.254 142.938 110.196 141.203 111.813 139.199C112.942 137.799 114.233 136.01 113.996 134.1C113.736 132.011 111.565 130.879 109.938 129.924C105.355 127.232 100.109 125.501 97.0315 120.876C89.7844 109.985 99.8623 97.6106 105.76 88.7866C110.734 81.3462 115.683 70.8966 109.64 62.6001C104.51 55.5578 94.5522 54.333 86.5047 54.7151C74.9365 55.264 63.8176 58.7773 52.75 61.8985C47.0867 63.4954 41.3862 65.0105 35.5792 65.9926C30.0481 66.9279 23.972 67.7308 18.4059 66.6608C15.8444 66.1687 13.3092 65.1115 11.6758 62.9945C10.1668 61.0388 9.69648 58.5863 9.3038 56.2067C8.59148 51.8909 7.63098 47.9789 4.10926 45.0687C0.617708 42.1838 -3.91914 40.8731 -8.25165 39.8633C-13.4548 38.6504 -18.8275 37.8367 -23.9948 39.6399C-28.4978 41.2114 -32.2686 44.2454 -36.1118 46.9705C-40.3884 50.0028 -45.062 52.5256 -50.3777 53.0099C-55.5106 53.4775 -60.5862 51.4242 -62.7748 46.5363C-64.3061 43.1162 -64.2724 39.2601 -64.7611 35.6097C-65.2109 32.2501 -66.1894 28.8295 -68.8745 26.5579C-71.7982 24.0843 -75.9952 23.6801 -79.6296 24.4113C-88.9066 26.2773 -93.8555 35.1764 -96.0427 43.6538C-98.9172 54.7951 -97.7069 66.8988 -102.691 77.4973C-104.726 81.8242 -107.749 85.8455 -112.048 88.1123C-112.293 88.2413 -112.127 88.6427 -111.879 88.512L-111.878 88.5111Z" fill="white"/>
</g>
<g opacity="0.485">
<path d="M-112.467 97.9863C-104.723 93.0835 -101.944 83.242 -100.708 74.7135C-99.2417 64.5978 -99.2998 53.6191 -93.6787 44.6717C-91.2804 40.8538 -87.9201 37.7666 -83.549 36.4404C-79.8923 35.331 -75.3369 35.3668 -72.3395 38.0409C-67.1535 42.6669 -69.3642 50.9697 -64.768 56.0597C-58.5333 62.964 -47.8437 59.4878 -41.0536 55.4505C-37.089 53.0929 -33.2633 50.3084 -28.7853 48.9935C-23.5528 47.4569 -18.1828 48.6448 -13.0881 50.1479C-8.74512 51.4293 -4.14353 53.1854 -1.12998 56.7297C1.83796 60.2201 1.71897 64.7136 3.42789 68.7425C5.07411 72.6244 8.69567 74.3788 12.7095 74.8827C17.6197 75.4991 22.7874 74.8433 27.6278 73.986C38.0708 72.1364 48.0582 68.4441 58.3055 65.8076C67.6452 63.4048 78.2097 61.3198 87.7059 64.0732C91.6008 65.2025 95.3636 67.263 97.6966 70.6752C100.511 74.791 100.592 79.9169 99.2274 84.5649C96.3249 94.4484 88.3312 101.774 84.8862 111.425C83.354 115.718 82.7406 120.58 84.4856 124.911C86.1164 128.958 89.534 131.013 92.988 133.352C95.0268 134.733 97.9186 136.509 97.0576 139.365C96.4019 141.541 94.6067 143.326 93.1923 145.035C90.2395 148.602 88.9529 152.79 88.9662 157.408C88.9959 167.556 94.8729 176.483 95.8419 186.479C96.695 195.278 94.1863 204.064 89.885 211.693C85.4573 219.546 79.1453 226.353 71.8481 231.62C63.424 237.7 54.0447 242.331 45.7098 248.555C41.9084 251.394 38.2662 254.554 35.3011 258.276C33.89 260.048 32.6331 261.96 31.6839 264.019C30.6996 266.156 30.3895 268.488 29.4862 270.642C27.714 274.868 23.0383 276.047 18.8729 276.333C14.7412 276.617 10.6197 275.967 6.49524 276.515C3.31064 276.938 -0.308249 277.966 -2.0446 280.913C-2.20915 281.192 -1.8082 281.507 -1.64188 281.225C0.492273 277.603 5.45325 276.951 9.26966 276.79C13.3838 276.616 17.4699 277.241 21.565 276.531C25.2747 275.887 28.7113 274.166 30.1028 270.463C30.944 268.224 31.3245 265.892 32.3879 263.725C33.4588 261.542 34.8718 259.541 36.4419 257.69C43.1202 249.819 52.3551 244.46 61.0579 239.148C65.4666 236.457 69.9362 233.804 74.0192 230.628C77.5065 227.915 80.7254 224.851 83.6002 221.496C89.2286 214.927 93.6369 207.123 95.5378 198.638C96.46 194.522 96.7583 190.261 96.3103 186.063C95.7926 181.21 94.1524 176.605 92.6024 172.008C90.8591 166.838 89.202 161.518 89.5085 155.994C89.6489 153.467 90.1836 150.934 91.3239 148.662C92.4289 146.459 94.2025 144.742 95.6777 142.799C96.7049 141.445 97.8383 139.792 97.7454 138.01C97.6381 135.952 95.6218 134.601 94.1076 133.513C92.225 132.159 90.158 131.058 88.4065 129.526C86.7129 128.044 85.4213 126.159 84.6977 124.024C82.9103 118.75 84.4775 113.03 86.7971 108.189C89.155 103.269 92.4464 98.9143 95.2672 94.2677C99.6109 87.1134 103.42 77.404 97.7345 69.8564C92.8422 63.3613 83.6642 62.0842 76.0966 62.3942C65.3951 62.8328 55.1156 66.0931 44.9221 69.1066C39.7409 70.6384 34.5365 72.1253 29.231 73.1679C23.9688 74.2023 18.3215 75.0296 12.9592 74.4006C10.6089 74.1251 8.17777 73.482 6.32795 71.934C4.49857 70.4029 3.63216 68.2002 3.05619 65.95C2.54117 63.9373 2.19096 61.8751 1.40359 59.9421C0.628102 58.0383 -0.582971 56.3741 -2.11033 55.0026C-5.38342 52.0633 -9.708 50.5645 -13.872 49.3969C-18.673 48.0505 -23.6517 47.0617 -28.5681 48.406C-32.7681 49.5545 -36.4132 52.0181 -40.0822 54.2701C-44.3697 56.9017 -48.9517 59.0759 -54.052 59.412C-58.8321 59.7269 -63.5849 57.9189 -65.9136 53.5337C-67.5457 50.4599 -67.7405 46.9163 -68.6363 43.6095C-69.4222 40.7094 -70.918 37.9875 -73.6435 36.511C-76.7493 34.8288 -80.6176 34.9905 -83.9012 36.0201C-92.4798 38.7092 -96.6957 47.6511 -98.5745 55.7895C-100.979 66.2039 -100.158 77.3574 -104.553 87.2893C-106.351 91.3533 -108.971 95.1734 -112.777 97.5832C-113.054 97.7586 -112.742 98.1612 -112.467 97.9869L-112.467 97.9863Z" fill="white"/>
</g>
<g opacity="0.558">
<path d="M-113.103 107.489C-106.307 102.266 -103.931 93.1145 -102.787 85.0395C-101.455 75.6368 -101.363 65.6681 -96.7248 57.1154C-94.6667 53.3205 -91.6926 49.9599 -87.6669 48.2332C-84.442 46.8499 -80.3204 46.2702 -77.0942 47.9706C-74.1675 49.5132 -72.9614 52.5221 -71.9573 55.4815C-71.0053 58.287 -69.9559 61.034 -67.7292 63.0935C-61.2657 69.0712 -51.3159 65.9131 -44.451 62.4544C-40.6306 60.5295 -36.8197 58.3582 -32.538 57.6683C-27.5818 56.8697 -22.6039 58.3811 -17.9923 60.0821C-14.0357 61.5413 -9.99581 63.5178 -7.35509 66.9239C-4.87424 70.1236 -4.66651 74.2501 -2.65054 77.6601C-0.572305 81.1753 3.32685 82.3731 7.19958 82.6015C11.8786 82.8773 16.6662 82.1867 21.2374 81.2414C30.7264 79.2798 39.8024 75.791 49.1601 73.3351C57.7952 71.0688 67.5239 69.2421 76.3028 71.8001C79.9578 72.8652 83.4793 74.795 85.7242 77.9512C88.2632 81.5211 88.6934 85.9942 87.8155 90.1926C85.8747 99.4748 78.9715 106.651 75.1936 115.146C73.3995 119.18 72.1567 123.63 72.6379 128.081C72.8289 129.847 73.3349 131.582 74.2445 133.114C75.1096 134.571 76.3268 135.71 77.5444 136.866C79.1375 138.38 81.3812 140.315 80.7859 142.745C80.2644 144.873 78.6098 146.656 77.3073 148.351C74.6136 151.857 73.3657 155.771 73.3347 160.197C73.2687 169.661 78.3648 178.164 79.0604 187.516C79.7001 196.118 76.8087 204.557 72.3002 211.787C67.6831 219.191 61.4419 225.557 54.4858 230.787C46.8191 236.551 38.879 241.91 31.454 247.999C28.0369 250.801 24.7101 253.776 21.8811 257.184C20.5374 258.803 19.3114 260.526 18.3158 262.382C17.2685 264.333 16.7927 266.541 15.7 268.458C13.679 272.004 9.34477 272.911 5.57838 273.138C1.66468 273.374 -2.23772 272.786 -6.14786 273.235C-9.10526 273.574 -12.457 274.379 -14.3362 276.888C-14.5619 277.189 -14.0997 277.547 -13.8739 277.246C-11.581 274.184 -7.00113 273.743 -3.474 273.63C0.477201 273.505 4.40148 274.082 8.33531 273.424C11.6224 272.873 14.8046 271.48 16.4044 268.392C17.4501 266.373 17.9763 264.151 19.1028 262.156C20.2106 260.195 21.5845 258.388 23.0649 256.695C26.1866 253.124 29.82 250.029 33.5221 247.08C37.3246 244.052 41.1995 241.114 45.1296 238.254C49.02 235.422 53.0381 232.744 56.7952 229.735C60.1721 227.029 63.3384 224.055 66.2181 220.825C71.7451 214.625 76.3367 207.336 78.4837 199.253C79.5346 195.297 79.96 191.177 79.612 187.093C79.2146 182.432 77.737 177.965 76.3995 173.511C74.9599 168.717 73.6259 163.788 73.9702 158.733C74.1379 156.268 74.6893 153.8 75.833 151.597C76.8652 149.609 78.4357 147.971 79.706 146.141C80.6255 144.816 81.6173 143.219 81.4866 141.536C81.3434 139.693 79.7308 138.195 78.493 136.972C77.1739 135.669 75.7419 134.477 74.7745 132.87C73.6484 130.999 73.1863 128.819 73.1302 126.655C72.8652 116.396 80.1553 108.14 84.76 99.6174C88.4425 92.8013 91.1158 83.8854 85.8311 77.1164C81.1311 71.0963 72.6115 69.8173 65.4591 70.0854C55.6688 70.4526 46.2716 73.4463 36.9879 76.3251C27.5397 79.2553 17.4818 82.5489 7.45604 82.0308C5.23502 81.9159 2.9296 81.5431 0.965084 80.4445C-0.963338 79.3661 -2.20617 77.5956 -3.01109 75.5784C-3.73906 73.7537 -4.18487 71.8302 -4.93256 70.0123C-5.66642 68.2273 -6.69878 66.6232 -8.05408 65.2453C-10.9425 62.3086 -14.8163 60.5735 -18.646 59.2264C-22.9941 57.697 -27.6207 56.3763 -32.2671 57.0359C-36.4957 57.6362 -40.285 59.6803 -44.0395 61.5918C-48.1229 63.6713 -52.3534 65.4152 -56.9757 65.7605C-61.4097 66.0919 -65.9257 64.8516 -68.6875 61.166C-70.5792 58.6416 -71.1562 55.5206 -72.3669 52.6722C-73.5041 49.997 -75.4399 47.7368 -78.2881 46.8513C-81.4694 45.8623 -85.0398 46.4382 -88.0377 47.7577C-95.7318 51.1434 -99.3194 59.7505 -100.977 67.4652C-103.06 77.159 -102.538 87.4128 -106.254 96.7375C-107.816 100.657 -110.074 104.424 -113.459 107.026C-113.758 107.256 -113.402 107.719 -113.103 107.49L-113.103 107.489Z" fill="white"/>
</g>
<g opacity="0.632">
<path d="M-113.741 116.992C-107.883 111.44 -105.89 102.93 -104.844 95.2288C-103.644 86.3842 -103.431 77.0916 -99.3618 68.9472C-97.5738 65.3688 -95.0038 62.0142 -91.4561 60.0466C-88.5714 58.4469 -84.9294 57.4925 -81.6636 58.3556C-78.7383 59.1287 -76.9904 61.4125 -75.5743 63.9202C-74.2165 66.3247 -72.8105 68.6278 -70.5133 70.2564C-63.8433 74.9852 -54.9838 72.411 -48.0634 69.6839C-44.1699 68.1494 -40.2173 66.5564 -35.9658 66.5425C-31.4565 66.5275 -27.0129 68.2654 -22.9701 70.1206C-19.3861 71.7654 -15.8544 73.9522 -13.5311 77.2156C-11.409 80.1963 -10.8204 84.091 -8.33255 86.8242C-5.77391 89.6351 -1.84014 90.2387 1.78418 90.2204C6.127 90.1987 10.4693 89.4783 14.684 88.4752C23.3769 86.4064 31.6942 83.0571 40.3262 80.7722C48.3678 78.6436 57.4759 77.0872 65.5874 79.738C68.9272 80.8295 72.0718 82.7292 74.0729 85.6807C76.3595 89.0533 76.7957 93.2112 76.0742 97.1452C74.4834 105.819 68.4744 112.815 64.8201 120.634C63.0518 124.418 61.7362 128.423 61.3879 132.604C61.1358 135.63 61.6337 138.298 62.9962 140.994C63.8674 142.719 65.0241 144.577 64.4199 146.563C63.8557 148.419 62.5496 150.017 61.4446 151.575C60.3273 153.151 59.3375 154.746 58.7209 156.591C58.0609 158.565 57.7584 160.645 57.707 162.722C57.4863 171.671 61.975 179.873 62.3759 188.745C62.7495 197.018 59.4924 204.925 54.8815 211.643C50.1168 218.585 43.9677 224.496 37.4311 229.755C33.929 232.573 30.4475 235.39 27.1213 238.416C23.9104 241.337 20.7443 244.305 17.5169 247.208C14.4235 249.991 11.3375 252.807 8.58313 255.933C7.27559 257.417 6.03971 258.974 4.97985 260.646C3.91072 262.333 3.24388 264.268 2.09583 265.897C-0.0340472 268.92 -3.93697 269.712 -7.40627 269.924C-11.0855 270.148 -14.7563 269.621 -18.4362 269.917C-21.3083 270.149 -24.5238 270.725 -26.6293 272.861C-26.9277 273.164 -26.4024 273.565 -26.1076 273.266C-23.6108 270.733 -19.3041 270.507 -15.9684 270.464C-12.2673 270.417 -8.59385 270.907 -4.90806 270.321C-1.72157 269.814 1.32112 268.529 3.0322 265.655C4.09539 263.87 4.86233 261.958 6.04127 260.231C7.20641 258.525 8.53723 256.935 9.93492 255.416C12.9087 252.183 16.2075 249.27 19.4704 246.338C22.7809 243.363 25.9897 240.277 29.3202 237.324C35.7796 231.597 42.7939 226.612 48.718 220.286C54.2959 214.33 59.2377 207.401 61.6174 199.512C62.711 195.887 63.2262 192.101 63.0122 188.315C62.7588 183.83 61.4622 179.493 60.321 175.174C59.1299 170.667 58.0396 166.039 58.4397 161.343C58.6292 159.119 59.1341 156.903 60.1287 154.896C61.0655 153.005 62.4638 151.39 63.6022 149.624C64.4234 148.35 65.2753 146.899 65.2791 145.337C65.2833 143.634 64.2313 141.985 63.4887 140.509C61.8973 137.348 61.7523 134.14 62.2885 130.665C63.7119 121.44 69.6209 114.13 73.6506 105.982C76.8573 99.4972 78.9879 91.3 74.346 84.9242C70.1813 79.203 62.4007 77.6539 55.7418 77.7541C46.6318 77.891 37.8895 80.6427 29.3041 83.4369C20.5957 86.2708 11.7183 89.2981 2.47345 89.5536C-1.76785 89.671 -6.32969 88.9583 -8.80216 85.1251C-9.82392 83.5412 -10.4317 81.7332 -11.2079 80.0263C-11.9914 78.3038 -12.9574 76.6962 -14.2413 75.2973C-16.8001 72.5094 -20.1663 70.6159 -23.6008 69.1166C-27.4982 67.4154 -31.7054 65.8588 -36.0143 65.8854C-40.1002 65.9105 -43.9213 67.3405 -47.6711 68.8195C-51.6442 70.3868 -55.6445 71.8006 -59.9392 72.123C-64.1321 72.4379 -68.3558 71.5748 -71.4858 68.6051C-73.5683 66.6294 -74.5952 63.9693 -76.1909 61.6448C-77.7043 59.4403 -79.9209 57.8756 -82.6001 57.4971C-85.7132 57.0571 -88.9943 57.9325 -91.7126 59.4386C-98.556 63.2307 -101.722 71.2839 -103.249 78.5561C-105.181 87.7595 -104.831 97.417 -108.022 106.352C-109.353 110.077 -111.245 113.721 -114.143 116.469C-114.449 116.759 -114.05 117.285 -113.741 116.992L-113.741 116.992Z" fill="white"/>
</g>
<g opacity="0.705">
<path d="M-114.31 126.428C-109.347 120.491 -107.769 112.387 -106.835 104.922C-105.802 96.6727 -105.418 88.0843 -101.805 80.4441C-98.9111 74.3253 -93.0019 68.3871 -85.6618 69.0523C-82.8912 69.3034 -80.7802 70.8703 -78.907 72.8015C-76.9413 74.8278 -74.9414 76.6409 -72.3365 77.8185C-65.1315 81.0749 -57.074 78.3541 -49.8799 76.5616C-45.9941 75.5934 -42.0352 75.0875 -38.0879 76.0267C-34.1121 76.9726 -30.2021 78.8837 -26.7551 81.0545C-23.4895 83.111 -20.7002 85.6919 -18.7301 89.0314C-17.0849 91.8195 -15.7189 94.8163 -12.715 96.3983C-9.48578 98.0991 -5.51135 97.9478 -1.98801 97.6011C2.05569 97.2032 6.01807 96.2842 9.91222 95.1459C17.8064 92.8387 25.4244 89.6289 33.4345 87.7114C40.6987 85.9723 49.0843 85.0598 56.1106 88.2108C59.268 89.6271 61.9193 91.9486 63.3573 95.1358C64.8605 98.4675 64.8442 102.188 64.0578 105.701C62.2833 113.63 57.1217 120.29 53.7732 127.567C52.138 131.12 50.9164 134.798 49.8916 138.569C49.2317 140.997 48.3165 143.607 48.3203 146.141C48.3217 147.012 48.4512 147.886 48.4063 148.756C48.3605 149.643 48.0519 150.473 47.667 151.266C46.812 153.027 45.6058 154.594 44.6046 156.271C42.6929 159.473 42.0091 163.119 42.0674 166.819C42.2008 175.271 46.2128 183.226 45.7473 191.729C45.3457 199.064 41.8931 205.746 37.5035 211.489C32.9228 217.481 27.3399 222.63 21.6977 227.6C18.6689 230.267 15.6882 232.943 12.9889 235.951C10.2439 239.011 7.68445 242.23 4.81526 245.178C2.12663 247.94 -0.701943 250.562 -3.39988 253.315C-6.05073 256.021 -8.36605 258.846 -10.4844 261.98C-14.8846 268.49 -23.5499 266.384 -30.2174 266.596C-33.1324 266.688 -36.4209 266.997 -38.8533 268.77C-39.2366 269.049 -38.7877 269.632 -38.4052 269.353C-35.5514 267.273 -31.3805 267.254 -28.0013 267.312C-24.5667 267.371 -21.1526 267.736 -17.7372 267.156C-16.1812 266.893 -14.63 266.45 -13.2494 265.671C-11.7427 264.82 -10.6631 263.583 -9.71858 262.153C-7.63985 259.004 -5.22797 256.212 -2.58212 253.526C0.229894 250.671 3.17799 247.951 5.94963 245.056C8.85743 242.018 11.4472 238.698 14.2939 235.605C17.1406 232.512 20.3208 229.812 23.4511 227.027C26.2503 224.536 29.0036 221.991 31.6248 219.313C36.7398 214.087 41.5303 208.225 44.2849 201.379C45.5859 198.146 46.3922 194.705 46.503 191.215C46.6328 187.132 45.7773 183.124 44.8608 179.169C43.8675 174.882 42.7486 170.547 42.7948 166.114C42.8171 163.971 43.0911 161.806 43.7743 159.769C44.4175 157.851 45.5025 156.19 46.5954 154.505C47.5182 153.083 48.5333 151.596 48.9626 149.934C49.368 148.366 48.9484 146.737 49.0904 145.142C49.1988 143.924 49.5843 142.746 49.8763 141.563C50.2968 139.86 50.748 138.168 51.2435 136.486C52.3964 132.57 53.8924 128.807 55.7532 125.172C57.7123 121.344 59.9842 117.68 61.8633 113.811C64.8383 107.687 67.0385 100.127 63.4848 93.7583C60.2724 88.0004 53.4182 85.7842 47.193 85.4837C38.936 85.085 30.8757 87.4012 23.1299 90.0003C15.1601 92.6743 7.21607 95.7936 -1.19028 96.7745C-5.08627 97.2293 -9.84832 97.5843 -13.2451 95.2188C-16.1932 93.166 -17.3062 89.5608 -19.3327 86.7453C-21.4773 83.7655 -24.4707 81.4996 -27.6231 79.6781C-31.0374 77.705 -34.7839 75.9302 -38.669 75.1467C-46.5626 73.5552 -54.0162 77.6266 -61.7563 78.3984C-65.9866 78.8202 -70.2332 78.4299 -73.9179 76.1539C-76.1946 74.7477 -77.7996 72.6857 -79.7748 70.934C-84.2516 66.9637 -90.5141 67.988 -95.1861 71.1032C-101.369 75.2256 -104.176 82.9655 -105.577 89.9365C-107.321 98.6111 -107.147 107.634 -109.828 116.123C-110.945 119.658 -112.5 123.115 -114.892 125.977C-115.196 126.341 -114.614 126.79 -114.31 126.427L-114.31 126.428Z" fill="white"/>
</g>
<g opacity="0.779">
<path d="M-114.94 135.925C-106.538 122.786 -110.45 105.977 -104.287 92.061C-101.604 86.0021 -96.5484 80.4567 -89.5893 79.796C-87.0087 79.5511 -84.5606 80.3039 -82.2899 81.4694C-79.6451 82.8268 -77.0776 84.1986 -74.1873 84.9843C-66.9031 86.9649 -59.4384 84.6589 -52.1272 84.2194C-48.1123 83.9779 -44.2707 84.6252 -40.6028 86.2887C-37.2044 87.83 -33.9614 89.8597 -31.0834 92.2346C-29.603 93.456 -28.2126 94.7896 -26.9756 96.2584C-25.8653 97.5766 -24.9138 99.0153 -23.8528 100.371C-21.9009 102.866 -19.4941 104.572 -16.3353 105.131C-12.6894 105.776 -8.81947 105.249 -5.22486 104.531C-1.59262 103.806 1.9533 102.685 5.44721 101.469C12.667 98.956 19.7929 95.8795 27.3686 94.5847C34.0117 93.4495 41.9147 93.3986 47.5632 97.6434C50.2011 99.6256 51.9589 102.55 52.5616 105.788C53.1909 109.17 52.6214 112.665 51.591 115.909C50.4735 119.426 48.7858 122.723 47.0683 125.978C45.2024 129.514 43.3434 133.041 41.6659 136.672C40.24 139.759 39.0152 143.063 36.8496 145.73C36.0629 146.699 35.0799 147.459 34.2364 148.372C33.2997 149.386 32.7625 150.59 32.4219 151.917C31.5147 155.454 29.0741 158.177 27.7439 161.53C26.3997 164.917 26.2262 168.682 26.5727 172.274C27.3036 179.852 30.2929 187.278 28.9206 194.966C27.7862 201.32 24.1238 206.848 19.9484 211.632C15.5638 216.655 10.5122 221.032 5.6584 225.585C3.02753 228.053 0.454594 230.571 -1.69374 233.481C-3.99894 236.604 -5.86728 240.026 -8.23637 243.104C-12.5892 248.76 -18.2588 253.205 -22.9791 258.527C-24.2274 259.934 -25.4308 261.299 -27.1605 262.122C-28.669 262.839 -30.3204 263.194 -31.9723 263.383C-35.4064 263.775 -38.8353 263.343 -42.2749 263.33C-45.1954 263.319 -48.3613 263.412 -51.0492 264.687C-51.5192 264.91 -51.2076 265.659 -50.7342 265.434C-47.6926 263.992 -43.9804 264.06 -40.6923 264.165C-37.2678 264.275 -33.846 264.601 -30.4465 263.978C-28.9554 263.705 -27.4769 263.261 -26.1545 262.508C-24.7126 261.686 -23.6311 260.493 -22.5469 259.261C-20.1454 256.531 -17.4805 254.047 -14.8894 251.501C-12.2982 248.955 -9.69728 246.36 -7.48749 243.459C-5.0662 240.281 -3.15524 236.752 -0.745145 233.566C3.51905 227.929 9.26209 223.472 14.3372 218.599C19.0217 214.1 23.5994 209.286 26.7033 203.527C28.1499 200.843 29.2288 197.95 29.7477 194.94C30.3605 191.386 30.0809 187.793 29.489 184.255C28.1876 176.478 25.3073 167.947 29.1422 160.418C29.9812 158.771 31.019 157.235 31.8914 155.607C32.2639 154.912 32.6118 154.197 32.8524 153.444C33.1032 152.658 33.2296 151.837 33.5201 151.063C34.0805 149.569 35.1444 148.612 36.2664 147.541C37.1581 146.689 37.9203 145.737 38.5856 144.699C40.5298 141.665 41.8065 138.231 43.3505 134.988C45.1267 131.258 47.1467 127.659 49.0183 123.977C52.002 118.109 54.9096 111.147 53.0862 104.469C51.3739 98.1988 45.8219 94.6788 39.6996 93.5792C32.3729 92.2632 24.82 93.9491 17.8566 96.2079C10.4465 98.6113 3.27204 101.845 -4.36052 103.524C-8.08917 104.344 -12.1185 104.973 -15.9255 104.378C-17.8161 104.083 -19.5639 103.396 -21.0494 102.174C-22.3375 101.114 -23.3251 99.7535 -24.3023 98.4154C-28.6206 92.5033 -34.5507 87.8578 -41.3508 85.0831C-44.832 83.6624 -48.4993 83.192 -52.2396 83.4169C-56.0815 83.6476 -59.8659 84.433 -63.7002 84.7551C-67.6837 85.0897 -71.6917 85.0368 -75.5079 83.7326C-78.1759 82.8209 -80.5251 81.3424 -83.0766 80.1862C-88.2909 77.8228 -94.0267 79.2244 -98.4151 82.6794C-103.949 87.0358 -106.503 94.2756 -107.83 100.951C-109.436 109.028 -109.428 117.358 -111.467 125.358C-112.364 128.873 -113.62 132.36 -115.582 135.429C-115.862 135.866 -115.222 136.365 -114.941 135.926L-114.94 135.925Z" fill="white"/>
</g>
<g opacity="0.853">
<path d="M-115.512 145.321C-109.35 131.996 -112.338 116.493 -106.504 103.1C-103.927 97.1858 -99.3338 92.0067 -92.8739 90.4022C-87.0453 88.9545 -81.4895 91.1976 -75.7415 91.8935C-68.5885 92.7595 -61.3073 91.4126 -54.1923 92.6757C-46.6728 94.0103 -40.446 98.9199 -35.1954 104.213C-32.9874 106.44 -31.0145 109.069 -28.3812 110.823C-25.6245 112.659 -22.4142 113.129 -19.1577 112.977C-12.0339 112.645 -5.26994 109.951 1.29167 107.384C8.00399 104.757 14.839 102.072 22.1254 101.755C28.1562 101.493 35.1012 102.912 38.7271 108.216C42.4382 113.644 41.1834 120.597 38.9476 126.336C37.5752 129.859 35.7933 133.204 34.0454 136.55C32.3879 139.723 30.8508 143.043 28.7953 145.985C26.9565 148.618 24.6055 150.248 21.7303 151.567C20.4581 152.151 19.1735 152.77 18.1274 153.719C17.0168 154.727 16.3877 155.97 15.7186 157.284C14.2057 160.256 12.292 162.999 11.447 166.267C10.5484 169.743 10.6652 173.388 11.1231 176.92C12.0314 183.929 14.1735 191.024 11.8893 198.001C10.1235 203.394 6.38416 207.868 2.40191 211.795C-1.76488 215.903 -6.34334 219.565 -10.5413 223.64C-12.7991 225.832 -14.9879 228.135 -16.6828 230.8C-18.6308 233.864 -19.8308 237.294 -21.493 240.506C-24.6749 246.653 -30.1103 251.261 -35.3564 255.608C-36.6986 256.72 -38.0164 257.92 -39.5771 258.722C-40.9557 259.431 -42.4757 259.826 -44.0018 260.059C-47.3535 260.568 -50.7145 260.242 -54.0791 260.104C-57.1065 259.979 -60.2502 259.894 -63.2147 260.619C-63.763 260.753 -63.6474 261.633 -63.0919 261.497C-56.5167 259.888 -49.6847 262.081 -43.0706 260.798C-41.6657 260.525 -40.2719 260.102 -39.0082 259.422C-37.5074 258.614 -36.2261 257.479 -34.9203 256.398C-32.364 254.281 -29.8323 252.128 -27.4811 249.782C-25.0501 247.358 -22.8122 244.73 -21.1402 241.718C-19.2884 238.382 -18.0998 234.713 -16.064 231.475C-12.7012 226.125 -7.54446 222.009 -2.86819 217.859C1.4691 214.009 5.88453 210.066 9.1912 205.259C10.7493 202.993 12.0442 200.532 12.8487 197.896C13.7871 194.822 13.9787 191.635 13.7214 188.443C13.1145 180.908 10.1714 173.127 12.547 165.62C13.0777 163.943 13.9006 162.379 14.755 160.848C15.575 159.379 16.343 157.887 17.1445 156.409C18.7448 153.458 21.8137 152.733 24.5222 151.171C27.2633 149.59 29.177 147.211 30.7658 144.518C32.6429 141.335 34.2917 138.013 35.9925 134.734C39.0325 128.872 42.1979 122.47 41.9717 115.69C41.8738 112.756 40.9964 109.865 39.2836 107.466C37.5916 105.096 35.1257 103.398 32.4303 102.356C26.1516 99.9263 18.9904 100.682 12.6496 102.443C5.70232 104.371 -0.819131 107.516 -7.664 109.747C-11.2278 110.908 -14.901 111.8 -18.6498 112.062C-22.363 112.323 -25.9402 111.734 -28.8934 109.342C-31.5574 107.184 -33.6936 104.38 -36.1773 102.019C-38.8408 99.4873 -41.717 97.1572 -44.8812 95.2766C-48.0668 93.383 -51.5058 92.1363 -55.1797 91.6229C-58.8064 91.116 -62.4814 91.2521 -66.1312 91.3082C-69.7811 91.3643 -73.4709 91.4116 -77.0766 90.806C-80.064 90.304 -83.0072 89.494 -86.019 89.1437C-91.7343 88.4783 -97.338 90.3143 -101.558 94.2394C-106.459 98.797 -108.808 105.524 -110.076 111.932C-111.583 119.548 -111.685 127.364 -113.217 134.977C-113.907 138.406 -114.857 141.796 -116.328 144.977C-116.568 145.496 -115.75 145.839 -115.511 145.322L-115.512 145.321Z" fill="white"/>
</g>
<g opacity="0.926">
<path d="M-116.137 154.809C-114.076 147.987 -113.51 140.865 -112.821 133.808C-112.15 126.923 -111.315 119.888 -108.446 113.517C-105.762 107.555 -101.241 102.829 -95.1401 100.36C-92.548 99.3105 -89.8349 98.6644 -87.0499 98.4193C-83.922 98.1442 -80.7975 98.3712 -77.6691 98.5021C-70.6399 98.796 -63.4212 99.0785 -56.8655 101.904C-53.6798 103.277 -50.7949 105.226 -48.2022 107.521C-45.6454 109.785 -43.4241 112.389 -40.9636 114.751C-38.7364 116.89 -36.2806 118.83 -33.3155 119.818C-30.1368 120.878 -26.7315 120.785 -23.4575 120.271C-16.8927 119.238 -10.8462 116.338 -4.7574 113.823C1.48883 111.243 8.04907 108.992 14.9108 109.591C20.8957 110.112 26.614 113.079 28.6503 119.044C30.6701 124.959 28.6022 131.525 26.1827 136.986C24.7711 140.172 23.1538 143.314 21.352 146.298C19.6433 149.127 17.6503 151.831 14.6975 153.453C12.087 154.886 9.15662 155.403 6.34629 156.291C3.50468 157.189 1.17764 158.626 -0.533538 161.104C-2.38809 163.79 -3.86267 166.769 -4.47846 169.992C-5.12948 173.399 -4.91025 176.889 -4.46684 180.306C-3.60811 186.922 -2.09969 193.745 -4.98963 200.091C-7.09666 204.717 -10.8641 208.34 -14.6942 211.566C-18.6824 214.926 -22.9498 217.968 -26.704 221.599C-28.6635 223.495 -30.5001 225.543 -31.9047 227.89C-33.7217 230.925 -34.4552 234.304 -35.4123 237.667C-36.3463 240.947 -37.7762 243.871 -39.9852 246.483C-42.0205 248.89 -44.4707 250.934 -47.0782 252.694C-49.7657 254.507 -52.5927 256.095 -55.8112 256.697C-59.1473 257.322 -62.5368 257.147 -65.902 256.923C-69.0886 256.712 -72.2846 256.461 -75.4802 256.579C-76.0973 256.602 -75.9616 257.555 -75.3469 257.532C-68.5994 257.282 -61.6991 258.994 -55.0194 257.516C-51.9797 256.844 -49.2774 255.314 -46.7082 253.601C-44.0591 251.836 -41.5791 249.777 -39.4839 247.373C-37.3148 244.884 -35.753 242.07 -34.7834 238.915C-33.7172 235.445 -33.0909 231.849 -31.2526 228.668C-28.4739 223.857 -23.9431 220.245 -19.6694 216.825C-15.5644 213.539 -11.2993 210.331 -7.88338 206.298C-6.29426 204.422 -4.91031 202.349 -3.93483 200.086C-2.73283 197.297 -2.26213 194.306 -2.2914 191.28C-2.36176 184.015 -5.01307 176.804 -3.40616 169.545C-3.01418 167.775 -2.32236 166.083 -1.47639 164.483C-0.68238 162.983 0.242308 161.424 1.40875 160.179C3.58432 157.856 6.79177 157.134 9.74173 156.327C12.6002 155.545 15.3989 154.524 17.6664 152.549C20.0924 150.436 21.785 147.565 23.3268 144.781C26.5073 139.037 29.6803 132.809 30.3018 126.17C30.8376 120.446 28.8943 114.65 23.8815 111.454C18.5878 108.079 11.7202 107.997 5.76323 109.287C-0.789135 110.706 -6.82518 113.774 -13.0241 116.219C-16.2635 117.497 -19.5693 118.622 -23.0078 119.22C-26.5484 119.837 -30.2747 120.001 -33.6763 118.665C-36.8175 117.431 -39.327 115.089 -41.6576 112.718C-44.07 110.263 -46.3698 107.699 -49.0626 105.539C-51.7554 103.38 -54.7442 101.624 -57.9839 100.418C-61.2236 99.2123 -64.6213 98.5443 -68.0427 98.164C-71.6292 97.7656 -75.2366 97.6602 -78.8385 97.4914C-81.9361 97.346 -85.0328 97.197 -88.122 97.5629C-93.8842 98.2451 -99.4689 100.684 -103.64 104.755C-108.351 109.353 -110.8 115.729 -112.147 122.054C-113.698 129.34 -113.88 136.823 -114.898 144.185C-115.375 147.644 -116.011 151.09 -117.022 154.435C-117.199 155.022 -116.314 155.401 -116.136 154.809L-116.137 154.809Z" fill="white"/>
</g>
<path d="M-116.724 164.162C-115.631 157.164 -115.455 150.072 -114.791 143.029C-114.138 136.103 -112.999 129.083 -109.848 122.808C-104.283 111.727 -92.2236 104.698 -79.8544 104.996C-73.3522 105.152 -66.9401 107.215 -61.4765 110.726C-58.7885 112.453 -56.3132 114.522 -54.1646 116.887C-51.8938 119.388 -50.0706 122.31 -47.4655 124.498C-42.4563 128.703 -35.4278 128.965 -29.3128 127.573C-22.5598 126.036 -16.5504 122.419 -10.1632 119.883C-4.37996 117.587 2.11313 116.218 8.19748 118.228C10.9762 119.145 13.4668 120.777 15.2051 123.156C16.8617 125.422 17.6735 128.154 17.8301 130.938C18.1587 136.779 15.9503 142.632 13.2781 147.722C11.7547 150.625 10.0167 153.564 7.45786 155.678C5.24162 157.51 2.52536 158.439 -0.251229 159.032C-5.37355 160.127 -11.2197 160.218 -15.4614 163.69C-20.2735 167.628 -20.9062 174.367 -20.4467 180.154C-19.896 187.093 -17.8607 194.428 -21.2359 200.985C-23.4048 205.2 -27.2336 208.264 -31.0292 210.95C-34.9729 213.741 -39.1699 216.23 -42.7696 219.478C-44.4737 221.015 -46.044 222.726 -47.2484 224.688C-48.7043 227.058 -49.486 229.64 -49.8388 232.393C-50.2968 235.969 -50.2972 239.637 -51.9164 242.943C-53.2113 245.587 -55.2902 247.779 -57.6858 249.46C-63.2679 253.377 -70.166 254.23 -76.8235 253.836C-80.4407 253.621 -84.0283 253.082 -87.6076 252.539C-88.2678 252.438 -88.4026 253.467 -87.7423 253.567C-80.4425 254.676 -72.81 255.84 -65.5157 254.063C-59.8803 252.69 -54.4025 249.409 -51.4591 244.282C-49.7005 241.218 -49.3466 237.807 -49.0102 234.355C-48.7046 231.219 -48.1511 228.2 -46.5152 225.466C-44.0306 221.315 -40.004 218.359 -36.0867 215.662C-32.0566 212.888 -27.8244 210.298 -24.344 206.821C-22.6956 205.174 -21.2516 203.325 -20.2029 201.238C-18.7334 198.312 -18.2422 195.067 -18.2787 191.818C-18.3574 184.79 -20.7656 177.648 -18.7253 170.691C-17.86 167.741 -16.1241 165.165 -13.4723 163.552C-11.0828 162.099 -8.27882 161.506 -5.5582 161.028C-2.83544 160.55 -0.0803458 160.19 2.56898 159.373C5.45494 158.482 7.95826 156.937 9.97076 154.673C12.0748 152.305 13.6297 149.436 15.0053 146.6C16.3144 143.901 17.3914 141.082 18.1008 138.164C19.4174 132.748 19.3132 126.658 15.7111 122.107C11.972 117.382 5.69011 115.901 -0.0798781 116.292C-13.8667 117.224 -25.1003 129.459 -39.4154 127.005C-42.7988 126.425 -45.8161 124.871 -48.1974 122.392C-50.5741 119.917 -52.4564 117.033 -54.9154 114.624C-59.5249 110.11 -65.3204 106.823 -71.5514 105.157C-83.5782 101.943 -96.7403 105.549 -105.349 114.583C-115.302 125.028 -115.621 140.11 -116.637 153.641C-116.897 157.114 -117.215 160.585 -117.753 164.028C-117.856 164.688 -116.827 164.822 -116.725 164.162L-116.724 164.162Z" fill="white"/>
</g>
</svg>
