<svg width="583" height="962" viewBox="0 0 583 962" fill="none" xmlns="http://www.w3.org/2000/svg">
<g clip-path="url(#clip0_29_150)">
<g opacity="0.19">
<path d="M570.749 1323.2C537.333 1274.32 471.522 1273.18 419.05 1281.79C359.225 1291.61 287.416 1313.97 232.89 1274.88C211.43 1259.5 197.354 1232.86 197.945 1206.31C198.536 1179.77 215.856 1160.42 239.277 1150.22C261.273 1140.63 285.417 1137.7 308.318 1131.04C327.485 1125.46 346.932 1116.79 357.468 1098.88C369.695 1078.09 364.937 1053.7 352.969 1033.98C339.051 1011.04 317.894 995.643 294.874 982.771C270.349 969.054 243.886 956.945 223.986 936.556C200.615 912.611 193.754 879.418 188.833 847.456C184.861 821.662 182.391 790.61 198.741 768.307C215.885 744.923 246.922 744.631 270.563 731.613C292.867 719.332 299.141 696.217 296.069 672.179C292.402 643.478 280.602 615.067 268.636 588.958C242.58 532.107 206.836 480.509 175.782 426.406C160.118 399.117 145.565 371.094 134.222 341.708C124.138 315.587 116.478 288.211 117.005 259.975C117.479 234.481 125.314 208.332 145.7 191.691C171.869 170.329 207.552 172.248 238.471 180.079C269.188 187.858 297.484 202.568 327.901 211.285C354.928 219.032 385.219 223.01 411.519 210.588C469.122 183.382 466.048 109.478 468.114 56.0946C468.419 48.206 468.871 40.3177 469.711 32.4668C470.716 23.0869 473.159 12.1041 483.809 9.57697C497.845 6.24662 513.671 18.2354 525.064 24.7606C547.455 37.5836 572.571 38.048 596.866 30.3338C625.349 21.2901 648.444 2.14365 670.296 -17.5504C692.392 -37.4631 714.039 -57.6042 740.421 -71.7966C786.171 -96.4075 839.804 -104.931 891.157 -98.4067C942.489 -91.8854 992.195 -70.0736 1029.51 -33.8535C1074.19 9.51837 1100.17 68.4301 1145.72 110.954C1165.91 129.801 1189.87 145.745 1216.64 153.368C1228.48 156.74 1240.81 158.39 1253.12 157.763C1269.44 156.931 1284.46 149.7 1300.64 148.639C1329.34 146.759 1345.49 172.464 1354.29 196.148C1362.61 218.532 1365.68 242.263 1378 263.129C1387.62 279.402 1402.21 292.949 1422.17 292.165C1422.8 292.14 1422.63 291.179 1422.01 291.203C1394.67 292.278 1378.6 266.377 1369.9 243.866C1361.18 221.327 1358.36 197.115 1346.03 175.918C1334.52 156.129 1316.56 144.335 1293.16 148.654C1276.85 151.663 1262.03 157.353 1245.16 156.889C1230.92 156.499 1216.91 153.188 1203.71 147.903C1143.67 123.855 1109.59 67.4131 1073.48 17.3441C1056.37 -6.38672 1037.93 -29.4858 1015.05 -47.9508C995.571 -63.674 973.431 -76.0443 950.021 -84.8584C903.592 -102.336 851.994 -106.192 803.48 -95.8035C779.304 -90.626 755.864 -81.9037 734.417 -69.5677C708.959 -54.9228 687.97 -34.6144 666.198 -15.1809C642.68 5.80954 617.161 25.5165 585.693 32.3184C571.202 35.451 555.878 35.7293 541.627 31.2613C528.18 27.0466 517.001 18.0016 504.189 12.3428C495.564 8.53389 484.427 5.37298 476.47 12.2807C466.548 20.8956 467.927 39.2323 467.356 51.0089C465.765 83.8612 467.835 117.537 458.146 149.394C448.924 179.717 428.816 206.721 396.854 214.812C364.893 222.902 331.204 212.548 301.382 201.371C252.279 182.968 181.829 150.518 138.005 197.582C104.256 233.829 115.018 291.69 130.156 333.604C151.806 393.551 187.008 447.184 219.775 501.429C235.871 528.079 251.543 555.052 264.881 583.209C278.068 611.049 291.226 641.538 295.108 672.337C297.014 687.459 295.995 703.895 286.729 716.625C278.539 727.878 265.605 733.651 252.838 738.075C229.54 746.151 204.782 752.149 192.884 776.096C181.921 798.161 184.321 825 188.014 848.537C192.676 878.25 198.852 909.464 219.198 932.803C237.504 953.802 263.061 966.461 287.11 979.593C312.53 993.474 336.684 1009.05 352.083 1034.39C366.765 1058.55 369.097 1089.38 347.245 1110.17C330.496 1126.1 306.082 1131.02 284.329 1136.05C262.982 1140.99 240.145 1145.62 222.065 1158.75C204.451 1171.55 195.576 1191.65 197.148 1213.28C198.837 1236.52 211.179 1259.18 229.466 1273.54C251.093 1290.52 279.273 1296.92 306.257 1297.76C371.652 1299.79 435.448 1268.05 500.872 1281.5C528.126 1287.1 554.012 1300.43 569.999 1323.82C570.353 1324.34 571.102 1323.71 570.749 1323.2Z" fill="#2A2E30"/>
</g>
<g opacity="0.264">
<path d="M614.401 1313.08C582.084 1270.74 522.822 1268.77 474.741 1276.04C417.989 1284.61 354.699 1305.8 299.751 1278.11C276.802 1266.54 259.517 1245.59 254.359 1220.15C249.557 1196.47 257.914 1173.67 278.172 1160.12C310.738 1138.35 359.665 1143.62 386.045 1111.99C401.127 1093.91 400.919 1069.82 391.417 1049.19C380.984 1026.55 362.424 1009.16 341.783 995.818C320.045 981.766 296.274 970.213 277.237 952.372C254.383 930.955 246.192 902.456 241.727 872.318C238.031 847.37 234.591 819.339 245.251 795.551C256.958 769.423 283.327 764.358 307.043 753.861C316.254 749.784 325.057 744.396 331.16 736.201C337.826 727.245 340.34 716.117 340.416 705.11C340.601 678.103 329.199 650.428 318.684 626.065C293.818 568.452 257.267 517.029 225.635 463.117C209.664 435.894 194.83 407.896 183.504 378.389C174.105 353.906 167.018 328.261 167.359 301.83C167.66 278.491 174.221 254.41 191.802 238.086C214.259 217.235 245.78 215.57 274.507 220.831C304.286 226.284 331.628 239.262 360.366 248.203C387.635 256.688 418.136 262.815 445.91 253.045C471.214 244.144 488.296 222.672 496.8 197.853C506.343 170.005 504.911 140.192 507.808 111.276C508.64 102.966 508.811 91.9485 513.563 84.8186C517.964 78.2169 525.506 76.8475 532.823 78.3326C545.789 80.9644 556.797 89.2433 568.561 94.81C592.155 105.975 619.681 102.14 643.048 92.388C669.814 81.2175 691.642 61.4729 713.369 42.7954C733.754 25.271 754.735 9.03029 779.391 -2.05724C823.218 -21.7636 872.96 -26.5235 920.127 -18.383C967.836 -10.1485 1013.36 11.4178 1048.6 44.8145C1091.91 85.8619 1120.24 140.46 1166.12 179.006C1185.72 195.477 1208.39 209.373 1233.3 216.025C1244.25 218.951 1255.6 220.41 1266.95 219.884C1282.2 219.174 1297.07 212.323 1312.38 213.551C1336.76 215.504 1350.12 238.833 1357.77 259.428C1365.7 280.802 1368.69 303.473 1380.04 323.576C1388.74 338.969 1402.04 352.76 1420.81 352.98C1421.66 352.99 1421.8 351.667 1420.94 351.656C1396.33 351.368 1382.04 327.927 1373.94 307.539C1365.55 286.41 1362.81 263.621 1352.13 243.303C1343.07 226.077 1328.43 211.596 1307.76 212.13C1292.63 212.52 1278.33 218.553 1263.07 218.667C1249.92 218.765 1236.85 216.226 1224.45 211.916C1167.7 192.19 1131.37 142.552 1095.98 97.0551C1078.13 74.0999 1059.54 51.3187 1036.98 32.7874C1018.94 17.9761 998.631 5.9463 977.13 -3.10364C934.452 -21.0646 886.822 -27.5536 840.94 -21.0554C818.385 -17.8607 796.243 -11.4811 775.614 -1.78367C751.814 9.40522 731.504 25.4384 711.67 42.5017C688.583 62.362 665.286 83.1277 636.191 93.6333C621.752 98.8458 606.029 101.612 590.693 99.7445C576.236 97.9843 564.732 91.0902 552.07 84.5573C543.363 80.0634 532.08 74.2006 521.951 77.0644C511.008 80.1595 508.986 91.7017 507.629 101.449C503.322 132.359 506.018 164.439 496.495 194.514C486.952 224.655 465.272 249.067 433.229 255.059C400.365 261.203 366.493 249.666 336.014 238.412C290.441 221.587 226.538 198.372 187.243 240.775C155.926 274.569 164.418 328.177 178.161 367.656C199.141 427.921 235.172 481.168 268.243 535.218C284.817 562.306 300.858 589.831 313.999 618.776C321.079 634.369 327.323 650.362 332.291 666.757C336.219 679.717 339.474 693.193 339.058 706.832C338.634 720.723 333.785 733.882 322.901 742.941C313.523 750.747 301.667 754.752 290.387 758.92C268.877 766.871 250.161 777.197 242.054 799.954C233.833 823.031 236.901 848.866 240.412 872.532C244.495 900.037 251.383 927.07 270.866 947.899C288.26 966.497 311.233 978.481 332.674 991.66C356.333 1006.2 378.306 1023.92 390.205 1049.75C401.466 1074.19 398.26 1102.55 376.143 1119.62C359.219 1132.67 337.1 1136.96 317.001 1142.71C298.829 1147.9 279.656 1154.18 266.33 1168.31C251.798 1183.71 248.784 1205.4 254.228 1225.35C267.991 1275.8 320.369 1293.6 367.831 1292.95C427.81 1292.12 486.452 1265.35 546.714 1276.5C572.389 1281.25 597.239 1292.79 613.37 1313.92C613.889 1314.61 614.913 1313.75 614.392 1313.07L614.401 1313.08Z" fill="#2A2E30"/>
</g>
<g opacity="0.337">
<path d="M658.053 1302.96C625.543 1265.29 569.998 1264.34 524.673 1271.19C470.852 1279.31 412.58 1298.49 359.533 1276.21C337.197 1266.83 319.384 1249.58 311.525 1226.39C304.344 1205.21 307.62 1181.97 325.062 1166.86C352.82 1142.81 397.811 1146.8 421.055 1116.39C451.411 1076.68 413.147 1027.69 380.627 1004.32C360.818 990.085 338.943 978.068 322.014 960.219C301.658 938.756 295.42 911.163 292.277 882.591C289.669 858.878 287.801 832.433 298.727 810.372C310.475 786.654 334.775 781.515 356.269 770.139C375.553 759.934 384.871 742.754 383.864 721.019C382.668 695.195 371.666 669.196 361.142 645.975C336.914 592.513 302.219 544.788 272.385 494.472C257.499 469.366 243.739 443.504 233.229 416.231C224.29 393.033 217.528 368.693 217.749 343.64C217.944 321.512 223.871 298.674 240.036 282.734C259.673 263.366 287.733 259.689 314.033 262.905C368.542 269.571 420.559 306.954 476.949 295.56C501.008 290.698 520.539 275.281 531.4 253.376C543.377 229.221 542.91 201.931 546.935 175.858C547.977 169.106 548.748 161.458 551.788 155.264C555.452 147.798 562.929 145.394 570.695 146.655C582.356 148.548 592.85 155.296 603.337 160.325C625.943 171.166 651.583 168.785 674.481 160.003C699.89 150.259 721.069 132.815 741.939 115.826C761.843 99.6232 782.03 84.1016 805.675 73.7216C847.751 55.2482 895.389 51.8495 940.303 60.2286C986.017 68.7581 1029.58 89.4827 1064.4 120.394C1106.8 158.042 1137.29 207.43 1181.88 242.808C1200.97 257.959 1222.51 270.977 1246.08 277.731C1257.19 280.913 1268.73 282.638 1280.29 282.228C1293.3 281.767 1306.29 276.887 1319.34 278.549C1342.49 281.498 1354.74 304.521 1361.83 324.294C1368.99 344.265 1371.98 365.277 1382.18 384.157C1390.05 398.732 1402.03 412.519 1419.58 413.793C1420.66 413.872 1420.83 412.196 1419.75 412.117C1397.21 410.481 1384.51 388.033 1377.18 369.169C1369.31 348.921 1366.58 327.176 1356.56 307.679C1347.99 290.985 1334.16 276.621 1314.22 276.569C1300.99 276.533 1288.25 280.871 1274.93 280.593C1262.18 280.326 1249.59 277.554 1237.63 273.213C1183.75 253.666 1146.79 207.943 1110.46 166.065C1092.8 145.713 1074.56 125.518 1053.23 108.909C1035.57 95.1497 1016.03 83.8186 995.415 75.0935C954.506 57.7737 908.975 50.5176 864.79 55.9699C843.081 58.6492 821.718 64.4655 801.826 73.6017C778.991 84.0907 759.413 99.4316 740.034 115.206C717.913 133.212 695.316 151.572 667.819 160.59C653.876 165.162 638.823 167.344 624.228 165.14C611.404 163.203 600.745 156.885 589.23 151.427C580.764 147.415 569.933 142.399 560.384 145.482C551.018 148.506 548.625 157.979 546.867 166.625C541.276 194.138 543.082 223.361 531.403 249.439C518.653 277.91 492.28 294.434 461.322 295.671C430.363 296.907 400.14 286.089 371.379 275.986C328.629 260.968 269.305 245.617 234.944 285.737C206.713 318.698 214.692 368.72 227.774 406.225C247.334 462.31 281.017 511.753 312.301 561.74C327.871 586.618 343.033 611.835 355.724 638.327C367.703 663.331 380.255 691.434 382.1 719.459C382.959 732.489 380.662 745.923 371.962 756.113C363.967 765.475 352.393 770.447 341.319 775.15C321.032 783.766 303.123 793.602 294.762 815.219C286.509 836.559 288.168 860.589 290.618 882.861C293.49 908.969 298.678 935.067 315.855 955.813C331.01 974.116 351.743 986.497 371.132 999.736C392.888 1014.59 412.889 1032.12 423.778 1056.72C434.045 1079.92 431.811 1106.85 411.568 1123.84C396.697 1136.32 376.99 1141.12 359.056 1147.42C342.205 1153.33 324.754 1160.93 314.427 1176.28C303.84 1192.01 304.353 1212.19 310.82 1229.41C328.131 1275.53 378.918 1289.43 423.802 1287.99C480.345 1286.17 535.611 1262.23 592.546 1271.47C616.693 1275.39 640.49 1285.18 656.756 1304.03C657.463 1304.85 658.763 1303.78 658.052 1302.95L658.053 1302.96Z" fill="#2A2E30"/>
</g>
<g opacity="0.411">
<path d="M701.704 1292.85C669.404 1260.24 618.282 1259.87 575.964 1266.13C525.287 1273.62 472.045 1290.97 421.271 1274.44C399.559 1267.37 380.883 1253.87 370.318 1233.28C361.191 1215.49 358.631 1193.18 371.052 1176.29C391.778 1148.1 434.548 1150.47 455.322 1121.93C482.929 1084.02 449.333 1037.08 419.387 1012.84C401.531 998.39 381.658 985.844 366.88 967.981C349.152 946.551 344.791 919.936 342.995 892.971C341.473 870.106 341.155 844.656 352.891 824.121C364.448 803.902 385.841 798.366 404.349 786.772C421.588 775.973 428.782 759.088 427.287 739.037C425.438 714.23 414.647 689.482 404.137 667.274C380.873 618.111 348.297 574.211 320.293 527.784C306.403 504.757 293.574 481.024 283.701 455.97C275.211 434.43 268.659 411.893 268.155 388.591C267.712 368.13 272.044 346.711 285.417 330.63C301.872 310.845 327.449 304.28 352.276 305.415C404.198 307.784 450.744 338.668 503.236 336.886C525.892 336.118 548.251 327.852 562.918 309.973C577.745 291.895 580.154 269.14 584.491 247.009C586.956 234.422 589.518 214.402 606.179 214.853C617.484 215.159 628.352 221.589 638.387 226.165C659.746 235.908 682.313 235.367 704.393 228.003C752.214 212.054 784.779 169.693 830.589 149.753C870.827 132.239 916.244 129.893 958.973 138.35C1002.55 146.973 1044.11 166.641 1078.5 194.741C1119.77 228.464 1152.21 271.732 1194.58 304.237C1213.22 318.536 1233.76 331.158 1256.16 338.588C1266.51 342.02 1277.31 344.316 1288.22 344.74C1300.51 345.217 1312.93 341.525 1325.13 343.376C1346.78 346.66 1358.28 368.175 1365.04 386.823C1371.9 405.76 1374.77 425.76 1383.89 443.915C1390.97 458.027 1401.75 472.163 1418.35 474.612C1419.65 474.804 1419.85 472.774 1418.56 472.583C1397.44 469.467 1386.23 446.839 1379.68 428.857C1372.65 409.553 1369.86 389.089 1360.29 370.677C1352.04 354.82 1339.01 341.461 1320.15 340.895C1307.73 340.522 1295.62 343.512 1283.13 342.36C1271.1 341.25 1259.34 337.965 1248.15 333.476C1198.34 313.493 1161.23 272.685 1124.48 235.224C1106.74 217.136 1088.63 199.112 1068.11 184.148C1050.79 171.516 1031.95 160.932 1012.19 152.606C972.753 135.985 929.034 128.117 886.339 132.958C865.776 135.29 845.504 140.652 826.67 149.272C804.827 159.271 785.939 174.024 766.957 188.521C745.357 205.016 722.881 221.36 696.183 228.344C683.507 231.66 670.101 232.893 657.16 230.408C645.141 228.102 634.677 221.741 623.45 217.211C615.606 214.047 605.788 210.691 597.524 214.373C588.479 218.402 586.362 229.72 584.292 238.344C578.46 262.647 577.852 288.613 561.263 308.79C522.194 356.301 452.732 327.91 404.963 313.459C364.684 301.273 310.902 293.317 281.856 331.862C257.201 364.58 265.325 411.05 278.062 446.727C296.37 498.013 327.398 543.219 356.591 588.732C371.528 612.021 386.148 635.589 398.517 660.366C410.297 683.966 422.228 710.2 425.036 736.703C426.329 748.899 425.044 761.751 417.758 771.996C411.026 781.462 400.638 786.936 390.472 791.96C372.033 801.073 355.751 810.75 347.481 830.576C339.284 850.232 339.6 872.435 340.989 893.307C342.658 918.373 346.353 943.655 361.539 964.431C374.773 982.535 393.585 995.343 411.105 1008.9C430.6 1023.99 448.348 1041.56 457.804 1064.8C466.935 1087.25 464.648 1112.9 445.657 1129.43C432.369 1141 414.977 1146.13 399.226 1153.33C384.728 1159.95 370.681 1169.04 364.139 1184.23C357.015 1200.76 360.943 1220.2 369.208 1235.54C390.304 1274.72 437.111 1284.8 478.24 1283.03C532.293 1280.71 585.082 1258.69 639.581 1266.6C661.831 1269.83 684.059 1277.92 700.142 1294.16C701.057 1295.08 702.636 1293.79 701.709 1292.85L701.704 1292.85Z" fill="#2A2E30"/>
</g>
<g opacity="0.485">
<path d="M745.132 1282.52C712.476 1254.4 664.401 1255.38 624.344 1261.49C576.833 1268.75 527.527 1284.04 479.582 1271C459.124 1265.44 440.636 1254.55 428.686 1236.71C418.689 1221.78 412.613 1201.24 420.538 1184.09C434.247 1154.43 474.622 1153.01 491.226 1125.36C513.748 1087.86 483.475 1044.54 456.017 1019.52C439.984 1004.91 422.22 991.517 410.174 973.174C396.098 951.74 394.089 925.958 393.875 900.982C393.693 879.691 395.293 856.588 407.11 838.179C418.748 820.049 439.124 814.432 454.907 801.229C470.116 788.509 473.049 769.816 469.82 751.07C465.87 728.138 455.845 705.791 445.361 685.191C422.743 640.747 392.459 600.875 366.57 558.389C342.973 519.666 319.13 474.998 318.514 428.511C318.261 409.445 322.378 389.697 334.533 374.531C349.194 356.237 372.141 348.851 394.918 348.627C443.351 348.152 487.249 374.08 535.38 376.363C556.786 377.379 579.499 373.48 596.591 359.701C612.566 346.824 617.129 328.637 622.921 309.898C626.34 298.836 630.372 283.395 644.398 283.358C655.083 283.329 665.573 288.96 675.196 292.983C695.284 301.382 715.886 301.435 736.639 295.053C782.249 281.024 814.359 242.366 857.994 224.322C896.409 208.437 939.365 207.693 979.573 216.596C1020.96 225.76 1060.22 244.835 1093.91 270.449C1132.79 300.018 1166.46 335.87 1205.88 364.84C1223.85 378.053 1243.05 390.11 1263.85 398.352C1273.75 402.275 1284.08 405.311 1294.64 406.761C1305.6 408.263 1316.51 406.465 1327.44 407.579C1348.88 409.765 1360.58 429.184 1367.57 447.53C1374.51 465.727 1377.22 485.157 1385.34 502.96C1391.6 516.706 1401.18 531.577 1416.81 535.353C1418.29 535.711 1419.16 533.477 1417.66 533.114C1398.45 528.473 1388.73 507.049 1382.77 490.103C1376.36 471.835 1373.58 452.598 1364.77 435.149C1356.8 419.342 1344.35 406.24 1325.79 405.051C1314.57 404.332 1303.56 405.813 1292.35 403.997C1281.07 402.168 1270.13 398.552 1259.66 394.023C1215.11 374.759 1178.35 340.554 1142.54 308.679C1124.4 292.532 1106.35 276.059 1086.47 262.041C1069.49 250.067 1051.3 239.783 1032.27 231.445C995.022 215.12 953.88 205.975 913.108 209.042C893.329 210.529 873.756 215.02 855.483 222.784C834.361 231.757 815.895 245.439 797.336 258.707C776.468 273.626 754.803 288.366 729.536 294.549C717.977 297.378 705.853 298.44 694.067 296.422C682.646 294.467 672.496 288.839 661.732 284.864C654.238 282.097 645.252 279.262 637.361 282.12C628.249 285.421 624.935 296.339 622.111 304.641C618.6 314.963 616.476 325.769 611.983 335.745C607.638 345.392 600.925 353.783 592.312 359.961C571.034 375.223 543.158 376.005 518.207 372.198C492.846 368.328 468.75 359.484 443.986 353.158C405.857 343.413 356.966 339.572 330.798 375.481C308.279 406.381 315.101 449.415 326.856 483.033C343.481 530.571 372.221 572.348 399.733 614.075C413.718 635.285 427.532 656.66 439.486 679.099C451.344 701.354 462.797 725.624 467.31 750.607C469.288 761.557 469.724 773.373 465.293 783.814C460.91 794.139 452.188 801.053 442.855 806.724C434.506 811.797 425.709 816.196 418.092 822.384C410.589 828.479 404.762 836.205 400.683 844.954C391.943 863.701 391.122 885.207 391.57 905.536C392.087 928.977 394.456 952.726 407.234 973.001C418.151 990.322 434.224 1003.35 449.377 1016.77C467.085 1032.45 483.139 1050.08 491.634 1072.57C499.596 1093.64 497.97 1117.49 481.432 1133.97C469.839 1145.52 454.166 1151.25 440.517 1159.81C428.547 1167.31 418.352 1177.77 415.441 1192.05C412.127 1208.33 418.15 1225.51 427.278 1238.87C451.119 1273.77 497.115 1280.5 536.297 1277.8C586.436 1274.36 635.485 1255.4 686.178 1261.57C706.921 1264.09 727.694 1270.65 743.745 1284.47C744.913 1285.48 746.296 1283.52 745.136 1282.52L745.132 1282.52Z" fill="#2A2E30"/>
</g>
<g opacity="0.558">
<path d="M788.75 1272.37C755.949 1248.96 711.529 1250.8 673.639 1256.71C629.519 1263.59 584.551 1276.82 539.727 1267.67C519.839 1263.61 500.65 1254.83 487.371 1239.08C476.733 1226.47 468.482 1208.72 471.714 1191.88C474.646 1176.61 486.53 1167.06 498.467 1158.49C509.784 1150.37 520.704 1141.89 526.919 1129.05C544.96 1091.79 517.131 1051.36 492.173 1025.21C478.284 1010.66 463.299 996.494 454.333 978.178C443.955 956.977 443.938 932.515 445.276 909.442C446.423 889.646 449.783 868.767 461.489 852.224C472.485 836.684 490.763 830.1 503.343 816.362C516.31 802.201 516.359 783.021 512.084 765.288C506.919 743.862 497.257 723.272 486.746 704.003C464.931 664.004 436.81 627.954 412.951 589.222C390.933 553.482 369.396 512.22 368.883 469.227C368.67 451.327 372.53 432.844 383.654 418.425C396.236 402.116 415.768 394.056 435.856 392.257C480.268 388.279 522.003 409.506 565.387 414.87C585.99 417.417 607.71 416.914 627.072 408.656C634.753 405.379 641.866 400.727 647.513 394.538C652.883 388.651 656.337 381.618 659.872 374.557C664.499 365.318 670.135 352.575 681.881 351.926C692.166 351.359 702.451 356.361 711.859 359.899C731.319 367.215 750.635 367.47 770.587 361.55C813.247 348.89 844.521 314.323 885.636 298.39C923.454 283.735 965.374 285.188 1004.07 295.57C1043.7 306.202 1080.88 325.56 1113.93 349.69C1150.36 376.286 1185.33 404.665 1222.89 429.729C1240.17 441.264 1258.11 452.156 1277.31 460.216C1286.43 464.044 1295.87 467.199 1305.58 469.137C1315.79 471.177 1326.37 470.294 1336.49 472.584C1355.21 476.82 1365.22 495.076 1371.4 511.708C1377.82 528.99 1380.52 547.348 1387.89 564.324C1393.47 577.162 1401.68 591.138 1415.53 596.156C1417.2 596.759 1418.18 594.189 1416.51 593.587C1399.6 587.464 1391.34 567.467 1386.01 551.754C1380.03 534.152 1377.26 515.709 1368.91 498.915C1361.94 484.882 1351.31 472.474 1335.23 469.506C1324.71 467.567 1314 468.243 1303.48 465.906C1293.15 463.608 1283.14 459.901 1273.49 455.56C1253.16 446.406 1234.26 434.3 1215.93 421.684C1197.1 408.726 1178.58 395.317 1160.33 381.555C1142.26 367.931 1124.72 353.523 1106.03 340.743C1089.24 329.256 1071.53 319.086 1053.05 310.555C1017.6 294.18 978.523 283.505 939.224 284.914C919.988 285.604 900.874 289.331 882.979 296.487C862.556 304.657 844.486 317.419 826.28 329.535C806.688 342.574 786.34 355.324 763.131 360.696C751.814 363.316 739.957 364.215 728.479 362.086C718.124 360.165 708.604 355.343 698.633 352.135C691.415 349.812 682.872 347.538 675.482 350.43C667.387 353.597 662.858 362.902 659.051 370.144C654.996 377.862 651.594 385.936 645.69 392.488C638.815 400.115 629.642 405.178 619.982 408.394C574.199 423.632 527.08 402.142 482.436 393.098C446.733 385.865 402.966 386.047 379.752 419.087C359.107 448.471 365.018 488.547 376.017 520.354C391.073 563.891 417.406 602.063 443.067 639.883C469.183 678.372 497.77 719.107 509.166 764.915C511.69 775.064 513.169 785.945 510.918 796.286C508.707 806.437 502.444 814.452 494.472 820.834C487.26 826.607 479.219 831.246 472.065 837.099C465.04 842.844 459.237 849.684 454.895 857.667C445.639 874.681 443.138 894.482 442.322 913.554C441.396 935.207 441.789 957.827 451.118 977.825C459.608 996.025 473.99 1010.27 487.73 1024.54C502.675 1040.06 516.311 1056.71 524.194 1077.03C531.755 1096.52 532.359 1118.53 519.561 1136C510.796 1147.97 497.546 1154.84 486.391 1164.18C475.914 1172.96 468.397 1184.76 468.314 1198.79C468.22 1214.45 475.699 1229.72 485.74 1241.4C511.504 1271.38 555.133 1275.73 592.106 1272.63C638.564 1268.72 683.974 1252.34 731.008 1256.29C750.776 1257.95 770.813 1262.94 787.153 1274.61C788.595 1275.64 790.194 1273.4 788.751 1272.37L788.75 1272.37Z" fill="#2A2E30"/>
</g>
<g opacity="0.632">
<path d="M832.368 1262.23C799.372 1243.48 758.365 1246.16 722.29 1252.01C680.86 1258.71 638.768 1270.48 596.56 1263.33C578.015 1260.18 559.406 1253.21 545.698 1239.95C534.552 1229.16 525.273 1214.09 524.684 1198.21C524.157 1184 532.036 1173.01 541.378 1163.2C550.336 1153.8 558.771 1144.33 562.951 1131.76C575.091 1095.28 551.381 1058.96 529.639 1031.56C517.405 1016.15 504.827 1000.55 498.944 981.442C492.703 961.178 494.437 938.81 497.247 918.084C499.738 899.71 504.74 880.829 516.239 865.91C526.742 852.283 543.455 844.303 552.344 829.369C561.485 814.011 558.814 795.49 553.77 779.211C547.726 759.706 538.541 741.159 528.257 723.573C507.05 687.302 480.596 654.473 458.499 618.772C437.914 585.513 418.442 546.673 419.261 506.555C419.598 490.037 423.837 473.291 434.375 460.248C446.415 445.345 464.522 437.689 483.206 435.549C524.402 430.829 564.098 448.282 604.275 454.014C623.717 456.787 643.537 457.222 662.821 453.064C676.777 450.055 688.094 444.163 698.359 434.342C704.923 428.063 711.7 420.315 721.462 420.313C730.58 420.311 739.557 423.998 748.08 426.835C756.699 429.703 765.23 431.972 774.371 432.22C784.154 432.486 793.928 430.998 803.339 428.386C843.898 417.127 874.646 385.705 914.009 371.754C950.709 358.748 990.74 362.572 1027.27 374.116C1065.02 386.045 1100.03 405.612 1132.64 427.815C1150.11 439.711 1167.55 451.515 1185.71 462.334C1203.25 472.779 1220.93 482.958 1238.41 493.501C1255.17 503.606 1272.06 513.631 1289.89 521.742C1298.36 525.592 1307.05 529.02 1316.02 531.498C1325.08 533.998 1334.7 534.347 1343.6 537.281C1360.11 542.724 1369.02 559.195 1374.72 574.512C1380.76 590.756 1383.42 607.989 1389.79 624.137C1394.76 636.74 1401.76 650.415 1414.25 656.962C1416.02 657.89 1417.11 654.978 1415.36 654.061C1400.55 646.298 1393.63 627.233 1388.87 612.287C1383.59 595.704 1380.77 578.508 1373.08 562.73C1366.44 549.09 1356.49 537.164 1341.22 533.401C1331.74 531.063 1322.09 530.23 1312.71 527.291C1303.44 524.386 1294.46 520.576 1285.71 516.369C1267.1 507.418 1249.48 496.567 1231.82 485.904C1213.91 475.086 1195.63 464.877 1177.79 453.938C1143.18 432.723 1111.16 407.995 1074.59 390.008C1040.16 373.072 1002.23 360.328 963.481 360.424C945.676 360.469 927.941 363.334 911.204 369.481C891.372 376.762 873.64 388.532 855.774 399.579C837.129 411.108 817.807 422.348 796.132 426.978C785.871 429.17 775.21 429.934 764.818 428.208C755.032 426.582 745.851 422.504 736.348 419.801C729.494 417.851 721.802 416.005 714.77 418.127C707.1 420.44 701.125 427.43 695.503 432.791C683.46 444.278 669.23 449.322 652.863 451.668C609.419 457.895 568.446 441.323 526.273 434.353C492.714 428.806 452.923 430.445 430.598 460.055C410.564 486.623 414.249 523.743 423.816 553.56C436.905 594.353 461.253 629.911 485.577 664.705C510.248 699.998 536.02 735.787 549.827 777.024C556.162 795.942 559.202 817.438 545.344 833.808C539.618 840.573 532.317 845.782 525.702 851.611C519.026 857.494 513.117 864.04 508.582 871.731C499.545 887.058 495.636 904.793 493.594 922.296C491.278 942.157 490.036 963.213 496.055 982.56C501.762 1000.9 513.426 1016.14 525.213 1030.98C537.703 1046.7 549.54 1062.76 556.87 1081.64C564.027 1100.07 565.928 1120.25 556.854 1138.4C550.818 1150.47 540.259 1158.73 531.987 1169.09C524.142 1178.92 520.139 1191.03 522.104 1203.6C524.387 1218.21 532.818 1231.77 543.314 1241.94C569.742 1267.53 610.302 1270.74 645.106 1267.65C689.151 1263.75 732.115 1248.95 776.678 1251.07C795.254 1251.96 814.239 1255.48 830.566 1264.75C832.288 1265.73 834.109 1263.22 832.37 1262.23L832.368 1262.23Z" fill="#2A2E30"/>
</g>
<g opacity="0.705">
<path d="M875.599 1251.87C842.094 1237.67 803.479 1241.67 768.621 1247.69C730.099 1254.34 690.939 1264.37 651.624 1258.58C620.138 1253.94 585.335 1235.48 578.278 1201.56C575.614 1188.75 579.772 1177.11 585.895 1166.04C592.318 1154.42 597.736 1142.94 599.467 1129.61C604.251 1092.74 580.98 1060.22 563.066 1030.32C553.391 1014.16 545.695 997.046 544.515 978.004C543.327 958.824 546.57 938.619 551.616 920.141C556.395 902.636 564.186 886.555 576.511 873.12C586.801 861.903 598.411 851.655 601.414 835.976C604.644 819.121 598.522 801.45 592.138 786.076C584.812 768.431 575.253 751.865 564.801 735.906C543.614 703.554 518.745 673.681 499.152 640.274C481.383 609.978 465.798 573.507 470.352 537.586C472.4 521.444 479.213 506.338 491.581 495.506C504.51 484.183 521.267 479.162 538.148 477.889C576.242 475.017 613.268 489.117 650.587 494.216C668.811 496.707 687.03 497.165 705.394 496.613C717.22 496.257 730.214 496.8 741.608 493.314C745.522 492.116 749.277 490.336 753.251 489.347C757.307 488.338 761.464 488.589 765.557 489.236C774.649 490.67 783.35 493.95 792.263 496.158C809.284 500.374 826.621 498.458 843.184 493.13C881.024 480.958 911.313 452.019 950.201 442.471C983.745 434.235 1018.53 440.617 1050.37 452.501C1083.6 464.902 1114.4 482.966 1144.49 501.542C1160.63 511.514 1176.75 521.259 1193.98 529.282C1211.5 537.441 1229.48 544.547 1246.67 553.418C1262.78 561.73 1278.45 570.864 1294.53 579.231C1310.33 587.451 1326.2 593.998 1343.2 599.236C1378.51 610.117 1380.9 651.979 1390.98 681.682C1395.39 694.668 1401.28 709.038 1412.59 717.553C1414.37 718.894 1416.37 716.077 1414.59 714.739C1401.33 704.749 1395.54 686.013 1391.17 670.732C1386.73 655.202 1383.7 639.345 1376.42 624.774C1373.1 618.136 1368.99 611.764 1363.59 606.621C1357.7 601.007 1350.66 597.845 1342.93 595.555C1325.92 590.514 1310.06 583.488 1294.35 575.264C1277.66 566.523 1261.39 556.985 1244.57 548.482C1226.93 539.561 1208.45 532.456 1190.63 523.886C1172.82 515.315 1156.32 504.706 1139.51 494.438C1124.47 485.257 1109.25 476.356 1093.62 468.233C1063.1 452.379 1030.18 438.855 995.613 435.837C979.288 434.411 962.702 435.496 946.855 439.775C928.309 444.782 911.451 454.118 894.914 463.656C876.988 473.994 859.022 484.962 839.016 490.824C829.348 493.657 819.231 495.389 809.134 495.105C799.628 494.837 790.667 492.231 781.593 489.621C773.934 487.417 765.852 484.887 757.792 485.231C750.179 485.555 743.43 489.672 736.061 491.217C730.43 492.398 724.606 492.276 718.883 492.582C710.648 493.022 702.417 493.31 694.171 493.384C674.981 493.558 656.003 491.981 637.104 488.588C617.205 485.016 597.611 479.813 577.635 476.657C546.012 471.66 508.994 472.113 485.21 496.819C463.707 519.153 463.122 553.019 470.294 581.434C479.806 619.122 501.26 652.209 523.557 683.494C546.498 715.683 571.405 747.147 587.327 783.619C594.708 800.522 602.825 821.457 596.834 839.975C591.636 856.048 576.943 865.99 567.053 878.961C556.585 892.688 550.49 909.256 546.613 925.93C542.412 943.99 539.557 963.273 541.352 981.822C545.001 1019.51 573.521 1047.46 587.59 1081.22C595.279 1099.68 599.337 1119.31 594.144 1139C590.936 1151.17 583.858 1161.21 578.682 1172.5C566.952 1198.07 580.134 1224.84 600.544 1241.59C627.553 1263.76 666.212 1265.79 699.489 1262.55C740.898 1258.51 781.248 1245.38 823.107 1245.82C840.537 1246 858.213 1248.26 874.363 1255.11C876.419 1255.98 877.64 1252.74 875.594 1251.87L875.599 1251.87Z" fill="#2A2E30"/>
</g>
<g opacity="0.779">
<path d="M919.177 1241.7C848.571 1221.89 778.313 1262.5 707.277 1253.84C676.349 1250.06 644.482 1234.91 631.982 1204.51C627.347 1193.24 627.381 1181.2 629.515 1169.39C632.001 1155.63 634.656 1142.2 634.233 1128.12C633.169 1092.65 612.576 1062.22 600.589 1029.94C594.005 1012.21 591.657 994.042 594.118 975.264C596.399 957.867 601.089 940.5 607.832 924.302C611.299 915.971 615.394 907.89 620.308 900.315C624.717 893.515 629.886 887.265 634.534 880.636C643.081 868.441 647.464 855.277 645.653 840.303C643.563 823.019 635.892 806.333 627.741 791.146C619.505 775.8 609.608 761.384 599.354 747.332C578.166 718.296 554.57 690.453 538.374 658.148C524.172 629.819 513.122 594.339 524.483 563.118C529.788 548.538 540.534 536.628 554.277 529.482C568.627 522.022 585.129 519.798 601.132 519.992C618.484 520.203 635.627 523.281 652.619 526.55C671.082 530.102 689.491 533.636 708.122 536.21C723.959 538.398 740.498 539.384 755.461 545.474C760.895 547.687 765.662 551.067 770.922 553.612C776.765 556.437 782.918 557.205 789.355 556.92C806.505 556.159 822.099 563.408 839.002 564.802C856.079 566.211 873.254 561.836 888.936 555.36C922.024 541.696 951.337 518.082 987.799 513.729C1017.93 510.133 1047.82 519.039 1075.05 531.272C1103.65 544.118 1130.25 560.848 1157.38 576.449C1172.08 584.905 1186.93 593.031 1202.97 598.71C1220.17 604.804 1238.12 608.523 1255.21 614.966C1286.61 626.802 1314.37 646.221 1344.77 660.167C1352.81 663.856 1360.6 667.401 1366.67 674.055C1371.96 679.858 1375.82 686.801 1378.93 693.973C1385.4 708.884 1388.15 724.9 1392.8 740.39C1396.75 753.543 1401.5 767.656 1410.91 778.003C1412.56 779.812 1415.5 777.384 1413.84 775.562C1403.19 763.855 1398.42 747.062 1394.39 732.128C1390.19 716.573 1386.98 700.733 1379.52 686.294C1376.25 679.961 1372.23 673.918 1367.03 669.001C1361.36 663.64 1354.51 660.408 1347.48 657.218C1331.92 650.153 1317.09 641.567 1302.09 633.397C1287.09 625.226 1271.86 617.08 1255.79 611.11C1238.17 604.57 1219.68 600.806 1202.05 594.327C1170.85 582.863 1142.94 563.131 1114.07 546.974C1087.42 532.061 1059.5 518.06 1029.34 511.983C1015.29 509.15 1000.8 508.257 986.55 510.044C969.721 512.154 953.94 518.332 938.838 525.837C905.634 542.34 871.205 566.976 832.084 560.034C823.526 558.515 815.2 555.949 806.681 554.254C803.042 553.53 799.351 552.944 795.634 552.893C791.755 552.841 787.89 553.396 784.009 553.15C776.522 552.674 770.76 549.199 764.404 545.618C759.352 542.773 754.029 540.648 748.447 539.076C732.137 534.485 714.943 533.443 698.24 530.938C679.03 528.055 660.072 523.897 640.95 520.517C610.465 515.131 575.167 511.584 547.627 528.928C521.764 545.216 513.531 575.01 516.967 604.056C521.079 638.815 539.004 670.483 558.698 698.714C579.656 728.756 604.025 756.602 622.026 788.637C630.819 804.288 639.166 821.552 641.705 839.49C642.966 848.399 642.269 857.201 638.805 865.557C635.799 872.803 631.032 879.108 626.351 885.336C605.668 912.856 592.891 945.892 589.719 980.28C588.095 997.884 591 1015.03 597.133 1031.54C603.431 1048.51 612.145 1064.46 618.844 1081.26C625.803 1098.73 631.052 1116.83 630.41 1135.78C629.962 1149.03 626.528 1161.62 624.82 1174.68C621.328 1201.37 635.486 1225.25 657.036 1240.27C684.209 1259.19 720.273 1260.77 752.119 1257.6C790.651 1253.77 828.111 1242.32 866.889 1240.55C883.93 1239.77 901.333 1240.64 917.824 1245.27C920.174 1245.93 921.546 1242.37 919.182 1241.7L919.177 1241.7Z" fill="#2A2E30"/>
</g>
<g opacity="0.853">
<path d="M962.229 1231.41C893.852 1221.93 828.204 1256.6 759.973 1248.69C729.84 1245.2 700.253 1231.63 684.191 1204.76C669.698 1180.53 672.182 1152.46 667.443 1125.65C661.545 1092.29 645.516 1061.38 641.457 1027.65C637.165 991.996 650.724 957.264 667.348 926.397C674.339 913.417 683.466 900.942 687.75 886.695C692.236 871.78 689.952 856.696 684.81 842.256C673.564 810.665 652.187 783.926 631.653 757.925C610.647 731.328 589.212 704.257 577.809 671.915C568.372 645.145 565.247 611.962 584.14 588.39C603.477 564.264 636.472 560.389 665.349 562.588C683.074 563.939 700.562 567.374 718.006 570.656C734.549 573.767 751.59 576.135 767.64 581.353C781.998 586.021 792.552 594.364 802.421 605.492C806.789 610.416 811.331 615.347 817.035 618.752C823.09 622.368 829.542 623.496 836.37 624.707C851.806 627.444 866.767 632.297 882.627 631.623C899.492 630.906 915.726 625.391 930.987 618.495C961.275 604.812 990.257 585.463 1024.77 586.186C1051.45 586.744 1076.69 597.44 1099.81 609.977C1123.99 623.096 1146.74 638.677 1170.81 651.982C1183.76 659.138 1197.12 665.83 1211.43 669.805C1227.88 674.374 1244.95 675.074 1261.68 678.154C1293.68 684.052 1321.85 702.193 1348.59 719.839C1355.43 724.354 1362.64 728.639 1368.38 734.561C1373.45 739.793 1377.31 746.089 1380.45 752.636C1387.33 767.016 1390.46 782.581 1394.45 797.905C1398.03 811.694 1401.95 825.953 1409.27 838.294C1410.63 840.577 1414.43 838.853 1413.06 836.54C1396.82 809.165 1397.33 775.43 1382.5 747.435C1379.35 741.489 1375.54 735.798 1370.75 731.045C1365.06 725.4 1358.2 721.19 1351.55 716.797C1338.52 708.196 1325.37 699.755 1311.6 692.39C1297.37 684.774 1282.48 678.305 1266.65 674.908C1249.1 671.145 1230.97 670.821 1213.62 666.098C1184.95 658.295 1159.38 640.734 1134.3 625.381C1111.05 611.141 1087.26 596.678 1061.11 588.385C1048.79 584.478 1035.94 582.024 1022.98 582.013C1007.87 582 993.274 585.502 979.267 591.03C946.202 604.076 915.228 627.97 878.21 627.561C869.94 627.469 861.778 625.909 853.721 624.161C845.988 622.485 838.225 621.073 830.48 619.491C815.013 616.333 807.551 603.521 796.816 593.475C785.95 583.31 772.63 577.958 758.339 574.499C741.452 570.413 724.25 567.544 707.171 564.383C676.64 558.734 643.51 553.26 613.319 563.561C600.256 568.018 588.453 575.923 580.005 586.913C571.663 597.768 567.402 611.185 566.401 624.738C564.07 656.308 577.275 687.486 593.875 713.599C612.063 742.209 635.139 767.239 654.543 794.976C664.646 809.417 673.688 824.719 680.002 841.223C686.256 857.57 688.507 874.467 681.788 891.027C675.727 905.965 666.042 919.413 658.822 933.818C651.079 949.266 644.536 965.395 640.408 982.203C636.252 999.125 635.352 1016.3 638.073 1033.53C640.758 1050.54 646.402 1066.88 651.652 1083.23C656.901 1099.57 662.166 1116.1 664.378 1133.15C666.211 1147.27 666.597 1161.62 669.144 1175.65C673.976 1202.27 689.907 1224.97 713.342 1238.58C740.553 1254.38 774.032 1255.74 804.591 1252.67C840.915 1249.02 876.212 1238.78 912.555 1235.25C928.925 1233.66 945.476 1233.29 961.801 1235.55C964.463 1235.92 964.886 1231.77 962.234 1231.4L962.229 1231.41Z" fill="#2A2E30"/>
</g>
</g>
<defs>
<clipPath id="clip0_29_150">
<rect width="1362.42" height="1360.61" fill="white" transform="translate(224.873 1381.61) rotate(-99.4645)"/>
</clipPath>
</defs>
</svg>
