<svg width="696" height="543" viewBox="0 0 696 543" fill="none" xmlns="http://www.w3.org/2000/svg">
<g clip-path="url(#clip0_28_107)">
<g opacity="0.19">
<path d="M-446.075 285.506C-399.858 270.998 -383.292 219.761 -377.533 176.642C-370.967 127.481 -371.356 65.955 -327.779 32.5908C-310.628 19.4589 -286.422 14.7893 -265.79 21.5746C-245.157 28.3599 -234.139 46.5252 -231.73 67.2864C-229.469 86.7847 -232.927 106.379 -233.166 125.89C-233.367 142.219 -231.216 159.505 -219.704 172.018C-206.349 186.539 -186.13 188.625 -167.842 183.956C-146.576 178.527 -129.482 165.637 -113.924 150.687C-97.3463 134.76 -81.565 116.933 -60.8675 106.215C-36.5593 93.6281 -8.94727 96.1658 17.2407 99.9282C38.3738 102.964 63.2656 108.428 76.8259 126.537C91.0437 145.525 83.8786 169.886 88.4358 191.489C92.7344 211.871 109.331 222.288 128.876 225.609C152.212 229.576 177.259 227.109 200.543 223.964C251.245 217.114 300.143 201.43 349.884 190.014C374.973 184.255 400.372 179.54 426.073 177.662C448.918 175.993 472.168 176.519 494.142 183.657C513.982 190.101 532.581 202.463 540.749 222.382C551.234 247.952 541.232 275.422 527.737 297.755C514.332 319.943 496.079 338.585 482.01 360.314C469.51 379.621 459.18 402.381 462.637 425.923C470.209 477.487 528.781 492.687 570.07 507.02C576.171 509.138 582.237 511.37 588.182 513.899C595.283 516.919 603.297 521.447 602.738 530.385C602.001 542.163 588.848 551.694 581.027 559.056C565.657 573.525 559.311 593.072 559.561 613.924C559.854 638.37 569.337 661.007 579.545 682.801C589.867 704.837 600.473 726.577 605.296 750.606C613.66 792.275 607.555 836.281 590.216 874.918C572.884 913.54 543.972 947.246 506.736 967.822C462.147 992.461 409.852 998.757 365.719 1024.28C346.158 1035.59 327.973 1050.55 315.63 1069.68C310.171 1078.14 305.942 1087.4 303.5 1097.19C300.263 1110.16 302.345 1123.64 299.32 1136.55C293.955 1159.46 269.99 1165.98 249.357 1167.22C229.858 1168.4 210.552 1165.15 191.287 1169.83C176.261 1173.47 162.181 1181.67 158.04 1197.48C157.911 1197.97 158.703 1198.07 158.831 1197.58C164.503 1175.93 188.602 1169.52 208.294 1168.07C228.01 1166.62 247.632 1170.18 267.159 1165.58C285.389 1161.28 298.897 1150.04 301.092 1130.69C302.622 1117.21 301.699 1104.25 306.08 1091.17C309.777 1080.11 315.707 1069.93 322.987 1060.86C356.111 1019.6 408.403 1006.37 456.191 990.041C478.841 982.299 501.312 973.369 521.213 959.863C538.159 948.364 553.115 933.983 565.59 917.761C590.328 885.587 605.638 846.122 609.064 805.678C610.771 785.523 609.528 765.1 604.982 745.376C599.585 721.963 588.691 700.698 578.667 679.029C567.842 655.622 558.497 630.955 560.669 604.707C561.67 592.619 565.102 580.56 571.994 570.47C578.496 560.95 588.238 554.356 595.719 545.676C600.754 539.833 605.881 531.87 602.37 523.997C597.991 514.179 583.312 510.89 574.231 507.638C548.898 498.567 522.048 492.165 499.424 476.994C477.888 462.552 461.544 440.382 462.825 413.44C464.107 386.498 480.236 362.598 496.087 341.921C522.187 307.874 564.367 260.466 537.971 214.956C517.642 179.908 469.793 174.547 433.384 176.411C381.309 179.075 330.948 193.85 280.687 206.573C255.995 212.822 231.151 218.662 205.938 222.394C181.007 226.083 154.01 229.118 128.981 224.819C116.691 222.709 104.071 217.997 96.3151 207.712C89.4585 198.622 88.0217 187.123 87.6002 176.077C86.8298 155.92 88.0331 135.114 72.1251 120.098C57.4672 106.261 35.8906 101.746 16.5897 99.03C-7.77583 95.6003 -33.6771 92.9983 -56.7898 103.362C-77.5852 112.687 -93.5811 129.674 -109.587 145.368C-126.506 161.956 -144.449 177.151 -167.949 183.166C-190.358 188.901 -215.045 183.381 -226.107 161.328C-234.587 144.423 -232.622 124.144 -231.376 105.921C-230.155 88.0376 -228.339 69.0614 -234.308 51.7831C-240.13 34.948 -253.746 23.2142 -271.054 19.2913C-289.64 15.0788 -310.321 19.3382 -325.913 30.23C-344.352 43.1126 -356.075 63.6428 -363.16 84.562C-380.331 135.258 -370.686 192.749 -396.795 240.75C-407.672 260.746 -424.273 277.829 -446.385 284.771C-446.874 284.924 -446.563 285.66 -446.075 285.506Z" fill="#2A2E30"/>
</g>
<g opacity="0.264">
<path d="M-448.555 322.08C-407.72 306.873 -392.061 260.961 -386.294 221.6C-379.486 175.14 -380.994 120.558 -346.229 84.1509C-331.709 68.9453 -311.197 60.407 -290.059 62.4306C-270.377 64.3144 -254.526 76.2859 -248.75 95.3673C-239.467 126.041 -255.243 163.08 -236.774 191.26C-226.214 207.372 -207.311 212.948 -188.905 210.424C-168.697 207.653 -150.669 197.268 -135.31 184.292C-119.133 170.626 -104.429 154.774 -85.931 144.125C-63.7246 131.34 -39.469 131.718 -14.8176 135.402C5.58786 138.453 28.3459 142.438 44.4247 156.448C62.0844 171.834 59.7671 193.678 62.3334 214.741C63.3303 222.92 65.4494 231.094 70.4101 237.822C75.8312 245.173 83.9417 249.791 92.5382 252.473C113.631 259.051 138.007 256.719 159.579 254.294C210.594 248.556 259.547 232.2 309.276 220.286C334.387 214.271 359.833 209.33 385.625 207.495C407.025 205.971 428.784 206.534 449.389 213.097C467.584 218.892 484.868 229.763 493.455 247.411C504.425 269.954 498.219 295.021 487.259 316.251C475.897 338.259 459.227 356.566 445.383 376.928C432.247 396.248 420.186 418.661 421.216 442.725C422.155 464.65 434.891 483.134 452.289 495.701C471.811 509.804 495.486 515.786 517.427 524.941C523.732 527.572 532.314 530.33 536.763 535.748C540.881 540.765 540.156 546.994 537.251 552.367C532.102 561.888 523.001 568.531 515.842 576.412C501.483 592.218 497.927 614.674 499.993 635.286C502.36 658.895 512.613 680.682 522.056 702.136C530.915 722.265 538.628 742.554 541.432 764.493C546.415 803.488 538.291 843.552 520.684 878.528C502.874 913.907 475.151 944.398 440.62 964.021C398.177 988.139 348.697 997.305 307.601 1024.03C290.039 1035.45 273.763 1049.89 262.623 1067.79C257.724 1075.67 253.878 1084.2 251.588 1093.21C248.51 1105.32 250.329 1118.59 245.721 1130.28C238.385 1148.89 216.944 1153.79 199.004 1154.87C180.387 1155.98 161.931 1152.92 143.491 1157.02C129.373 1160.16 115.411 1167.29 110.769 1181.92C110.559 1182.58 111.56 1183.01 111.772 1182.34C117.861 1163.15 139.612 1157.55 157.497 1156.07C176.032 1154.53 194.521 1157.82 212.968 1154.3C228.607 1151.31 243.429 1143.3 247.933 1127C251.233 1115.06 249.917 1102.44 253.463 1090.46C256.52 1080.15 261.62 1070.53 267.947 1061.85C296.904 1022.13 344.408 1005.52 388.445 988.663C410.664 980.159 432.922 971.038 452.801 957.79C468.69 947.201 482.942 934.174 495.147 919.502C519.371 890.378 535.795 854.647 541.639 817.189C544.512 798.775 544.793 779.927 542.118 761.472C539.03 740.179 531.32 720.464 522.69 700.876C512.646 678.076 501.943 654.896 500.652 629.623C500.012 617.08 501.593 604.115 506.707 592.558C511.529 581.662 519.665 574.301 527.794 565.947C533.386 560.203 540.662 552.769 540.833 544.159C541.018 534.858 532.466 530.526 525.161 527.142C501.995 516.408 476.246 510.876 454.976 496.259C433.659 481.61 419.717 458.826 422.661 432.321C425.681 405.137 442.779 381.375 458.847 360.201C482.872 328.541 516.263 284.058 492.437 243.203C473.449 210.643 429.469 204.519 395.298 205.87C343.133 207.934 292.877 223.449 242.697 236.457C217.548 242.976 192.185 248.974 166.4 252.363C152.51 254.19 138.506 255.267 124.491 255.25C113.412 255.237 102.089 254.574 91.5145 251C80.7431 247.359 71.5992 240.429 67.1021 229.753C63.2271 220.554 62.9165 210.32 62.3412 200.499C61.2427 181.77 57.6192 164.662 41.7401 152.896C25.6372 140.966 4.68664 137.212 -14.6721 134.323C-37.1717 130.966 -59.9698 129.917 -80.9126 140.204C-99.6114 149.387 -114.463 164.512 -129.885 178.153C-146.902 193.206 -166.002 206.183 -189.051 209.343C-210.862 212.335 -232.299 203.068 -240.385 181.693C-246.571 165.338 -244.662 147.004 -244.369 129.905C-244.105 114.446 -244.456 97.9435 -252.333 84.15C-260.925 69.1077 -277.182 61.5822 -294.098 61.0885C-336.86 59.8432 -363.27 96.5954 -374.064 133.898C-387.704 181.038 -380.719 233.312 -403.801 277.819C-413.635 296.782 -428.587 313.482 -448.97 321.072C-449.627 321.316 -449.205 322.32 -448.548 322.075L-448.555 322.08Z" fill="#2A2E30"/>
</g>
<g opacity="0.337">
<path d="M-451.036 358.654C-413.805 342.185 -399.835 298.937 -394.394 261.834C-387.934 217.775 -389.059 167.601 -358.988 131.39C-346.327 116.143 -328.581 106.312 -308.56 105.684C-290.272 105.11 -272.863 113.211 -265.192 130.461C-252.985 157.914 -266.823 192.176 -248.561 217.611C-224.714 250.829 -177.251 232.553 -151.215 212.668C-135.358 200.555 -120.741 186.297 -102.739 177.3C-81.0919 166.481 -58.0105 168.172 -34.9 172.518C-15.7199 176.126 5.42278 180.963 20.086 194.77C35.8501 209.614 34.0834 229.857 37.8669 249.389C41.2604 266.912 52.486 278.298 69.7366 282.687C90.2328 287.902 113.202 285.485 133.882 282.781C181.496 276.554 227.113 260.769 273.599 249.405C296.794 243.735 320.314 239.127 344.162 237.398C364.448 235.928 385.107 236.433 404.663 242.574C421.935 247.998 438.397 258.077 447.022 274.526C457.502 294.508 453.696 317.346 444.914 337.163C426.712 378.237 385.063 410.043 380.548 456.89C378.622 476.878 386.035 495.836 400.592 509.555C416.644 524.683 438.114 530.818 457.561 540.18C462.597 542.604 468.399 545.029 472.522 548.884C477.493 553.53 477.593 559.954 474.757 565.732C470.497 574.407 462.716 581.013 456.282 588.023C442.412 603.132 438.168 623.766 439.586 643.78C441.16 665.987 449.767 686.718 458.092 707.1C466.032 726.537 473.371 746.034 475.862 767.012C480.297 804.343 471.609 842.437 454.352 875.593C436.787 909.339 410.19 938.495 377.703 958.383C338.136 982.603 292.219 994.703 253.911 1021.17C237.504 1032.5 222.185 1046.26 211.285 1063.1C206.148 1071.03 202.049 1079.65 199.615 1088.8C196.876 1099.1 197.602 1110.42 193.193 1120.24C185.371 1137.65 164.433 1141.76 147.269 1142.6C129.933 1143.44 112.774 1140.78 95.5698 1144.26C82.2885 1146.95 68.644 1153.04 63.4662 1166.47C63.1471 1167.3 64.417 1167.84 64.7361 1167.01C71.3854 1149.76 91.9815 1145.16 108.492 1143.92C126.213 1142.58 143.882 1145.63 161.528 1142.43C176.636 1139.7 191.17 1132.3 195.962 1116.7C199.142 1106.36 198.782 1095.35 202.171 1085C205.418 1075.08 210.586 1065.89 216.833 1057.56C244.966 1020.05 289.557 1002.01 330.987 983.552C351.121 974.582 371.273 965.114 389.351 952.382C404.328 941.835 417.851 929.238 429.59 915.185C452.89 887.294 469.415 853.387 475.674 817.507C478.748 799.879 479.285 781.773 476.873 764.029C474.103 743.657 466.761 724.681 459.031 705.756C450.208 684.153 441.222 662.094 440.714 638.426C440.457 626.425 442.335 614.124 447.537 603.226C452.107 593.651 459.591 586.813 466.606 579.101C471.763 573.431 478.269 566.149 478.13 557.941C477.995 549.89 471.151 545.761 464.803 542.325C444.602 531.396 421.3 525.848 403.672 510.495C384.427 493.734 377.776 469.157 384.184 444.633C390.591 420.109 406.257 399.032 421.015 378.929C442.953 349.048 469.099 306.275 445.885 269.825C426.812 239.878 385.762 234.208 353.293 235.511C304.738 237.461 258.018 252.044 211.444 264.621C188.264 270.881 164.916 276.74 141.159 280.362C118.736 283.781 93.7513 286.911 71.3779 281.679C60.9754 279.247 51.0082 274.249 45.1059 265.012C39.6834 256.525 38.549 246.282 37.5065 236.495C35.5951 218.565 32.1632 202.205 17.2365 190.512C2.50064 178.969 -16.7011 174.543 -34.7161 171.155C-55.8339 167.184 -77.4954 165.028 -97.8234 173.529C-115.759 181.03 -130.387 194.307 -145.367 206.328C-162.177 219.817 -180.661 231.295 -202.51 233.957C-223.11 236.467 -243.654 228.303 -252.128 208.413C-258.355 193.8 -257.416 177.234 -258.073 161.698C-258.69 147.1 -260.476 131.633 -270.03 119.894C-279.822 107.86 -295.734 103.456 -310.758 104.413C-350.973 106.976 -373.951 143.413 -383.513 178.885C-395.56 223.572 -389.987 272.529 -410.785 314.887C-419.606 332.852 -432.937 349.144 -451.564 357.385C-452.375 357.743 -451.844 359.015 -451.029 358.655L-451.036 358.654Z" fill="#2A2E30"/>
</g>
<g opacity="0.411">
<path d="M-453.517 395.228C-420.304 377.716 -407.833 337.795 -402.652 303.183C-396.446 261.735 -397.338 215.934 -372.304 180.133C-361.6 164.825 -346.59 153.422 -327.958 150.059C-311.862 147.153 -293.786 150.466 -283.525 164.211C-266.4 187.147 -278.442 220.056 -261.061 243.112C-237.964 273.75 -193.226 258.637 -167.121 240.974C-151.555 230.442 -137.002 217.877 -119.501 210.566C-98.5062 201.796 -76.6371 204.723 -55.1051 209.741C-36.8469 213.997 -16.853 219.81 -3.57746 233.887C9.49436 247.749 8.73098 265.811 13.3961 283.058C17.7412 299.123 29.2423 308.775 45.2915 312.382C65.1472 316.844 87.0873 314.293 106.972 311.358C150.991 304.861 193.109 289.824 236.116 278.966C257.447 273.58 279.078 269.193 301.038 267.434C319.919 265.921 339.118 266.161 357.475 271.318C373.594 275.845 389.327 284.338 398.726 298.635C410.291 316.227 409.336 337.808 402.534 356.968C388.311 397.041 353.052 426.113 341.942 467.62C337.147 485.535 338.289 505.004 348.789 520.741C359.406 536.652 376.641 543.958 392.929 552.624C402.192 557.552 417.251 564.327 412.929 577.258C409.996 586.034 402.375 593.008 396.403 599.771C383.69 614.167 378.738 631.959 379.241 650.993C380.333 692.219 405.729 727.797 410.422 768.4C414.544 804.065 405.561 840.169 388.764 871.597C371.635 903.646 346.342 931.486 316.158 951.708C279.933 975.975 238.342 991.059 202.808 1016.48C187.177 1027.66 172.405 1040.73 161.254 1056.49C156.102 1063.77 151.733 1071.68 148.801 1080.12C145.501 1089.62 145.433 1100.22 141.078 1109.33C133.35 1125.49 113.771 1129.37 97.5667 1130.21C81.1107 1131.07 64.7736 1128.56 48.3938 1131.36C35.6618 1133.55 22.0308 1138.61 16.1593 1151.02C15.6993 1152 17.2393 1152.64 17.6974 1151.67C25.1661 1135.89 45.5472 1132.5 61.1811 1131.66C77.9634 1130.76 94.6434 1133.45 111.335 1130.34C125.71 1127.66 139.27 1120.65 144.206 1106.02C147.456 1096.39 148.001 1086.2 151.877 1076.7C155.612 1067.55 160.983 1059.13 167.162 1051.44C194.669 1017.21 235.446 997.891 273.519 978.055C291.902 968.478 310.322 958.602 326.922 946.103C340.936 935.553 353.706 923.333 364.928 909.853C387.332 882.945 403.905 850.602 410.286 816.034C413.36 799.385 413.992 782.241 411.732 765.448C409.109 745.97 402.063 727.674 395.239 709.364C387.474 688.529 380.037 667.045 380.931 644.487C381.355 633.776 383.583 622.99 388.61 613.453C393.279 604.596 400.749 597.922 406.97 590.214C411.315 584.829 416.28 577.944 415.367 570.599C414.368 562.56 406.014 558.207 399.757 554.533C382.126 544.18 361.949 537.518 350.109 519.728C322.231 477.833 360.999 430.232 383.688 396.288C402.82 367.667 421.858 327.469 398.61 295.555C378.877 268.464 340.572 263.753 309.615 265.223C265.115 267.334 222.343 280.849 179.769 292.856C157.983 298.999 136.055 304.827 113.717 308.605C92.44 312.203 69.0664 315.291 47.6549 311.175C37.8016 309.282 28.0492 305.215 21.7661 297.072C15.9611 289.549 14.152 280.115 12.6415 270.961C9.90134 254.359 6.20652 239.31 -7.3407 228.116C-20.7719 217.018 -38.2241 211.976 -54.8902 208.091C-74.9057 203.426 -95.573 200.296 -115.45 207.232C-132.772 213.277 -147.278 224.949 -162.062 235.431C-178.513 247.096 -196.491 256.8 -216.939 258.664C-236.684 260.462 -256.209 252.564 -264.628 233.761C-270.518 220.605 -270.389 205.771 -272.269 191.729C-273.999 178.805 -277.763 165.647 -288.092 156.909C-299.339 147.393 -315.484 145.839 -329.464 148.651C-365.151 155.829 -384.188 190.062 -392.602 222.673C-403.659 265.531 -399.003 312.091 -418.176 352.861C-426.003 369.505 -437.633 384.974 -454.169 393.694C-455.111 394.19 -454.474 395.735 -453.521 395.232L-453.517 395.228Z" fill="#2A2E30"/>
</g>
<g opacity="0.485">
<path d="M-455.781 431.676C-425.994 412.816 -415.304 374.958 -410.548 342.152C-404.908 303.239 -405.131 261.006 -383.508 226.588C-374.282 211.901 -361.356 200.025 -344.542 194.924C-330.475 190.656 -312.952 190.794 -301.421 201.08C-281.472 218.876 -289.976 250.814 -272.296 270.394C-248.312 296.954 -207.192 283.582 -181.072 268.051C-165.821 258.982 -151.105 248.271 -133.879 243.212C-113.75 237.302 -93.0933 241.871 -73.4951 247.653C-56.7888 252.583 -39.0875 259.338 -27.4951 272.972C-16.0782 286.399 -16.5359 303.684 -9.96206 319.183C-3.62942 334.115 10.3018 340.864 25.7419 342.802C44.6306 345.174 64.5093 342.651 83.1292 339.353C123.301 332.238 161.72 318.035 201.139 307.893C237.067 298.65 277.706 290.629 314.235 301.221C329.218 305.565 343.693 313.491 352.667 326.617C363.493 342.45 363.807 362.168 358.556 380.047C347.391 418.067 316.641 446.247 303.389 483.373C297.495 499.884 295.135 518.589 301.848 535.249C308.121 550.819 321.268 558.723 334.554 567.72C342.397 573.031 353.522 579.865 350.21 590.851C347.687 599.22 340.781 606.089 335.34 612.662C323.982 626.384 319.032 642.494 319.084 660.257C319.198 699.296 341.805 733.635 345.533 772.085C348.814 805.934 339.164 839.731 322.618 869.079C305.586 899.29 281.305 925.471 253.234 945.732C220.829 969.122 184.749 986.935 152.686 1010.88C138.063 1021.8 124.053 1033.96 112.647 1048.27C107.219 1055.09 102.383 1062.44 98.7321 1070.37C94.9456 1078.58 93.7529 1087.56 90.2781 1095.84C83.4611 1112.1 65.4744 1116.63 49.4511 1117.73C33.5576 1118.83 17.703 1116.33 1.83734 1118.43C-10.4131 1120.06 -24.3341 1124.02 -31.0134 1135.35C-31.6464 1136.43 -30.1041 1137.64 -29.4643 1136.55C-21.2547 1122.62 -2.17095 1120.11 12.5099 1119.49C28.3359 1118.82 44.0542 1121.23 59.8071 1118.49C74.0773 1116.02 87.2972 1109.4 92.6501 1095.15C95.8858 1086.54 97.3497 1077.57 101.44 1069.23C105.56 1060.84 110.995 1053.14 117.035 1046.02C142.725 1015.74 178.249 995.127 211.727 974.691C228.686 964.339 245.88 954.134 261.586 941.917C275.001 931.483 287.383 919.694 298.442 906.788C320.093 881.521 337.051 851.5 344.363 818.86C347.91 803.025 349.058 786.637 347.335 770.486C345.343 751.817 339.034 734.105 333.071 716.42C326.365 696.534 319.991 676.066 321.17 654.818C321.71 645.098 323.767 635.356 328.153 626.612C332.404 618.14 339.227 611.536 344.901 604.059C348.853 598.852 353.212 592.495 352.855 585.639C352.442 577.721 344.686 572.526 338.862 568.338C331.619 563.131 323.668 558.895 316.93 553.002C310.416 547.303 305.447 540.051 302.664 531.838C295.788 511.549 301.817 489.546 310.74 470.925C319.81 451.998 332.471 435.246 343.322 417.372C360.031 389.851 374.684 352.501 352.813 323.467C333.994 298.482 298.688 293.57 269.577 294.762C228.411 296.449 188.868 308.991 149.656 320.583C129.725 326.475 109.705 332.195 89.2965 336.206C69.054 340.185 47.3302 343.367 26.7025 340.948C17.6616 339.888 8.30961 337.414 1.19377 331.459C-5.8434 325.57 -9.17625 317.096 -11.3919 308.44C-13.3731 300.698 -14.7203 292.765 -17.7491 285.329C-20.7322 278.006 -25.3909 271.604 -31.2663 266.328C-43.8571 255.021 -60.4928 249.256 -76.5106 244.764C-94.9791 239.585 -114.131 235.781 -133.043 240.953C-149.199 245.371 -163.221 254.848 -177.335 263.51C-193.828 273.633 -211.454 281.997 -231.074 283.29C-249.462 284.502 -267.745 277.547 -276.702 260.678C-282.981 248.853 -283.73 235.222 -287.176 222.502C-290.199 211.346 -295.953 200.875 -306.437 195.195C-318.385 188.724 -333.265 189.346 -345.897 193.307C-378.896 203.651 -395.114 238.049 -402.341 269.355C-411.589 309.417 -408.434 352.322 -425.337 390.528C-432.254 406.161 -442.335 420.856 -456.975 430.126C-458.042 430.8 -456.84 432.349 -455.782 431.679L-455.781 431.676Z" fill="#2A2E30"/>
</g>
<g opacity="0.558">
<path d="M-458.229 468.231C-432.087 448.139 -422.946 412.935 -418.546 381.873C-413.423 345.703 -413.07 307.356 -395.226 274.455C-387.309 259.857 -375.868 246.93 -360.382 240.287C-347.977 234.967 -332.122 232.736 -319.712 239.277C-308.453 245.212 -303.814 256.786 -299.951 268.17C-296.289 278.962 -292.253 289.529 -283.687 297.452C-258.823 320.446 -220.549 308.298 -194.141 294.993C-179.445 287.589 -164.785 279.236 -148.314 276.582C-129.249 273.51 -110.1 279.324 -92.3607 285.867C-77.1405 291.481 -61.6001 299.084 -51.4418 312.186C-41.8986 324.495 -41.0995 340.369 -33.3445 353.486C-25.3501 367.008 -10.3509 371.616 4.54653 372.494C22.5458 373.555 40.9624 370.899 58.5467 367.263C95.0486 359.717 129.962 346.296 165.959 336.849C199.176 328.131 236.6 321.104 270.37 330.944C284.43 335.041 297.977 342.465 306.612 354.606C316.379 368.338 318.034 385.545 314.657 401.696C307.191 437.402 280.636 465.009 266.103 497.686C259.202 513.204 254.421 530.323 256.272 547.444C257.007 554.236 258.954 560.911 262.453 566.805C265.78 572.41 270.463 576.789 275.146 581.238C281.275 587.059 289.906 594.506 287.616 603.854C285.61 612.038 279.245 618.896 274.235 625.417C263.873 638.904 259.072 653.961 258.953 670.987C258.699 707.391 278.303 740.101 280.978 776.075C283.439 809.165 272.316 841.627 254.973 869.439C237.212 897.922 213.204 922.412 186.445 942.53C156.954 964.702 126.41 985.318 97.8476 1008.74C84.7027 1019.52 71.9055 1030.96 61.023 1044.07C55.8541 1050.3 51.1379 1056.93 47.3079 1064.07C43.2793 1071.57 41.4489 1080.07 37.2457 1087.44C29.4714 1101.08 12.7986 1104.57 -1.68985 1105.44C-16.7449 1106.35 -31.7565 1104.09 -46.7979 1105.82C-58.1743 1107.12 -71.0678 1110.22 -78.2965 1119.87C-79.1649 1121.03 -77.3867 1122.4 -76.5183 1121.24C-67.6979 1109.47 -50.0802 1107.77 -36.5122 1107.34C-21.3128 1106.85 -6.21707 1109.08 8.91542 1106.54C21.56 1104.43 33.8014 1099.07 39.9552 1087.19C43.9778 1079.42 46.0019 1070.87 50.3353 1063.2C54.5969 1055.66 59.8821 1048.71 65.5768 1042.19C77.5853 1028.46 91.5621 1016.55 105.803 1005.21C120.43 993.556 135.336 982.255 150.455 971.251C165.42 960.358 180.877 950.059 195.329 938.481C208.319 928.075 220.499 916.632 231.577 904.206C252.838 880.359 270.501 852.319 278.76 821.226C282.802 806.006 284.439 790.159 283.1 774.449C281.571 756.519 275.887 739.337 270.742 722.201C265.204 703.761 260.073 684.799 261.397 665.355C262.042 655.873 264.164 646.38 268.563 637.904C272.534 630.257 278.575 623.955 283.462 616.915C286.999 611.819 290.814 605.675 290.311 599.202C289.76 592.112 283.557 586.351 278.795 581.646C273.721 576.634 268.213 572.048 264.491 565.866C260.159 558.669 258.382 550.284 258.166 541.957C257.147 502.495 285.19 470.737 302.903 437.951C317.069 411.731 327.352 377.433 307.023 351.394C288.944 328.237 256.171 323.316 228.657 324.348C190.996 325.76 154.848 337.276 119.135 348.351C82.7903 359.622 44.1 372.292 5.5331 370.299C-3.01064 369.857 -11.8791 368.423 -19.4361 364.197C-26.8543 360.048 -31.6351 353.238 -34.7315 345.478C-37.5318 338.459 -39.2467 331.06 -42.1229 324.067C-44.9459 317.2 -48.9172 311.03 -54.1307 305.729C-65.2418 294.432 -80.1433 287.758 -94.8754 282.576C-111.602 276.693 -129.399 271.612 -147.273 274.15C-163.539 276.459 -178.115 284.322 -192.558 291.675C-208.266 299.674 -224.54 306.383 -242.321 307.711C-259.377 308.986 -276.749 304.215 -287.373 290.037C-294.65 280.326 -296.87 268.32 -301.527 257.363C-305.902 247.073 -313.348 238.378 -324.304 234.972C-336.542 231.167 -350.277 233.383 -361.809 238.459C-391.406 251.482 -405.207 284.592 -411.583 314.268C-419.596 351.558 -417.588 391.002 -431.883 426.872C-437.891 441.948 -446.576 456.44 -459.599 466.449C-460.748 467.333 -459.378 469.117 -458.228 468.233L-458.229 468.231Z" fill="#2A2E30"/>
</g>
<g opacity="0.632">
<path d="M-460.678 504.787C-438.145 483.429 -430.477 450.695 -426.456 421.069C-421.838 387.046 -421.019 351.3 -405.366 319.97C-398.487 306.205 -388.601 293.301 -374.954 285.732C-363.857 279.578 -349.848 275.907 -337.285 279.227C-326.032 282.201 -319.308 290.986 -313.861 300.632C-308.637 309.882 -303.229 318.742 -294.392 325.006C-268.734 343.197 -234.654 333.295 -208.032 322.804C-193.055 316.901 -177.85 310.773 -161.496 310.72C-144.15 310.662 -127.056 317.348 -111.504 324.484C-97.7179 330.811 -84.1321 339.223 -75.1952 351.777C-67.032 363.243 -64.7678 378.225 -55.1974 388.739C-45.355 399.552 -30.2226 401.874 -16.2808 401.803C0.425013 401.72 17.1287 398.949 33.3418 395.09C66.7813 387.132 98.7762 374.248 131.981 365.458C162.916 357.27 197.952 351.283 229.155 361.48C242.003 365.678 254.099 372.986 261.797 384.34C270.593 397.314 272.271 413.308 269.496 428.441C263.376 461.807 240.261 488.718 226.204 518.797C219.401 533.353 214.34 548.761 213.001 564.844C212.031 576.484 213.946 586.745 219.187 597.118C222.539 603.751 226.988 610.901 224.664 618.542C222.494 625.678 217.469 631.826 213.219 637.82C208.921 643.883 205.113 650.019 202.742 657.115C200.203 664.708 199.039 672.711 198.841 680.7C197.992 715.125 215.259 746.674 216.801 780.805C218.238 812.627 205.709 843.046 187.972 868.887C169.643 895.592 145.989 918.331 120.845 938.561C107.373 949.399 93.9802 960.236 81.1853 971.876C68.8336 983.114 56.6543 994.53 44.2393 1005.7C32.3396 1016.4 20.4686 1027.24 9.87324 1039.26C4.84343 1044.97 0.089248 1050.96 -3.98778 1057.39C-8.10048 1063.88 -10.6657 1071.32 -15.0819 1077.59C-23.275 1089.22 -38.2887 1092.27 -51.6342 1093.08C-65.7872 1093.94 -79.9079 1091.92 -94.0637 1093.05C-105.112 1093.94 -117.481 1096.16 -125.581 1104.38C-126.729 1105.54 -124.708 1107.09 -123.574 1105.94C-113.969 1096.19 -97.4022 1095.32 -84.5706 1095.16C-70.3335 1094.98 -56.2026 1096.86 -42.0242 1094.61C-29.7666 1092.66 -18.062 1087.71 -11.4799 1076.66C-7.39005 1069.79 -4.43983 1062.44 0.095309 1055.8C4.57733 1049.23 9.69663 1043.12 15.0733 1037.27C26.5126 1024.84 39.2022 1013.63 51.7541 1002.35C64.4885 990.906 76.8321 979.034 89.6437 967.676C114.491 945.646 141.474 926.47 164.263 902.135C185.719 879.223 204.729 852.571 213.884 822.224C218.09 808.278 220.072 793.715 219.249 779.151C218.274 761.896 213.287 745.214 208.897 728.6C204.315 711.261 200.121 693.461 201.66 675.394C202.389 666.841 204.331 658.316 208.157 650.594C211.76 643.321 217.14 637.108 221.519 630.314C224.677 625.415 227.955 619.834 227.969 613.825C227.985 607.271 223.939 600.929 221.082 595.252C214.96 583.091 214.402 570.752 216.465 557.384C221.941 521.898 244.671 493.779 260.173 462.433C272.508 437.489 280.704 405.956 262.848 381.43C246.827 359.422 216.897 353.463 191.282 353.848C156.237 354.375 122.608 364.96 89.5821 375.709C56.0829 386.61 21.9336 398.255 -13.6293 399.238C-29.9446 399.69 -47.4929 396.948 -57.0039 382.203C-60.9344 376.11 -63.2723 369.155 -66.2581 362.589C-69.2722 355.963 -72.9882 349.779 -77.9268 344.398C-87.7701 333.673 -100.719 326.389 -113.931 320.622C-128.923 314.078 -145.107 308.09 -161.683 308.192C-177.4 308.289 -192.099 313.789 -206.524 319.479C-221.807 325.508 -237.195 330.947 -253.716 332.187C-269.845 333.398 -286.093 330.078 -298.133 318.654C-306.144 311.054 -310.094 300.821 -316.233 291.88C-322.054 283.399 -330.581 277.38 -340.887 275.924C-352.862 274.232 -365.484 277.599 -375.941 283.393C-402.266 297.98 -414.443 328.959 -420.318 356.933C-427.75 392.337 -426.405 429.487 -438.681 463.859C-443.798 478.186 -451.076 492.206 -462.226 502.774C-463.403 503.889 -461.866 505.914 -460.679 504.788L-460.678 504.787Z" fill="#2A2E30"/>
</g>
<g opacity="0.705">
<path d="M-462.871 541.087C-443.779 518.247 -437.707 487.073 -434.114 458.357C-430.143 426.624 -428.665 393.586 -414.765 364.196C-403.634 340.659 -380.902 317.816 -352.667 320.375C-342.009 321.341 -333.888 327.368 -326.683 334.797C-319.121 342.592 -311.428 349.567 -301.408 354.096C-273.692 366.623 -242.696 356.157 -215.022 349.261C-200.074 345.537 -184.846 343.591 -169.661 347.204C-154.367 350.843 -139.327 358.194 -126.067 366.545C-113.505 374.455 -102.775 384.384 -95.1963 397.23C-88.8678 407.955 -83.6129 419.483 -72.0578 425.568C-59.6356 432.111 -44.3469 431.529 -30.7935 430.195C-15.2384 428.665 0.00399221 425.13 14.9839 420.751C45.3509 411.875 74.6555 399.528 105.469 392.152C133.412 385.462 165.67 381.952 192.698 394.073C204.844 399.521 215.043 408.452 220.575 420.712C226.357 433.528 226.294 447.839 223.269 461.354C216.443 491.853 196.587 517.473 183.707 545.465C177.416 559.135 172.717 573.285 168.775 587.789C166.237 597.13 162.716 607.17 162.731 616.918C162.736 620.267 163.234 623.629 163.062 626.975C162.885 630.39 161.698 633.583 160.217 636.633C156.929 643.407 152.289 649.435 148.437 655.885C141.084 668.202 138.453 682.228 138.677 696.459C139.19 728.975 154.623 759.574 152.833 792.284C151.288 820.5 138.007 846.204 121.121 868.294C103.5 891.345 82.0239 911.151 60.3198 930.269C48.6686 940.532 37.2027 950.824 26.8192 962.397C16.2599 974.165 6.41417 986.549 -4.62289 997.889C-14.9655 1008.51 -25.8463 1018.6 -36.2246 1029.19C-46.4218 1039.6 -55.3283 1050.47 -63.4771 1062.52C-80.4037 1087.56 -113.737 1079.47 -139.385 1080.28C-150.599 1080.63 -163.249 1081.82 -172.606 1088.64C-174.08 1089.71 -172.353 1091.96 -170.882 1090.88C-159.904 1082.88 -143.86 1082.81 -130.86 1083.03C-117.648 1083.26 -104.515 1084.66 -91.3771 1082.43C-85.3912 1081.42 -79.4241 1079.72 -74.1134 1076.72C-68.3174 1073.45 -64.1645 1068.69 -60.5311 1063.19C-52.5348 1051.08 -43.2568 1040.33 -33.0789 1030C-22.2617 1019.02 -10.9211 1008.56 -0.259271 997.419C10.9263 985.734 20.8886 972.963 31.8392 961.065C42.7898 949.166 55.0233 938.78 67.0649 928.067C77.8327 918.486 88.4241 908.695 98.507 898.392C118.183 878.288 136.611 855.741 147.208 829.406C152.212 816.969 155.314 803.73 155.74 790.308C156.239 774.6 152.948 759.182 149.423 743.968C145.602 727.475 141.298 710.801 141.475 693.747C141.561 685.506 142.615 677.175 145.243 669.34C147.717 661.964 151.891 655.572 156.095 649.092C159.645 643.622 163.55 637.9 165.202 631.509C166.761 625.474 165.147 619.211 165.693 613.076C166.11 608.387 167.593 603.858 168.716 599.306C170.334 592.757 172.069 586.246 173.976 579.775C178.411 564.714 184.165 550.237 191.323 536.253C198.86 521.53 207.599 507.435 214.827 492.552C226.272 468.993 234.735 439.913 221.065 415.413C208.707 393.264 182.341 384.739 158.394 383.583C126.632 382.049 95.6256 390.959 65.8292 400.957C35.1713 411.243 4.61244 423.242 -27.7248 427.016C-42.7118 428.765 -61.0303 430.131 -74.0968 421.031C-85.4374 413.135 -89.7188 399.266 -97.5145 388.436C-105.764 376.973 -117.279 368.257 -129.406 361.25C-142.54 353.66 -156.952 346.832 -171.897 343.819C-202.261 337.697 -230.934 353.358 -260.708 356.327C-276.981 357.95 -293.317 356.448 -307.491 347.693C-316.249 342.284 -322.423 334.352 -330.021 327.613C-347.242 312.341 -371.332 316.281 -389.305 328.264C-413.089 344.122 -423.885 373.896 -429.275 400.712C-435.984 434.081 -435.315 468.789 -445.629 501.446C-449.923 515.044 -455.906 528.34 -465.109 539.349C-466.28 540.751 -464.038 542.477 -462.872 541.083L-462.871 541.087Z" fill="#2A2E30"/>
</g>
<g opacity="0.779">
<path d="M-465.292 577.617C-432.972 527.076 -448.019 462.414 -424.312 408.884C-413.991 385.577 -394.543 364.245 -367.773 361.703C-357.846 360.761 -348.428 363.657 -339.694 368.14C-329.52 373.362 -319.643 378.639 -308.525 381.661C-280.504 389.28 -251.789 380.41 -223.665 378.719C-208.221 377.79 -193.443 380.28 -179.333 386.679C-166.26 392.608 -153.785 400.416 -142.714 409.552C-137.02 414.25 -131.671 419.38 -126.913 425.03C-122.642 430.101 -118.981 435.635 -114.9 440.852C-107.392 450.447 -98.133 457.012 -85.9818 459.162C-71.957 461.644 -57.0704 459.615 -43.2427 456.854C-29.2704 454.063 -15.6301 449.752 -2.18982 445.073C25.583 435.407 52.9947 423.573 82.1364 418.592C107.691 414.225 138.092 414.029 159.82 430.358C169.968 437.983 176.73 449.231 179.048 461.688C181.469 474.697 179.278 488.142 175.315 500.62C171.016 514.15 164.523 526.834 157.917 539.354C150.739 552.958 143.588 566.524 137.135 580.492C131.65 592.366 126.938 605.075 118.608 615.336C115.581 619.062 111.8 621.987 108.555 625.498C104.952 629.398 102.886 634.03 101.576 639.136C98.0855 652.74 88.6975 663.217 83.5802 676.114C78.4094 689.144 77.7419 703.628 79.0748 717.444C81.8866 746.596 93.3858 775.163 88.1067 804.736C83.7429 829.177 69.6546 850.443 53.5929 868.844C36.7263 888.166 17.2941 905.005 -1.37739 922.518C-11.4977 932.012 -21.3952 941.698 -29.6594 952.893C-38.5269 964.906 -45.714 978.069 -54.8273 989.91C-71.5718 1011.67 -93.3814 1028.77 -111.539 1049.24C-116.341 1054.65 -120.97 1059.9 -127.624 1063.07C-133.427 1065.83 -139.779 1067.19 -146.134 1067.92C-159.344 1069.43 -172.534 1067.77 -185.765 1067.71C-197 1067.67 -209.178 1068.03 -219.518 1072.93C-221.326 1073.79 -220.128 1076.67 -218.307 1075.81C-206.606 1070.26 -192.326 1070.53 -179.678 1070.93C-166.504 1071.35 -153.341 1072.61 -140.264 1070.21C-134.529 1069.16 -128.841 1067.45 -123.754 1064.55C-118.207 1061.39 -114.047 1056.8 -109.877 1052.06C-100.638 1041.56 -90.3875 1032 -80.4198 1022.21C-70.4521 1012.42 -60.447 1002.43 -51.9466 991.278C-42.6324 979.051 -35.2814 965.477 -26.0104 953.22C-9.60701 931.536 12.4851 914.392 32.0078 895.644C50.0281 878.339 67.6373 859.82 79.5773 837.667C85.1421 827.344 89.2924 816.215 91.2883 804.637C93.6459 790.963 92.57 777.141 90.2934 763.533C85.287 733.614 74.2074 700.8 88.9594 671.836C92.1867 665.5 96.1787 659.595 99.5347 653.331C100.968 650.656 102.306 647.907 103.231 645.01C104.196 641.986 104.682 638.829 105.8 635.85C107.956 630.104 112.048 626.422 116.364 622.301C119.794 619.025 122.726 615.364 125.286 611.37C132.765 599.699 137.676 586.49 143.615 574.014C150.448 559.666 158.218 545.819 165.418 531.659C176.895 509.083 188.08 482.302 181.066 456.616C174.479 432.495 153.122 418.954 129.571 414.724C101.387 409.662 72.3326 416.147 45.5463 424.836C17.0411 434.081 -10.5572 446.52 -39.9178 452.978C-54.2611 456.132 -69.7611 458.552 -84.4057 456.266C-91.6781 455.131 -98.4016 452.488 -104.116 447.786C-109.071 443.708 -112.87 438.475 -116.629 433.328C-133.241 410.585 -156.052 392.715 -182.211 382.041C-195.602 376.576 -209.709 374.767 -224.097 375.632C-238.876 376.519 -253.434 379.541 -268.184 380.78C-283.507 382.067 -298.925 381.863 -313.605 376.846C-323.868 373.339 -332.905 367.652 -342.72 363.204C-362.778 354.113 -384.842 359.504 -401.724 372.795C-423.01 389.553 -432.836 417.403 -437.942 443.082C-444.12 474.152 -444.086 506.196 -451.933 536.969C-455.381 550.492 -460.213 563.904 -467.762 575.709C-468.837 577.391 -466.377 579.312 -465.296 577.62L-465.292 577.617Z" fill="#2A2E30"/>
</g>
<g opacity="0.853">
<path d="M-467.491 613.763C-443.788 562.505 -455.28 502.868 -432.839 451.35C-422.928 428.598 -405.257 408.676 -380.408 402.503C-357.986 396.934 -336.614 405.563 -314.503 408.24C-286.987 411.572 -258.978 406.39 -231.609 411.249C-202.683 416.383 -178.73 435.269 -158.532 455.632C-150.038 464.195 -142.449 474.31 -132.319 481.057C-121.715 488.121 -109.366 489.927 -96.8387 489.343C-69.4352 488.066 -43.4158 477.705 -18.1748 467.827C7.64593 457.723 33.9385 447.396 61.9678 446.176C85.1669 445.167 111.882 450.625 125.83 471.027C140.106 491.909 135.279 518.655 126.679 540.732C121.399 554.283 114.545 567.151 107.821 580.022C101.445 592.228 95.5323 605.001 87.6252 616.319C80.5516 626.445 71.5079 632.717 60.448 637.791C55.5538 640.036 50.6125 642.417 46.5884 646.069C42.316 649.947 39.8961 654.728 37.3222 659.784C31.5025 671.213 24.1408 681.766 20.8905 694.339C17.4338 707.709 17.8829 721.729 19.6444 735.315C23.1383 762.28 31.3784 789.572 22.5916 816.409C15.7994 837.156 1.4148 854.366 -13.9039 869.471C-29.9326 885.275 -47.5449 899.363 -63.6935 915.038C-72.3787 923.468 -80.7985 932.329 -87.3185 942.581C-94.8118 954.365 -99.4278 967.563 -105.822 979.916C-118.062 1003.56 -138.971 1021.29 -159.151 1038.01C-164.314 1042.29 -169.384 1046.91 -175.387 1049.99C-180.69 1052.72 -186.537 1054.24 -192.408 1055.13C-205.301 1057.09 -218.23 1055.84 -231.173 1055.3C-242.819 1054.83 -254.912 1054.5 -266.315 1057.29C-268.425 1057.8 -267.98 1061.19 -265.843 1060.67C-240.55 1054.48 -214.269 1062.91 -188.826 1057.97C-183.422 1056.92 -178.06 1055.3 -173.199 1052.68C-167.426 1049.57 -162.497 1045.21 -157.474 1041.05C-147.64 1032.9 -137.901 1024.62 -128.857 1015.6C-119.505 1006.27 -110.897 996.166 -104.465 984.58C-97.3413 971.747 -92.769 957.634 -84.9379 945.176C-72.0021 924.597 -52.1653 908.765 -34.1768 892.799C-17.4922 877.989 -0.507145 862.821 12.2128 844.329C18.2066 835.615 23.1875 826.145 26.2826 816.006C29.8921 804.183 30.629 791.923 29.6394 779.644C27.305 750.658 15.9834 720.725 25.1217 691.85C27.1635 685.399 30.3288 679.383 33.6157 673.494C36.7696 667.841 39.7243 662.101 42.8073 656.416C48.9631 645.063 60.7685 642.276 71.1877 636.267C81.7319 630.184 89.0935 621.034 95.2051 610.673C102.426 598.43 108.769 585.65 115.311 573.036C127.005 550.487 139.182 525.862 138.312 499.779C137.935 488.493 134.56 477.373 127.971 468.143C121.463 459.028 111.977 452.497 101.608 448.485C77.4554 439.14 49.9079 442.048 25.5166 448.82C-1.20808 456.24 -26.2945 468.337 -52.6251 476.916C-66.3342 481.384 -80.4643 484.815 -94.8847 485.825C-109.169 486.826 -122.93 484.563 -134.289 475.359C-144.537 467.057 -152.755 456.274 -162.309 447.192C-172.555 437.451 -183.619 428.488 -195.791 421.254C-208.045 413.97 -221.274 409.174 -235.407 407.199C-249.358 405.249 -263.495 405.773 -277.535 405.988C-291.575 406.204 -305.769 406.386 -319.639 404.057C-331.131 402.126 -342.453 399.01 -354.038 397.662C-376.024 395.102 -397.58 402.165 -413.814 417.264C-432.665 434.796 -441.703 460.675 -446.58 485.323C-452.377 514.621 -452.77 544.686 -458.664 573.971C-461.319 587.162 -464.973 600.204 -470.631 612.441C-471.554 614.437 -468.408 615.756 -467.489 613.768L-467.491 613.763Z" fill="#2A2E30"/>
</g>
<g opacity="0.926">
<path d="M-469.894 650.261C-461.969 624.018 -459.789 596.621 -457.14 569.473C-454.558 542.991 -451.346 515.927 -440.312 491.422C-429.985 468.487 -412.596 450.305 -389.126 440.806C-379.154 436.771 -368.718 434.286 -358.004 433.343C-345.972 432.285 -333.953 433.158 -321.919 433.661C-294.879 434.792 -267.11 435.878 -241.892 446.747C-229.638 452.03 -218.54 459.528 -208.566 468.357C-198.731 477.064 -190.186 487.08 -180.721 496.168C-172.154 504.395 -162.707 511.858 -151.301 515.66C-139.073 519.734 -125.974 519.379 -113.379 517.399C-88.1261 513.429 -64.8666 502.273 -41.4445 492.599C-17.4167 482.674 7.81904 474.014 34.2144 476.316C57.2369 478.323 79.2341 489.734 87.0672 512.679C94.8367 535.433 86.882 560.691 77.5749 581.7C72.1445 593.957 65.9235 606.043 58.9923 617.519C52.4192 628.402 44.7528 638.804 33.394 645.043C23.3521 650.558 12.0795 652.545 1.26881 655.962C-9.66218 659.417 -18.6138 664.944 -25.1963 674.476C-32.3303 684.807 -38.0027 696.269 -40.3714 708.666C-42.8758 721.771 -42.0325 735.198 -40.3268 748.34C-37.0234 773.79 -31.2209 800.039 -42.3378 824.449C-50.443 842.244 -64.9356 856.183 -79.6692 868.593C-95.0106 881.517 -111.426 893.219 -125.868 907.188C-133.406 914.478 -140.47 922.357 -145.874 931.386C-152.863 943.062 -155.685 956.059 -159.366 968.995C-162.96 981.614 -168.46 992.86 -176.957 1002.91C-184.787 1012.17 -194.212 1020.03 -204.243 1026.8C-214.581 1033.78 -225.455 1039.88 -237.836 1042.2C-250.67 1044.6 -263.708 1043.93 -276.653 1043.07C-288.911 1042.26 -301.206 1041.29 -313.498 1041.75C-315.872 1041.83 -315.35 1045.5 -312.986 1045.41C-287.03 1044.45 -260.486 1051.04 -234.791 1045.35C-223.097 1042.77 -212.703 1036.88 -202.819 1030.29C-192.629 1023.5 -183.089 1015.58 -175.029 1006.33C-166.685 996.76 -160.677 985.932 -156.947 973.795C-152.846 960.448 -150.437 946.616 -143.365 934.377C-132.676 915.874 -115.247 901.976 -98.8074 888.82C-83.0164 876.182 -66.6094 863.84 -53.4694 848.326C-47.3564 841.108 -42.0327 833.137 -38.2802 824.432C-33.6564 813.703 -31.8458 802.197 -31.9583 790.554C-32.229 762.609 -42.4279 734.868 -36.2466 706.948C-34.7387 700.139 -32.0775 693.628 -28.8232 687.476C-25.7688 681.703 -22.2118 675.707 -17.7247 670.917C-9.35582 661.983 2.98245 659.203 14.3303 656.099C25.3261 653.092 36.0921 649.166 44.8144 641.569C54.147 633.44 60.658 622.397 66.5888 611.685C78.8234 589.588 91.0293 565.63 93.4199 540.093C95.4811 518.074 88.0058 495.777 68.7227 483.484C48.3589 470.501 21.9409 470.184 -0.974084 475.148C-26.1795 480.607 -49.3987 492.408 -73.2444 501.814C-85.7056 506.729 -98.4224 511.056 -111.649 513.36C-125.269 515.733 -139.603 516.361 -152.689 511.223C-164.772 506.478 -174.426 497.469 -183.391 488.346C-192.671 478.901 -201.518 469.039 -211.876 460.731C-222.235 452.424 -233.732 445.671 -246.194 441.032C-258.656 436.393 -271.727 433.824 -284.888 432.361C-298.684 430.828 -312.561 430.423 -326.417 429.773C-338.333 429.214 -350.245 428.641 -362.129 430.049C-384.294 432.673 -405.777 442.055 -421.824 457.717C-439.943 475.401 -449.365 499.929 -454.546 524.26C-460.515 552.286 -461.214 581.072 -465.128 609.394C-466.966 622.697 -469.412 635.954 -473.299 648.822C-473.982 651.081 -470.578 652.539 -469.89 650.261L-469.894 650.261Z" fill="#2A2E30"/>
</g>
<path d="M-472.158 686.24C-467.956 659.318 -467.278 632.037 -464.723 604.945C-462.21 578.305 -457.831 551.3 -445.707 527.159C-424.3 484.533 -377.911 457.496 -330.33 458.64C-305.318 459.242 -280.652 467.178 -259.635 480.684C-249.294 487.328 -239.773 495.285 -231.507 504.385C-222.772 514.004 -215.759 525.246 -205.738 533.66C-186.469 549.839 -159.431 550.846 -135.908 545.491C-109.931 539.578 -86.8147 525.663 -62.2445 515.909C-39.9978 507.076 -15.0204 501.811 8.38471 509.541C19.0739 513.071 28.6547 519.349 35.3413 528.498C41.714 537.217 44.8367 547.725 45.4391 558.434C46.7032 580.906 38.2079 603.419 27.9289 623.001C22.0687 634.165 15.3826 645.47 5.53956 653.605C-2.98577 660.651 -13.4346 664.224 -24.1155 666.507C-43.8199 670.72 -66.3084 671.067 -82.6255 684.423C-101.136 699.574 -103.57 725.495 -101.803 747.757C-99.6844 774.45 -91.855 802.665 -104.839 827.891C-113.182 844.101 -127.91 855.888 -142.511 866.222C-157.681 876.958 -173.827 886.534 -187.674 899.027C-194.229 904.941 -200.269 911.523 -204.903 919.068C-210.503 928.187 -213.51 938.116 -214.867 948.709C-216.629 962.465 -216.63 976.574 -222.859 989.292C-227.84 999.463 -235.837 1007.89 -245.053 1014.36C-266.526 1029.43 -293.061 1032.71 -318.671 1031.19C-332.586 1030.37 -346.386 1028.29 -360.155 1026.2C-362.695 1025.82 -363.213 1029.77 -360.673 1030.16C-332.593 1034.43 -303.232 1038.9 -275.173 1032.07C-253.494 1026.79 -232.423 1014.16 -221.1 994.441C-214.335 982.657 -212.974 969.533 -211.68 956.254C-210.504 944.191 -208.375 932.578 -202.082 922.063C-192.524 906.093 -177.035 894.723 -161.966 884.349C-146.463 873.677 -130.183 863.715 -116.794 850.338C-110.454 844.003 -104.899 836.891 -100.865 828.861C-95.2119 817.608 -93.3226 805.122 -93.4629 792.627C-93.7655 765.591 -103.029 738.115 -95.181 711.356C-91.8522 700.007 -85.1746 690.098 -74.9739 683.892C-65.782 678.302 -54.9957 676.023 -44.5302 674.186C-34.0563 672.346 -23.4581 670.961 -13.2668 667.817C-2.16519 664.391 7.46447 658.449 15.2061 649.736C23.3 640.628 29.2813 629.593 34.5727 618.684C39.6088 608.3 43.7515 597.455 46.4803 586.232C51.5452 565.399 51.1442 541.971 37.2879 524.463C22.9044 506.289 -1.26057 500.592 -23.4563 502.093C-76.491 505.679 -119.704 552.745 -174.771 543.306C-187.786 541.075 -199.393 535.097 -208.553 525.559C-217.696 516.04 -224.936 504.945 -234.395 495.68C-252.127 478.315 -274.421 465.669 -298.39 459.263C-344.655 446.898 -395.286 460.771 -428.401 495.522C-466.69 535.701 -467.916 593.717 -471.823 645.766C-472.826 659.127 -474.049 672.478 -476.117 685.723C-476.513 688.261 -472.556 688.779 -472.161 686.241L-472.158 686.24Z" fill="#2A2E30"/>
</g>
<defs>
<clipPath id="clip0_28_107">
<rect width="1114.6" height="1113.11" fill="white" transform="translate(-409.4 0.89209) rotate(7.46412)"/>
</clipPath>
</defs>
</svg>
