<svg width="283" height="426" viewBox="0 0 283 426" fill="none" xmlns="http://www.w3.org/2000/svg">
<g opacity="0.19">
<path d="M169.811 659.197C157.746 633.195 126.41 627.414 100.668 627.35C71.3193 627.277 35.25 632.234 12.3244 609.231C3.3012 600.178 -1.29935 586.334 1.09577 573.707C3.49089 561.08 13.302 553.218 25.298 550.209C36.5645 547.384 48.3268 547.906 59.7931 546.547C69.3893 545.41 79.3657 542.818 85.823 535.103C93.3161 526.15 92.9856 514.127 88.8407 503.756C84.0206 491.695 75.1438 482.657 65.176 474.678C54.5566 466.175 42.884 458.286 35.0045 446.966C25.7506 433.672 25.117 417.276 25.3114 401.621C25.4681 388.988 26.7605 373.964 36.3433 364.615C46.3913 354.814 61.2351 357.145 73.5601 352.811C85.1886 348.722 90.0245 338.183 90.4708 326.46C91.0044 312.464 87.6318 297.957 83.9962 284.538C76.0796 255.316 63.1186 227.832 52.5967 199.525C47.2894 185.247 42.5708 170.707 39.4932 155.772C36.7573 142.496 35.2791 128.814 37.7782 115.373C40.034 103.236 45.8569 91.3735 56.9163 85.05C71.113 76.9327 87.9993 80.6895 102.14 86.8902C116.189 93.05 128.53 102.327 142.361 108.911C154.649 114.761 168.797 119.072 182.345 115.234C212.017 106.828 216.432 71.2931 221.668 45.9661C222.442 42.2235 223.285 38.4927 224.312 34.8107C225.538 30.4116 227.579 25.3616 232.866 25.0027C239.833 24.5297 246.436 31.5143 251.357 35.5372C261.028 43.4427 272.985 45.6639 285.2 43.9142C299.521 41.863 312.073 34.5588 324.076 26.8941C336.212 19.1444 348.152 11.2499 361.88 6.57298C385.685 -1.53725 411.974 -1.33809 435.976 5.8654C459.969 13.0657 481.969 27.438 496.904 47.704C514.787 71.9717 522.501 102.171 540.87 126.103C549.011 136.71 559.183 146.231 571.358 152.002C576.742 154.554 582.499 156.323 588.428 157.004C596.287 157.906 604.036 155.649 611.847 156.43C625.7 157.817 631.366 171.377 633.683 183.388C635.872 194.738 635.451 206.315 639.674 217.259C642.968 225.795 648.86 233.426 658.453 234.641C658.754 234.678 658.752 234.206 658.453 234.168C645.313 232.505 639.701 218.858 637.337 207.416C634.969 195.959 635.548 184.173 631.348 173.07C627.427 162.704 619.791 155.643 608.27 155.842C600.244 155.98 592.714 157.517 584.697 155.953C577.928 154.634 571.499 151.937 565.618 148.363C538.862 132.1 527.082 102.435 513.825 75.6521C507.542 62.9579 500.575 50.4596 491.121 39.8213C483.071 30.7627 473.484 23.0932 463.007 17.0208C442.228 4.97911 417.895 -0.969745 393.902 0.129011C381.946 0.676863 370.058 2.97594 358.835 7.15935C345.513 12.1259 333.873 20.1526 321.93 27.6993C309.029 35.8504 295.274 43.2294 279.706 43.9724C272.538 44.3148 265.198 43.2278 258.749 39.9598C252.663 36.8768 248.045 31.6678 242.377 27.9457C238.562 25.4404 233.496 23.0444 229.146 25.7095C223.722 29.0334 222.921 37.8992 221.711 43.4773C218.336 59.0381 216.644 75.2837 209.481 89.7245C202.664 103.47 190.912 114.764 175.006 116.083C159.1 117.403 143.837 109.776 130.487 102.065C108.504 89.3687 77.446 68.2652 52.773 87.2506C33.7719 101.872 34.3047 130.359 38.1969 151.578C43.7632 181.928 56.3031 210.34 67.6318 238.852C73.1965 252.859 78.533 266.986 82.6605 281.493C86.7416 295.837 90.5975 311.443 89.9993 326.46C89.7057 333.832 87.9112 341.599 82.4732 346.94C77.6664 351.662 71.0304 353.389 64.5818 354.486C52.814 356.487 40.5141 357.38 32.9265 367.868C25.9348 377.532 24.9446 390.539 24.8344 402.072C24.6951 416.632 25.1595 432.029 33.017 444.793C40.0867 456.278 51.2831 464.357 61.7215 472.542C72.7549 481.194 83.0493 490.553 88.385 503.879C93.4728 516.586 92.1316 531.495 80.0426 539.681C70.7762 545.956 58.7266 546.362 47.9387 547.032C37.3524 547.69 26.0788 548.083 16.4 552.914C6.96983 557.624 1.13198 566.515 0.160705 576.971C-0.882191 588.2 3.20675 600.007 10.7959 608.318C19.7719 618.146 32.7187 623.447 45.5373 625.995C76.6022 632.173 109.592 622.094 139.763 633.724C152.331 638.568 163.631 646.996 169.404 659.436C169.531 659.711 169.939 659.472 169.811 659.197Z" fill="#2A2E30"/>
</g>
<g opacity="0.264">
<path d="M191.461 657.836C179.399 635.045 151.257 629.387 127.719 629.029C99.9367 628.606 68.028 633.687 43.9942 616.088C33.9564 608.737 27.37 597.359 26.9324 584.801C26.5247 573.108 32.3303 562.887 43.0819 558.032C60.3657 550.227 83.3102 556.636 98.4247 543.633C107.066 536.199 108.884 524.68 105.989 514.074C102.81 502.431 95.3307 492.651 86.5365 484.637C77.2748 476.196 66.8435 468.787 59.1732 458.753C49.9651 446.706 48.3224 432.446 48.5892 417.699C48.8104 405.492 49.3991 391.833 56.383 381.322C64.0532 369.778 77.0481 369.458 89.2087 366.333C93.9312 365.12 98.564 363.248 102.13 359.82C106.026 356.074 108.113 350.961 109.025 345.711C111.264 332.829 108.022 318.706 104.94 306.236C97.6526 276.745 84.2925 249.28 73.4794 221.018C68.0201 206.747 63.1654 192.197 60.1059 177.205C57.5668 164.766 56.224 151.956 58.4908 139.362C60.4924 128.241 65.5424 117.264 75.237 110.869C87.6203 102.7 102.805 104.414 116.104 109.213C129.889 114.188 141.912 122.562 154.924 129.119C167.269 135.341 181.346 140.695 195.387 138.24C208.178 136.004 218.045 127.111 224.081 115.937C230.854 103.398 232.544 89.048 236.229 75.4706C237.288 71.569 238.247 66.3215 241.083 63.2951C243.711 60.493 247.421 60.4395 250.797 61.7311C256.779 64.02 261.376 68.8496 266.551 72.4442C276.928 79.654 290.377 80.0137 302.312 77.2172C315.982 74.0137 327.978 66.323 339.839 59.1338C350.969 52.3884 362.28 46.3033 374.936 42.9715C397.433 37.0503 421.564 38.737 443.439 46.3789C465.566 54.1089 485.587 68.031 499.755 86.7834C517.168 109.832 526.35 138.158 545.19 160.217C553.241 169.643 562.961 178.083 574.324 183.242C579.323 185.512 584.625 187.112 590.085 187.763C597.424 188.639 605.072 186.551 612.285 188.356C623.771 191.23 628.293 203.433 630.303 213.876C632.389 224.713 632.012 235.778 635.836 246.281C638.764 254.324 644.018 261.968 652.959 263.567C653.364 263.639 653.538 263.019 653.131 262.946C641.401 260.849 636.44 248.517 634.198 238.137C631.874 227.38 632.38 216.28 628.895 205.727C625.941 196.78 620.102 188.7 610.192 187.31C602.933 186.292 595.627 188.034 588.33 186.874C582.041 185.874 576.004 183.621 570.426 180.576C544.897 166.639 531.498 140.044 518.224 115.501C511.527 103.119 504.464 90.7607 495.163 80.1152C487.729 71.6068 478.99 64.2459 469.443 58.2128C450.493 46.2388 428.266 39.3486 405.839 38.7992C394.814 38.5292 383.734 39.813 373.111 42.8016C360.855 46.2499 349.881 52.2892 339.051 58.8583C326.446 66.504 313.668 74.5655 298.939 77.266C291.629 78.6056 283.9 78.6749 276.726 76.5622C269.963 74.5709 265.018 70.3631 259.492 66.2356C255.692 63.3966 250.771 59.6988 245.706 60.2601C240.234 60.8669 238.35 66.2175 236.926 70.7638C232.409 85.1809 231.143 100.714 224.201 114.317C217.245 127.951 204.949 137.882 189.171 138.192C172.989 138.51 157.733 130.305 144.074 122.505C123.652 110.843 94.9851 94.6701 72.8458 111.79C55.2016 125.434 54.989 151.709 58.409 171.655C63.6297 202.103 76.5963 230.397 88.0855 258.839C93.8438 273.094 99.3125 287.514 103.283 302.382C105.423 310.391 107.132 318.525 108.199 326.75C109.043 333.251 109.524 339.945 108.24 346.424C106.932 353.024 103.568 358.922 97.6502 362.381C92.5506 365.362 86.5703 366.331 80.8521 367.423C69.9477 369.508 60.1886 372.949 54.5058 383.17C48.7435 393.535 48.1516 406.116 47.9446 417.696C47.7045 431.156 48.8419 444.613 56.4869 456.11C63.3126 466.375 73.3283 473.926 82.5176 481.926C92.6577 490.754 101.74 500.962 105.366 514.243C108.798 526.81 105.009 540.1 93.089 546.487C83.9682 551.375 73.0646 551.663 63.0095 552.806C53.9186 553.84 44.2634 555.314 36.7758 560.996C28.6105 567.193 25.4448 577.311 26.4554 587.274C29.0119 612.459 52.6058 625.13 75.322 628.595C104.029 632.975 134.163 624.858 162.051 634.979C173.933 639.292 184.88 646.781 190.901 658.157C191.095 658.524 191.651 658.199 191.457 657.832L191.461 657.836Z" fill="#2A2E30"/>
</g>
<g opacity="0.337">
<path d="M213.113 656.481C200.588 635.903 174.139 631.03 151.951 630.69C125.604 630.287 96.2519 634.804 72.6942 619.943C62.7753 613.687 55.6426 604.031 53.7355 592.332C51.9929 581.646 55.4073 570.809 64.939 564.982C80.1078 555.71 101.274 561.195 114.794 548.525C132.451 531.98 118.079 505.537 104.411 491.789C96.085 483.416 86.5958 475.936 79.9331 466.066C71.9213 454.196 71.1389 440.524 71.9126 426.63C72.5549 415.099 73.7678 402.322 80.7414 392.657C88.2393 382.267 100.252 381.748 111.421 378.026C121.442 374.688 127.259 367.227 128.508 356.768C129.993 344.341 126.809 331.05 123.632 319.124C116.319 291.667 103.551 266.115 93.3097 239.714C88.1999 226.54 83.6883 213.095 80.8406 199.235C78.4187 187.446 77.1271 175.286 79.227 163.34C81.0814 152.789 85.73 142.355 94.7178 136.03C105.636 128.345 119.329 128.823 131.631 132.452C157.129 139.974 178.992 161.966 206.826 161.014C218.702 160.608 229.255 154.801 236.186 145.205C243.828 134.625 245.777 121.556 249.775 109.426C250.81 106.284 251.787 102.694 253.732 99.9783C256.076 96.7048 259.837 96.1522 263.445 97.3722C268.863 99.2046 273.336 103.262 277.944 106.499C287.876 113.475 300.308 114.379 311.942 112.008C324.851 109.378 336.353 102.734 347.671 96.2829C358.465 90.1302 369.34 84.3254 381.458 81.251C403.02 75.7792 426.039 77.9483 446.819 85.5249C467.968 93.2368 487.12 106.601 501.286 124.133C518.538 145.486 529.167 171.497 547.64 191.94C555.552 200.694 564.799 208.625 575.517 213.726C580.567 216.13 585.941 217.873 591.497 218.598C597.747 219.413 604.336 218.117 610.435 219.949C621.254 223.2 625.271 235.169 627.083 245.175C628.912 255.282 628.67 265.554 632.034 275.381C634.631 282.967 639.255 290.504 647.534 292.51C648.044 292.633 648.261 291.847 647.751 291.723C637.119 289.148 632.837 277.417 630.839 267.826C628.693 257.53 629.122 246.93 625.891 236.822C623.124 228.168 617.668 220.209 608.149 218.596C601.834 217.526 595.403 218.583 589.068 217.39C583 216.247 577.209 213.922 571.842 210.897C547.67 197.274 533.658 172.498 519.645 149.608C512.834 138.484 505.73 127.389 496.87 117.76C489.53 109.784 481.1 102.817 471.952 97.0102C453.796 85.4832 432.632 78.3938 411.099 77.48C400.519 77.0314 389.855 78.1081 379.629 80.8874C367.89 84.0782 357.32 89.8453 346.811 95.835C334.814 102.672 322.562 109.641 308.714 111.758C301.692 112.831 294.331 112.675 287.536 110.461C281.567 108.515 276.98 104.65 271.916 101.127C268.193 98.5371 263.42 95.2793 258.615 95.9917C253.902 96.6898 252.005 101.023 250.477 105.012C245.617 117.704 244.153 131.803 236.501 143.326C228.146 155.906 214.237 161.697 199.355 159.823C184.474 157.949 170.903 150.377 157.973 143.264C138.755 132.689 111.649 120.636 92.0472 137.059C75.9425 150.551 75.7709 175.072 79.0318 194.023C83.9079 222.362 96.0559 248.653 107.015 275.012C112.47 288.132 117.702 301.38 121.654 315.041C125.384 327.934 129.14 342.353 127.791 355.882C127.163 362.173 124.997 368.405 120.031 372.578C115.469 376.412 109.546 377.865 103.883 379.229C93.5104 381.729 84.1755 385 78.462 394.657C72.8225 404.19 71.7017 415.796 71.0988 426.627C70.392 439.323 70.7918 452.198 77.3428 463.471C83.1224 473.418 92.037 480.98 100.242 488.846C109.448 497.671 117.603 507.634 120.845 520.249C123.901 532.143 120.69 544.824 109.672 551.325C101.577 556.102 91.7843 556.824 82.7194 558.404C74.2015 559.888 65.2641 562.125 59.1106 568.633C52.8028 575.304 51.4419 584.978 53.1586 593.719C57.7536 617.118 80.8988 627.799 102.446 630.683C129.591 634.316 157.887 627.282 184.339 636.229C195.558 640.024 206.142 646.593 212.408 656.889C212.681 657.337 213.387 656.927 213.113 656.477L213.113 656.481Z" fill="#2A2E30"/>
</g>
<g opacity="0.411">
<path d="M234.76 655.124C221.932 636.983 197.55 632.735 176.844 632.356C152.049 631.901 125.244 635.945 102.315 624.009C92.5099 618.905 84.6657 610.974 81.26 600.301C78.3179 591.081 78.872 580.22 86.1478 573.143C98.2887 561.333 118.523 565.868 130.715 553.898C146.915 537.991 134.609 512.904 122.239 498.945C114.863 490.621 106.372 483.048 100.737 473.342C93.9778 461.698 94.014 448.642 95.3033 435.622C96.3966 424.583 98.2706 412.405 105.51 403.533C112.637 394.798 123.294 393.858 133.055 389.795C142.146 386.01 146.925 378.52 147.808 368.827C148.899 356.834 145.717 344.157 142.466 332.716C135.27 307.388 123.21 283.832 113.533 259.433C108.733 247.331 104.497 234.977 101.776 222.228C99.4371 211.266 98.1022 199.983 99.7165 188.816C101.134 179.01 104.907 169.126 112.574 162.512C122.006 154.375 134.742 153.276 146.507 155.794C171.112 161.059 190.88 179.511 216.087 182.839C226.967 184.276 238.302 182.109 246.729 174.738C255.248 167.286 258.21 156.612 262.042 146.39C264.222 140.575 267.039 131.219 274.959 132.761C280.333 133.807 285.01 137.743 289.438 140.727C298.862 147.079 309.681 148.617 320.811 146.859C344.915 143.049 363.838 125.414 387.3 119.539C407.909 114.379 429.783 116.874 449.513 124.313C469.635 131.9 487.913 144.6 502.098 160.756C519.121 180.144 531.169 203.388 548.814 222.283C556.575 230.594 565.38 238.257 575.486 243.588C580.154 246.05 585.128 248.006 590.305 249.078C596.135 250.283 602.358 249.509 608.036 251.364C618.114 254.656 621.894 265.845 623.636 275.288C625.406 284.877 625.186 294.656 628.092 304.05C630.35 311.353 634.372 318.961 642.104 321.452C642.71 321.647 642.969 320.694 642.367 320.5C632.532 317.331 628.977 305.633 627.282 296.525C625.462 286.748 625.76 276.754 622.653 267.2C619.977 258.971 614.818 251.555 605.857 249.783C599.956 248.616 593.935 249.08 588.064 247.536C582.407 246.048 577.054 243.544 572.068 240.509C549.871 227.001 535.4 204.561 520.835 183.747C513.802 173.698 506.592 163.65 497.982 154.871C490.715 147.459 482.563 140.906 473.792 135.358C456.282 124.281 436.031 117.044 415.258 115.957C405.254 115.433 395.147 116.38 385.467 118.997C374.241 122.033 364.047 127.574 353.829 132.986C342.201 139.143 330.167 145.158 316.863 146.368C310.546 146.942 304.046 146.464 298.064 144.247C292.509 142.189 288.019 138.319 283.018 135.262C279.524 133.126 275.103 130.742 270.864 131.843C266.224 133.047 264.312 138.283 262.637 142.236C257.918 153.377 255.561 165.728 246.033 174.042C223.594 193.619 192.685 174.532 171.025 163.829C152.762 154.804 127.713 146.723 110.775 162.817C96.3973 176.478 96.5776 199.315 99.8196 217.365C104.479 243.312 115.697 267.369 126.014 291.426C131.293 303.736 136.398 316.154 140.332 328.97C144.079 341.177 147.687 354.653 146.918 367.533C146.565 373.459 144.929 379.494 140.633 383.806C136.666 387.791 131.269 389.577 126.015 391.167C116.485 394.051 107.939 397.376 102.412 406.185C96.9334 414.919 95.3167 425.546 94.3186 435.623C93.1199 447.725 92.872 460.092 98.4698 471.222C103.348 480.92 111.311 488.534 118.598 496.402C126.707 505.158 133.783 514.96 136.448 526.815C139.021 538.261 135.887 550.324 125.502 556.709C118.236 561.177 109.523 562.241 101.428 564.423C93.9786 566.432 86.5477 569.652 82.2147 576.384C77.4961 583.714 77.8251 593.307 80.55 601.293C87.5048 621.68 109.054 630.218 128.834 632.648C154.83 635.841 181.791 629.53 207.185 637.645C217.553 640.958 227.523 646.593 233.91 655.625C234.274 656.139 235.131 655.647 234.763 655.126L234.76 655.124Z" fill="#2A2E30"/>
</g>
<g opacity="0.485">
<path d="M256.32 653.651C242.965 637.625 219.93 634.262 200.316 633.994C177.051 633.676 152.289 637.053 130.433 627.012C121.106 622.728 113.145 616.057 108.859 606.583C105.274 598.658 104.008 588.366 109.157 580.81C118.064 567.737 137.457 570.272 147.586 558.393C161.326 542.28 150.319 519.181 139.199 505.049C132.706 496.798 125.29 488.987 120.998 479.269C115.982 467.914 117.076 455.442 118.962 443.499C120.57 433.318 123.172 422.413 130.281 414.563C137.281 406.832 147.458 405.772 156.046 400.724C164.321 395.86 167.209 387.167 167.16 377.959C167.099 366.694 164.091 355.225 160.725 344.553C153.462 321.53 142.175 300.08 133.194 277.732C125.01 257.363 117.18 234.135 120.586 211.888C121.983 202.763 125.521 193.661 132.533 187.386C140.99 179.818 152.535 178.118 163.429 179.824C186.595 183.452 205.493 199.328 228.294 204.25C238.435 206.439 249.591 206.385 258.85 201.166C267.503 196.288 271.13 187.967 275.387 179.48C277.9 174.47 281.055 167.418 287.756 168.517C292.86 169.353 297.421 172.877 301.696 175.564C310.62 181.174 320.453 182.839 330.871 181.444C353.767 178.376 372.177 162.472 394.451 157.329C414.059 152.801 434.63 155.866 453.121 163.318C472.156 170.989 489.384 183.223 503.43 198.135C519.645 215.35 532.869 235.15 549.383 252.121C556.915 259.862 565.124 267.148 574.402 272.739C578.817 275.4 583.504 277.672 588.433 279.205C593.546 280.795 598.902 280.805 604.03 282.207C614.092 284.957 618.137 295.162 620.014 304.479C621.876 313.72 621.627 323.215 624.084 332.361C625.981 339.424 629.372 347.288 636.536 350.335C637.214 350.624 637.806 349.626 637.12 349.334C628.314 345.589 625.377 334.584 623.884 326.018C622.274 316.784 622.477 307.377 619.663 298.344C617.115 290.162 612.214 282.914 603.444 280.868C598.143 279.632 592.766 279.463 587.56 277.703C582.318 275.932 577.383 273.334 572.742 270.338C553.002 257.592 538.175 238.334 523.612 220.262C516.234 211.108 508.924 201.804 500.549 193.528C493.396 186.459 485.527 180.1 477.105 174.604C460.616 163.843 441.698 156.201 421.985 154.42C412.421 153.556 402.717 154.142 393.374 156.395C382.573 158.998 372.666 164.062 362.748 168.92C351.596 174.383 340.077 179.696 327.52 180.638C321.775 181.068 315.9 180.61 310.433 178.709C305.135 176.866 300.736 173.371 295.913 170.616C292.555 168.698 288.489 166.628 284.494 167.365C279.88 168.216 277.428 173.166 275.419 176.905C272.921 181.555 271.046 186.546 268.107 190.952C265.264 195.212 261.39 198.685 256.786 200.949C245.41 206.543 232.037 204.698 220.425 200.894C208.623 197.027 197.821 190.886 186.499 185.893C169.068 178.205 146.027 172.479 130.673 187.543C117.461 200.505 117.292 221.598 120.23 238.587C124.384 262.61 134.782 284.847 144.598 306.963C149.587 318.204 154.482 329.511 158.404 341.177C162.295 352.748 165.832 365.249 165.998 377.538C166.071 382.924 165.339 388.601 162.392 393.234C159.477 397.816 154.762 400.423 149.853 402.388C145.463 404.146 140.912 405.546 136.782 407.895C132.714 410.208 129.316 413.433 126.673 417.286C121.006 425.543 118.902 435.747 117.498 445.49C115.879 456.724 115.12 468.254 119.608 478.953C123.442 488.092 130.08 495.591 136.248 503.206C143.455 512.105 149.717 521.803 151.984 533.215C154.108 543.911 151.433 555.173 142.224 561.725C135.769 566.318 127.829 567.806 120.63 570.805C114.317 573.437 108.616 577.618 106.089 584.206C103.211 591.713 104.72 600.396 108.015 607.503C116.621 626.069 138.049 632.941 156.973 634.775C181.19 637.121 206.121 631.972 229.837 638.952C239.541 641.809 248.938 646.594 255.502 654.472C255.98 655.045 256.796 654.221 256.322 653.652L256.32 653.651Z" fill="#2A2E30"/>
</g>
<g opacity="0.558">
<path d="M277.957 652.277C264.158 638.483 242.8 635.826 224.237 635.632C202.621 635.406 180.094 638.147 159.419 630.207C150.246 626.684 141.781 620.965 136.693 612.389C132.618 605.52 130.091 596.389 132.974 588.604C135.591 581.543 142.025 577.931 148.408 574.789C154.458 571.811 160.348 568.63 164.338 562.996C175.918 546.64 165.848 525.117 156.012 510.645C150.538 502.592 144.51 494.633 141.687 485.173C138.419 474.223 140.358 462.541 142.834 451.629C144.957 442.267 148.224 432.565 155.13 425.598C161.618 419.052 170.87 417.363 177.971 411.805C185.29 406.075 186.841 396.92 186.211 388.112C185.45 377.469 182.475 366.868 178.99 356.83C171.757 335.994 161.199 316.541 152.889 296.146C145.22 277.327 138.22 255.909 141.398 235.339C142.721 226.774 146.035 218.256 152.495 212.256C159.802 205.469 169.77 203.176 179.506 203.916C201.029 205.551 219.269 219.01 239.558 225.025C249.194 227.881 259.606 229.37 269.509 226.968C273.437 226.015 277.204 224.36 280.394 221.854C283.426 219.47 285.636 216.386 287.886 213.296C290.83 209.253 294.536 203.617 300.197 204.242C305.153 204.789 309.666 207.997 313.877 210.435C322.587 215.478 331.791 217.137 341.789 215.898C363.168 213.249 380.853 199.233 401.754 194.897C420.98 190.91 440.881 194.94 458.533 202.978C476.61 211.21 492.825 223.413 506.685 237.567C521.961 253.166 536.405 269.502 552.344 284.46C559.679 291.344 567.376 297.973 575.905 303.351C579.955 305.905 584.208 308.162 588.69 309.861C593.404 311.647 598.528 312.068 603.178 313.968C611.779 317.48 615.107 326.995 616.733 335.428C618.423 344.192 618.251 353.173 620.419 361.866C622.06 368.441 624.867 375.768 631.085 379.267C631.833 379.687 632.504 378.538 631.757 378.118C624.169 373.848 621.818 363.642 620.522 355.714C619.07 346.833 619.213 337.805 616.563 329.121C614.349 321.865 610.264 315.095 602.821 312.397C597.954 310.634 592.783 310.104 587.949 308.151C583.195 306.231 578.711 303.664 574.452 300.823C565.469 294.833 557.408 287.548 549.658 280.064C541.698 272.378 533.922 264.501 526.304 256.476C518.762 248.533 511.531 240.256 503.627 232.666C496.523 225.844 488.873 219.577 480.73 214.033C465.104 203.391 447.295 195.184 428.416 192.728C419.176 191.526 409.752 191.784 400.637 193.777C390.234 196.053 380.59 200.708 370.932 205.044C360.538 209.711 349.807 214.179 338.297 214.897C332.684 215.247 326.951 214.733 321.639 212.803C316.848 211.061 312.685 208.001 308.179 205.675C304.918 203.991 301.019 202.225 297.26 203.018C293.143 203.886 290.239 207.968 287.845 211.124C285.294 214.486 283.027 218.071 279.686 220.73C275.796 223.824 271.013 225.512 266.144 226.279C243.069 229.91 222.279 215.898 201.681 208.025C185.208 201.729 164.294 198.332 150.579 212.261C138.382 224.649 138.014 244.256 140.734 260.32C144.458 282.308 153.994 302.633 163.237 322.735C172.644 343.193 183.052 364.92 184.847 387.702C185.244 392.748 185.085 398.062 183.186 402.821C181.322 407.492 177.694 410.821 173.379 413.234C169.476 415.417 165.266 416.992 161.384 419.217C157.573 421.401 154.257 424.205 151.548 427.672C145.774 435.059 143.004 444.316 141.096 453.358C138.93 463.624 137.317 474.456 140.179 484.748C142.785 494.115 148.519 502.063 153.943 509.972C159.844 518.573 165.031 527.606 167.177 537.936C169.237 547.846 167.773 558.405 160.271 565.728C155.133 570.744 148.259 572.97 142.188 576.545C136.486 579.902 131.957 584.94 130.801 591.63C129.51 599.103 131.865 606.991 135.73 613.367C145.647 629.731 166.134 635.284 184.036 636.744C206.531 638.578 229.52 634.368 251.665 639.998C260.972 642.364 270.142 646.346 277.016 653.217C277.623 653.824 278.564 652.883 277.957 652.276L277.957 652.277Z" fill="#2A2E30"/>
</g>
<g opacity="0.632">
<path d="M299.594 650.907C285.33 639.329 265.535 637.346 247.843 637.264C227.526 637.17 206.49 639.437 186.905 632.661C178.299 629.684 169.968 624.875 164.478 617.45C160.014 611.412 156.783 603.474 157.766 595.848C158.646 589.017 163.283 584.397 168.524 580.459C173.55 576.683 178.332 572.829 181.329 567.163C190.029 550.71 181.6 531.475 173.398 516.662C168.783 508.328 164.019 499.878 162.731 490.286C161.363 480.113 163.972 469.57 166.964 459.897C169.616 451.322 173.507 442.704 180.186 436.495C186.286 430.824 194.902 428.344 200.335 421.92C205.923 415.314 206.122 406.257 205.009 398.083C203.676 388.287 200.766 378.7 197.256 369.484C190.016 350.475 179.997 332.693 172.287 313.887C165.105 296.366 158.899 276.269 162.483 257.178C163.959 249.317 167.317 241.658 173.387 236.268C180.323 230.11 189.578 227.896 198.671 228.361C218.718 229.387 236.284 240.881 255.013 246.816C264.076 249.688 273.506 251.473 283.045 251.023C289.949 250.697 295.822 248.785 301.506 244.912C305.14 242.436 308.993 239.276 313.655 240.052C318.009 240.777 322.002 243.252 325.846 245.285C329.733 247.341 333.626 249.104 337.972 249.95C342.622 250.856 347.407 250.923 352.11 250.425C372.373 248.277 389.557 235.721 409.464 232.192C428.024 228.903 446.835 233.916 463.36 242.336C480.438 251.037 495.598 263.168 509.4 276.366C516.795 283.437 524.183 290.462 531.996 297.074C539.539 303.458 547.174 309.726 554.68 316.152C561.876 322.311 569.145 328.443 577.014 333.736C580.749 336.248 584.629 338.577 588.716 340.475C592.84 342.389 597.406 343.322 601.422 345.431C608.874 349.344 611.817 357.919 613.319 365.687C614.913 373.924 614.81 382.365 616.567 390.583C617.938 396.997 620.191 404.084 625.634 408.205C626.405 408.789 627.155 407.484 626.393 406.907C619.938 402.021 618.155 392.368 617.071 384.852C615.869 376.512 615.89 368.076 613.477 359.931C611.392 352.889 607.59 346.401 600.598 343.389C596.254 341.517 591.713 340.352 587.467 338.201C583.271 336.076 579.29 333.543 575.447 330.837C567.272 325.081 559.722 318.497 552.139 312C544.445 305.408 536.531 299.078 528.882 292.434C514.046 279.549 500.72 265.192 484.69 253.691C469.598 242.863 452.499 233.758 433.99 230.72C425.484 229.324 416.787 229.281 408.305 230.883C398.256 232.782 388.852 236.99 379.441 240.843C369.62 244.864 359.499 248.693 348.78 249.179C343.706 249.409 338.554 248.925 333.729 247.274C329.185 245.718 325.126 243.04 320.804 240.993C317.686 239.516 314.16 238.022 310.633 238.475C306.786 238.97 303.377 241.832 300.265 243.944C293.6 248.471 286.404 249.747 278.402 249.564C257.16 249.079 238.915 237.904 219.331 231.218C203.747 225.898 184.616 223.514 171.599 235.876C159.917 246.967 158.722 264.986 160.917 279.986C163.92 300.507 172.716 319.425 181.561 337.976C190.532 356.793 199.99 375.934 203.3 396.724C204.819 406.262 204.56 416.769 196.639 423.483C193.367 426.257 189.466 428.164 185.843 430.42C182.187 432.698 178.844 435.354 176.066 438.665C170.531 445.265 167.252 453.422 164.884 461.617C162.197 470.917 159.928 480.873 161.262 490.59C162.527 499.805 166.884 508.006 171.331 516.032C176.043 524.536 180.417 533.147 182.415 542.745C184.365 552.115 183.666 561.903 177.889 569.846C174.046 575.13 168.346 578.235 163.571 582.523C159.043 586.591 156.167 592.057 156.105 598.216C156.032 605.372 158.979 612.519 163.182 618.209C173.764 632.533 192.876 637.296 209.741 638.593C231.085 640.232 252.779 636.587 273.889 641.148C282.689 643.048 291.474 646.241 298.532 651.971C299.277 652.575 300.346 651.518 299.595 650.908L299.594 650.907Z" fill="#2A2E30"/>
</g>
<g opacity="0.705">
<path d="M321.059 649.401C306.19 639.955 287.433 638.789 270.308 638.888C251.384 638.997 231.886 640.67 213.574 634.774C198.908 630.052 183.758 618.471 183.089 601.707C182.836 595.38 185.749 590.152 189.553 585.353C193.545 580.317 197.046 575.267 198.934 569.04C204.153 551.815 195.63 534.434 189.457 518.727C186.122 510.242 183.81 501.457 184.762 492.27C185.722 483.017 188.879 473.627 192.759 465.205C196.435 457.226 201.435 450.168 208.39 444.734C214.196 440.196 220.556 436.227 223.238 428.979C226.122 421.188 224.606 412.262 222.781 404.412C220.688 395.403 217.442 386.732 213.721 378.279C206.179 361.144 196.682 344.9 189.985 327.388C183.912 311.507 179.373 292.85 184.407 276.06C186.67 268.515 191.126 261.844 197.894 257.656C204.969 253.278 213.371 252.215 221.533 252.951C239.952 254.612 256.51 264.292 273.925 269.698C282.429 272.338 291.092 274.007 299.905 275.205C305.581 275.976 311.742 277.27 317.46 276.512C319.425 276.252 321.36 275.701 323.336 275.545C325.353 275.386 327.318 275.837 329.221 276.472C333.449 277.88 337.342 280.139 341.423 281.903C349.215 285.271 357.646 285.736 365.979 284.511C385.017 281.71 401.785 270.303 421.114 268.839C437.788 267.577 453.89 273.393 468.149 281.603C483.028 290.169 496.3 301.248 509.186 312.512C516.103 318.56 523.023 324.496 530.611 329.699C538.328 334.989 546.351 339.814 553.852 345.418C560.882 350.67 567.636 356.279 574.648 361.554C581.538 366.737 588.598 371.127 596.299 374.982C612.293 382.988 610.103 403.168 612.552 418.154C613.622 424.706 615.291 432.037 620.012 437.003C620.756 437.785 621.939 436.6 621.196 435.819C615.657 429.993 614.381 420.585 613.513 412.941C612.631 405.171 612.444 397.358 610.127 389.821C609.071 386.386 607.615 383.016 605.447 380.131C603.082 376.982 599.97 374.911 596.462 373.202C588.742 369.441 581.726 364.823 574.881 359.646C567.606 354.143 560.596 348.294 553.242 342.894C545.526 337.229 537.267 332.366 529.444 326.856C521.621 321.345 514.587 314.966 507.375 308.724C500.926 303.143 494.367 297.681 487.547 292.557C474.239 282.558 459.593 273.479 443.327 269.286C435.645 267.306 427.639 266.504 419.731 267.285C410.476 268.2 401.683 271.316 393.027 274.554C383.645 278.064 374.192 281.871 364.173 283.078C359.331 283.661 354.362 283.683 349.563 282.743C345.045 281.858 340.973 279.901 336.848 277.932C333.366 276.27 329.708 274.419 325.832 273.941C322.171 273.49 318.621 274.919 314.979 275.07C312.196 275.185 309.424 274.664 306.667 274.354C302.7 273.909 298.747 273.391 294.803 272.77C285.626 271.326 276.689 269.062 267.934 265.937C258.717 262.647 249.774 258.603 240.487 255.506C225.784 250.602 208.071 247.872 194.747 257.776C182.702 266.729 179.726 282.854 180.889 296.993C182.431 315.747 190.042 333.255 198.199 349.969C206.591 367.166 215.98 384.173 220.68 402.856C222.858 411.515 225.068 422.158 220.733 430.524C216.972 437.785 209.164 441.363 203.408 446.77C197.317 452.491 193.088 459.917 189.909 467.571C186.466 475.861 183.567 484.841 182.948 493.842C181.69 512.128 193.083 527.747 197.114 544.989C199.317 554.412 199.692 564.112 195.645 573.101C193.144 578.656 188.965 582.888 185.595 587.864C177.958 599.142 182.122 612.974 190.534 622.597C201.667 635.333 219.966 639.379 236.114 640.48C256.208 641.851 276.521 638.791 296.475 642.332C304.784 643.806 313.044 646.294 320.211 650.848C321.124 651.427 321.964 649.979 321.057 649.402L321.059 649.401Z" fill="#2A2E30"/>
</g>
<g opacity="0.779">
<path d="M342.68 648.02C310.542 632.942 273.76 646.741 240.529 636.946C226.061 632.682 212.05 622.911 208.501 607.4C207.185 601.648 208.16 595.9 210.119 590.43C212.401 584.059 214.738 577.859 215.656 571.103C217.973 554.077 210.561 537.911 207.407 521.539C205.675 512.549 206 503.687 208.669 494.916C211.143 486.791 214.765 478.871 219.275 471.673C221.593 467.97 224.192 464.438 227.142 461.212C229.789 458.316 232.754 455.743 235.501 452.947C240.554 447.804 243.694 441.867 244.022 434.573C244.399 426.153 242.065 417.574 239.382 409.674C236.67 401.69 233.092 394.018 229.314 386.492C221.508 370.94 212.457 355.767 207.294 339.051C202.768 324.393 200.316 306.571 208.226 292.567C211.92 286.027 218 281.195 225.131 278.877C232.577 276.457 240.634 276.709 248.26 278.075C256.529 279.557 264.47 282.392 272.324 285.305C280.858 288.471 289.367 291.624 298.059 294.336C305.447 296.642 313.266 298.429 319.926 302.528C322.345 304.018 324.352 306.011 326.662 307.645C329.227 309.46 332.103 310.316 335.2 310.692C343.45 311.694 350.319 316.397 358.28 318.408C366.322 320.44 374.872 319.719 382.876 317.874C399.763 313.984 415.641 305.041 433.398 305.865C448.074 306.547 461.634 313.178 473.665 321.187C486.299 329.598 497.672 339.705 509.383 349.314C515.731 354.522 522.175 359.585 529.379 363.573C537.109 367.852 545.385 371.057 553.033 375.494C567.086 383.646 578.794 395.128 592.202 404.208C595.748 406.609 599.183 408.922 601.552 412.583C603.617 415.775 604.907 419.397 605.822 423.07C607.722 430.705 607.761 438.572 608.748 446.339C609.586 452.934 610.734 460.051 614.405 465.741C615.047 466.736 616.646 465.811 615.999 464.809C611.844 458.371 610.902 449.972 610.166 442.52C609.4 434.758 609.126 426.939 606.714 419.45C605.656 416.166 604.217 412.96 602.125 410.198C599.845 407.186 596.832 405.098 593.731 403.016C586.86 398.403 580.464 393.123 573.952 388.027C567.441 382.931 560.813 377.829 553.614 373.699C545.724 369.174 537.194 365.904 529.29 361.407C515.307 353.449 503.549 341.805 491.049 331.792C479.51 322.549 467.291 313.641 453.375 308.338C446.891 305.867 440.042 304.287 433.095 304.006C424.891 303.674 416.864 305.367 409.055 307.749C391.885 312.987 373.484 322.01 355.356 315.581C351.39 314.174 347.619 312.286 343.686 310.798C342.006 310.163 340.29 309.589 338.519 309.269C336.671 308.935 334.781 308.893 332.947 308.466C329.41 307.643 326.935 305.525 324.185 303.309C322 301.549 319.626 300.11 317.087 298.915C309.663 295.424 301.536 293.558 293.76 291.032C284.816 288.126 276.094 284.632 267.232 281.496C253.104 276.497 236.531 271.993 222 278.083C208.353 283.802 202.05 297.374 201.379 311.517C200.575 328.443 206.614 344.991 213.771 360.04C221.386 376.054 230.806 391.29 236.852 408.021C239.805 416.194 242.417 425.102 242.201 433.87C242.094 438.225 241.061 442.373 238.741 446.087C236.729 449.308 233.951 451.939 231.22 454.54C219.153 466.035 210.422 480.793 206.17 496.961C203.993 505.238 204.015 513.655 205.629 522.03C207.286 530.633 210.178 538.942 212.038 547.501C213.971 556.393 215.037 565.455 213.222 574.454C211.953 580.745 209.311 586.484 207.456 592.585C203.664 605.053 208.523 617.584 217.619 626.467C229.087 637.668 246.183 641.293 261.642 642.314C280.347 643.551 299.146 641.068 317.804 643.306C326.004 644.29 334.244 646.094 341.751 649.615C342.821 650.117 343.759 648.526 342.683 648.022L342.68 648.02Z" fill="#2A2E30"/>
</g>
<g opacity="0.853">
<path d="M364.056 646.527C332.159 636.56 298.051 647.887 266.099 638.68C251.988 634.614 238.94 625.778 233.409 611.672C228.418 598.945 231.838 585.742 231.708 572.563C231.548 556.163 226.355 540.127 227.102 523.695C227.89 506.329 237.13 490.823 247.525 477.407C251.897 471.765 257.248 466.535 260.428 460.073C263.757 453.308 263.867 445.923 262.562 438.618C259.706 422.638 251.627 408.168 243.891 394.118C235.978 379.745 227.897 365.112 225.027 348.76C222.651 335.226 223.801 319.132 234.699 309.379C245.853 299.398 261.917 300.174 275.531 303.523C283.888 305.579 291.965 308.612 300.034 311.568C307.686 314.37 315.634 316.858 322.883 320.627C329.368 323.999 333.743 328.823 337.57 334.922C339.264 337.621 341.04 340.337 343.493 342.418C346.096 344.626 349.087 345.679 352.252 346.8C359.405 349.336 366.163 352.844 373.789 353.785C381.9 354.785 390.091 353.444 397.927 351.366C413.479 347.243 428.859 340.311 445.281 343.403C457.976 345.793 469.18 352.91 479.22 360.737C489.724 368.927 499.344 378.178 509.782 386.447C515.396 390.895 521.242 395.154 527.759 398.192C535.249 401.682 543.347 403.376 551.087 406.178C565.901 411.542 577.909 422.447 589.272 433.002C592.18 435.703 595.278 438.322 597.549 441.608C599.556 444.51 600.899 447.823 601.874 451.199C604.014 458.614 604.272 466.296 604.955 473.93C605.57 480.8 606.306 487.921 608.82 494.397C609.285 495.595 611.236 495.074 610.765 493.86C605.19 479.496 608.119 463.427 603.266 448.879C602.235 445.789 600.869 442.768 598.96 440.117C596.692 436.969 593.752 434.412 590.925 431.785C585.391 426.641 579.784 421.564 573.795 416.95C567.604 412.181 561.011 407.907 553.719 405.024C545.642 401.83 537.009 400.233 529.098 396.595C516.03 390.588 505.216 380.166 494.465 370.839C484.493 362.188 474.288 353.388 462.46 347.346C456.887 344.499 450.947 342.305 444.761 341.268C437.546 340.059 430.296 340.57 423.168 342.094C406.34 345.692 389.648 354.636 372.004 351.494C368.062 350.791 364.289 349.397 360.581 347.921C357.021 346.505 353.427 345.213 349.854 343.841C342.72 341.102 340.177 334.389 335.85 328.738C331.471 323.019 325.536 319.403 318.987 316.614C311.249 313.318 303.263 310.579 295.359 307.71C281.23 302.582 265.845 297.331 250.609 299.846C244.016 300.935 237.751 303.77 232.842 308.345C227.994 312.865 224.891 318.932 223.335 325.324C219.708 340.214 223.532 356.153 229.38 369.944C235.788 385.054 244.814 398.843 251.872 413.632C255.547 421.332 258.647 429.359 260.348 437.742C262.033 446.046 261.763 454.294 257.236 461.667C253.153 468.318 247.457 473.968 242.863 480.272C237.936 487.032 233.527 494.213 230.218 501.911C226.887 509.66 225.09 517.791 225.017 526.235C224.946 534.57 226.34 542.825 227.546 551.046C228.751 559.267 229.949 567.581 229.649 575.898C229.399 582.789 228.441 589.671 228.541 596.573C228.729 609.669 234.53 621.774 244.637 630.138C256.373 639.851 272.252 643.165 287.088 644.131C304.724 645.28 322.394 643.2 340.03 644.407C347.973 644.95 355.906 646.092 363.521 648.471C364.763 648.859 365.295 646.912 364.058 646.525L364.056 646.527Z" fill="#2A2E30"/>
</g>
<g opacity="0.926">
<path d="M385.656 645.135C369.65 642.502 353.407 643.33 337.275 643.862C321.539 644.383 305.413 644.579 290.187 639.988C275.936 635.692 263.932 626.887 256.554 613.847C253.42 608.306 251.159 602.374 249.783 596.161C248.237 589.182 247.825 582.063 247.196 574.964C245.781 559.012 244.283 542.635 248.722 527.004C250.879 519.407 254.426 512.32 258.839 505.789C263.192 499.349 268.412 493.566 273.016 487.314C277.185 481.655 280.838 475.538 282.191 468.553C283.642 461.066 282.427 453.407 280.297 446.17C276.026 431.659 267.692 418.869 260.216 405.87C252.546 392.535 245.525 378.395 244.846 362.731C244.254 349.068 249.259 335.285 262.119 328.925C274.872 322.617 290.303 325.343 303.345 329.189C310.954 331.433 318.523 334.154 325.79 337.338C332.68 340.358 339.373 344.057 343.906 350.242C347.914 355.71 349.947 362.171 352.782 368.251C355.65 374.399 359.581 379.226 365.68 382.356C372.29 385.748 379.451 388.195 386.907 388.631C394.788 389.093 402.601 387.566 410.181 385.555C424.86 381.661 439.814 376.239 454.991 380.885C466.055 384.273 475.348 391.704 483.762 399.395C492.523 407.403 500.652 416.135 509.958 423.534C514.815 427.396 519.98 430.936 525.693 433.412C533.081 436.616 540.924 437.272 548.797 438.438C556.477 439.576 563.498 441.939 570.046 446.152C576.081 450.034 581.421 454.96 586.163 460.324C591.051 465.854 595.47 471.765 597.781 478.851C600.176 486.196 600.785 493.898 601.275 501.559C601.739 508.814 602.119 516.102 603.33 523.279C603.564 524.665 605.675 524.077 605.441 522.697C602.882 507.541 604.706 491.461 599.396 476.822C596.979 470.16 592.727 464.513 588.102 459.221C583.333 453.764 577.953 448.775 571.908 444.757C565.65 440.598 558.835 437.905 551.427 436.65C543.281 435.269 534.98 434.919 527.255 431.711C515.577 426.861 506.083 417.703 497.1 409.069C488.472 400.775 479.969 392.098 469.856 385.581C465.152 382.549 460.065 380.038 454.669 378.505C448.019 376.617 441.129 376.439 434.306 377.4C417.931 379.707 402.438 387.824 385.581 386.343C381.47 385.982 377.446 384.921 373.586 383.485C369.964 382.136 366.172 380.51 363.017 378.246C357.132 374.022 354.553 366.997 351.859 360.577C349.249 354.357 346.118 348.342 340.99 343.808C335.503 338.957 328.523 335.986 321.783 333.33C307.877 327.85 292.882 322.53 277.715 323.09C264.638 323.574 252.13 329.674 246.399 341.932C240.347 354.879 242.192 370.403 246.866 383.467C252.006 397.836 260.716 410.552 268.067 423.82C271.909 430.753 275.426 437.882 277.794 445.466C280.233 453.274 281.703 461.637 279.695 469.709C277.84 477.163 273.296 483.52 268.632 489.481C263.804 495.652 258.697 501.601 254.62 508.317C250.542 515.034 247.463 522.298 245.699 529.967C243.936 537.636 243.433 545.502 243.586 553.337C243.747 561.549 244.576 569.722 245.26 577.902C245.848 584.936 246.428 591.969 248.167 598.834C251.411 611.637 258.567 623.521 268.989 631.732C280.758 641.004 295.874 644.646 310.548 645.816C327.451 647.163 344.394 645.361 361.312 645.48C369.259 645.536 377.225 645.952 385.074 647.244C386.452 647.47 387.045 645.361 385.656 645.133L385.656 645.135Z" fill="#2A2E30"/>
</g>
<path d="M406.938 643.691C390.82 643.296 374.761 644.995 358.668 645.578C342.845 646.152 326.664 645.658 311.567 640.401C284.912 631.117 265.482 605.978 262.496 577.972C260.927 563.251 263.687 548.168 269.996 534.799C273.099 528.221 277.035 522.023 281.74 516.474C286.712 510.609 292.768 505.63 296.935 499.103C304.946 486.554 303.459 470.613 298.509 457.223C293.042 442.436 283.101 429.943 275.489 416.276C268.597 403.902 263.588 389.652 266.324 375.325C267.574 368.782 270.521 362.678 275.375 358.052C280 353.643 285.925 351.003 292.162 349.826C305.25 347.357 319.112 350.611 331.392 355.137C338.393 357.717 345.54 360.771 351.069 365.921C355.859 370.381 358.758 376.237 360.919 382.328C364.905 393.566 366.838 406.734 375.929 415.281C386.241 424.977 401.637 424.412 414.563 421.664C430.062 418.369 446.014 411.606 461.813 417.285C471.966 420.934 480.014 428.67 487.199 436.442C494.665 444.518 501.524 453.255 509.918 460.419C513.892 463.81 518.218 466.848 523.001 468.987C528.783 471.572 534.839 472.573 541.159 472.555C549.365 472.531 557.644 471.447 565.585 474.124C571.935 476.265 577.496 480.309 581.999 485.219C592.491 496.66 596.456 511.976 597.534 527.119C598.12 535.347 597.964 543.603 597.796 551.843C597.764 553.362 600.125 553.362 600.157 551.843C600.501 535.039 600.872 517.468 594.704 501.53C589.939 489.217 580.913 477.824 568.47 472.697C561.036 469.633 553.231 469.843 545.341 470.105C538.173 470.342 531.195 469.986 524.542 467.102C514.437 462.722 506.576 454.508 499.33 446.464C491.877 438.188 484.78 429.402 475.903 422.575C471.698 419.341 467.098 416.629 462.077 414.879C455.04 412.427 447.569 412.279 440.248 413.322C424.409 415.577 409 423.125 392.696 420.577C385.781 419.496 379.454 416.34 375.029 410.832C371.042 405.869 368.876 399.715 366.994 393.716C365.109 387.712 363.482 381.6 360.853 375.862C357.99 369.612 353.763 364.419 348.056 360.546C342.09 356.497 335.156 353.836 328.348 351.57C321.869 349.414 315.187 347.817 308.392 347.078C295.78 345.708 282.065 347.744 272.857 357.22C263.3 367.056 261.814 381.673 264.402 394.58C270.583 425.421 301.519 447.158 300.214 480.193C299.906 488.001 297.29 495.27 292.399 501.378C287.516 507.474 281.563 512.575 276.854 518.837C268.029 530.576 262.322 544.629 260.406 559.185C256.708 587.28 268.739 615.92 291.674 632.678C318.192 652.055 352.326 648.315 383.165 646.606C391.082 646.168 399.009 645.859 406.939 646.054C408.459 646.091 408.458 643.73 406.939 643.693L406.938 643.691Z" fill="#2A2E30"/>
</svg>
