<svg width="14" height="13" viewBox="0 0 14 13" fill="none" xmlns="http://www.w3.org/2000/svg">
<path fill-rule="evenodd" clip-rule="evenodd" d="M6.6088 0.231445C3.01786 0.231445 0.128906 3.1204 0.128906 6.71134C0.128906 9.5733 1.99188 12.0033 4.55684 12.8672C4.88083 12.9212 4.98883 12.7322 4.98883 12.5432C4.98883 12.3813 4.98883 11.9763 4.98883 11.4363C3.17986 11.8413 2.80186 10.5723 2.80186 10.5723C2.50487 9.81629 2.07287 9.6273 2.07287 9.6273C1.47888 9.2223 2.12687 9.2223 2.12687 9.2223C2.77486 9.2763 3.12586 9.89729 3.12586 9.89729C3.69285 10.8963 4.63783 10.5993 5.01583 10.4373C5.06983 10.0053 5.23182 9.73529 5.42082 9.5733C3.98984 9.4113 2.47787 8.84431 2.47787 6.36035C2.47787 5.65836 2.72086 5.06437 3.15286 4.63237C3.09886 4.47038 2.85586 3.82239 3.20686 2.9044C3.20686 2.9044 3.74685 2.7424 4.98883 3.57939C5.50182 3.44439 6.06881 3.36339 6.6088 3.36339C7.14879 3.36339 7.71578 3.44439 8.22878 3.57939C9.47076 2.7424 10.0107 2.9044 10.0107 2.9044C10.3617 3.79539 10.1457 4.44338 10.0647 4.63237C10.4697 5.09137 10.7397 5.65836 10.7397 6.36035C10.7397 8.84431 9.22776 9.3843 7.76978 9.5463C8.01278 9.73529 8.20178 10.1403 8.20178 10.7343C8.20178 11.5983 8.20178 12.3003 8.20178 12.5162C8.20178 12.6782 8.30977 12.8942 8.66077 12.8402C11.2257 12.0033 13.0887 9.5733 13.0887 6.71134C13.0887 3.1204 10.1997 0.231445 6.6088 0.231445Z" fill="white"/>
</svg>
