<svg width="24" height="22" viewBox="0 0 24 22" fill="none" xmlns="http://www.w3.org/2000/svg">
<path d="M23.2969 0.40625C22.9086 0.40625 22.5938 0.721063 22.5938 1.10938V2.76889C22.5781 2.75811 22.5624 2.74733 22.5467 2.73645C21.9503 2.32536 21.2745 1.85947 20.4727 1.85947C19.738 1.85947 19.1506 2.31022 18.6324 2.70795C18.2751 2.98222 17.9057 3.26572 17.6484 3.26572C17.3912 3.26572 17.0217 2.98217 16.6644 2.70795C16.1462 2.31027 15.5589 1.85947 14.8242 1.85947C14.0895 1.85947 13.5022 2.31022 12.984 2.70795C12.6267 2.98217 12.2572 3.26572 12 3.26572C11.7428 3.26572 11.3733 2.98217 11.016 2.70795C10.4978 2.31027 9.91045 1.85947 9.17578 1.85947C8.44111 1.85947 7.85377 2.31022 7.33556 2.70795C6.97823 2.98222 6.60881 3.26572 6.35156 3.26572C6.09431 3.26572 5.72484 2.98217 5.36752 2.70795C4.84931 2.31027 4.26202 1.85947 3.52734 1.85947C2.72555 1.85947 2.04966 2.32536 1.45331 2.73645C1.43756 2.74733 1.42191 2.75806 1.40625 2.76889V1.10938C1.40625 0.721063 1.09144 0.40625 0.703125 0.40625C0.314812 0.40625 0 0.721063 0 1.10938V20.8907C0 21.279 0.314812 21.5938 0.703125 21.5938H23.2969C23.6852 21.5938 24 21.279 24 20.8907V1.10938C24 0.721063 23.6852 0.40625 23.2969 0.40625ZM13.2372 16.2685C13.5118 15.9939 13.957 15.9939 14.2316 16.2685C14.5062 16.543 14.5062 16.9882 14.2316 17.2628L12.5206 18.9738C12.3833 19.1111 12.2034 19.1797 12.0235 19.1797C12.0196 19.1797 12.0157 19.1792 12.0118 19.1792C12.0079 19.1792 12.0039 19.1797 12 19.1797C11.8201 19.1797 11.6401 19.1111 11.5029 18.9738L9.79195 17.2628C9.51736 16.9883 9.51736 16.5431 9.79195 16.2685C10.0665 15.9939 10.5117 15.9939 10.7863 16.2685L11.2969 16.7791V8.47831L10.7862 8.98897C10.6489 9.12627 10.469 9.19494 10.2891 9.19494C10.1092 9.19494 9.92916 9.12627 9.79191 8.98897C9.51731 8.71442 9.51731 8.2692 9.79191 7.99461L11.5028 6.28367C11.6431 6.14342 11.8279 6.07527 12.0117 6.07831C12.1956 6.07527 12.3803 6.14342 12.5206 6.28367L14.2315 7.99461C14.5061 8.26916 14.5061 8.71438 14.2315 8.98897C14.0942 9.12627 13.9143 9.19494 13.7344 9.19494C13.5545 9.19494 13.3745 9.12627 13.2372 8.98897L12.7031 8.45488V16.8026L13.2372 16.2685Z" fill="#7A7A7A"/>
</svg>
