<svg width="20" height="20" viewBox="0 0 20 20" fill="none" xmlns="http://www.w3.org/2000/svg">
<path d="M19.4571 5.99573L5.99561 19.4572C5.27307 20.1806 4.09497 20.1817 3.37048 19.4572L0.543682 16.6304C-0.181227 15.9055 -0.181227 14.7302 0.543682 14.0053L1.35114 13.1978C1.48131 13.0676 1.69236 13.0676 1.82258 13.1978L3.05776 14.433C3.18685 14.5621 3.39886 14.5752 3.53174 14.45C3.66925 14.3206 3.6717 14.1041 3.53907 13.9715L2.29401 12.7264C2.16384 12.5963 2.16384 12.3852 2.29401 12.255L4.0771 10.4719C4.20727 10.3417 4.41837 10.3417 4.54854 10.4719L6.46667 12.39C6.53176 12.4552 6.61705 12.4877 6.70239 12.4877C6.99661 12.4877 7.14879 12.1292 6.93811 11.9186L5.01998 10.0005C4.8898 9.87029 4.8898 9.6592 5.01998 9.52902L6.80306 7.74594C6.93323 7.61577 7.14429 7.61577 7.2745 7.74594L8.51956 8.991C8.58465 9.05608 8.66994 9.08863 8.75528 9.08863C9.0495 9.08863 9.20167 8.73019 8.991 8.51956L7.74594 7.2745C7.61577 7.14433 7.61577 6.93323 7.74594 6.80306L9.52902 5.01998C9.6592 4.8898 9.87025 4.8898 10.0005 5.01998L11.9186 6.93811C11.9837 7.0032 12.069 7.03574 12.1543 7.03574C12.4485 7.03574 12.6007 6.6773 12.39 6.46667L10.4719 4.54854C10.3417 4.41836 10.3417 4.20727 10.4719 4.0771L12.255 2.29401C12.3852 2.16384 12.5963 2.16384 12.7264 2.29401L13.9715 3.53907C14.0366 3.60416 14.1219 3.6367 14.2072 3.6367C14.5014 3.6367 14.6536 3.27827 14.4429 3.06763L13.1979 1.82258C13.0677 1.6924 13.0677 1.48131 13.1979 1.35114L14.0053 0.543682C14.7302 -0.181227 15.9055 -0.181227 16.6304 0.543682L19.4572 3.37048C20.1809 4.09439 20.1809 5.27195 19.4571 5.99573Z" fill="#7A7A7A"/>
</svg>
