<svg width="21" height="24" viewBox="0 0 21 24" fill="none" xmlns="http://www.w3.org/2000/svg">
<path d="M10.5725 0.193648L1.14397 5.69351C1.01164 5.76991 0.929997 5.91099 0.929688 6.06379V17.9352C0.929997 18.088 1.01164 18.2291 1.14397 18.3055L10.5725 23.8054C10.706 23.8833 10.8711 23.8833 11.0045 23.8054L20.4331 18.3055C20.5654 18.2291 20.6471 18.088 20.6474 17.9352V6.06379C20.6471 5.91099 20.5654 5.76991 20.4331 5.69351L11.0011 0.193648C10.8685 0.117091 10.7051 0.117091 10.5725 0.193648V0.193648ZM19.744 17.3365C19.6798 17.4647 19.5558 17.5524 19.4135 17.5701L15.985 17.9987C15.9666 18.0004 15.9481 18.0009 15.9297 17.9999C15.7038 17.9992 15.5172 17.8233 15.5033 17.5978C15.4894 17.3723 15.6529 17.1747 15.877 17.1462L17.8668 16.8972L12.3987 13.8252C11.997 14.2984 11.4077 14.5711 10.787 14.5711C10.1664 14.5711 9.57709 14.2984 9.1754 13.8252L3.7154 16.8985L5.69669 17.1462C5.92079 17.1747 6.08428 17.3723 6.07036 17.5978C6.05644 17.8233 5.86988 17.9992 5.64397 17.9999C5.62606 18.0001 5.60816 17.9989 5.5904 17.9965L2.16183 17.5679C2.01927 17.5502 1.89505 17.4623 1.83101 17.3337C1.76698 17.2051 1.77163 17.053 1.8434 16.9285L3.55769 13.9285C3.63164 13.7917 3.77391 13.7057 3.92943 13.7037C4.08495 13.7018 4.2293 13.7843 4.30661 13.9193C4.38391 14.0542 4.38203 14.2205 4.30169 14.3537L3.26626 16.1661L8.7554 13.0782C8.68464 12.8688 8.64704 12.6496 8.64397 12.4285C8.64526 11.4106 9.36122 10.5335 10.3583 10.3285V3.05179L8.99283 4.96322C8.90387 5.08786 8.75518 5.15556 8.60276 5.14084C8.45035 5.12612 8.31736 5.0312 8.25391 4.89184C8.19045 4.75248 8.20616 4.58985 8.29512 4.46522L10.438 1.46522C10.4435 1.45751 10.453 1.45493 10.459 1.44808C10.537 1.3458 10.6582 1.28577 10.7868 1.28577C10.9155 1.28577 11.0367 1.3458 11.1147 1.44808C11.1207 1.45493 11.1301 1.45751 11.1357 1.46522L13.2785 4.46522C13.4161 4.65789 13.3714 4.92556 13.1787 5.06308C12.986 5.2006 12.7184 5.15589 12.5808 4.96322L11.2154 3.05179V10.3285C12.2124 10.5335 12.9284 11.4106 12.9297 12.4285C12.9267 12.6494 12.8891 12.8685 12.8183 13.0778L18.304 16.1597L17.272 14.3571C17.1916 14.2239 17.1898 14.0577 17.2671 13.9227C17.3444 13.7877 17.4887 13.7052 17.6442 13.7072C17.7998 13.7091 17.942 13.7951 18.016 13.9319L19.7303 16.9319C19.8015 17.0554 19.8066 17.2063 19.744 17.3344V17.3365Z" fill="#7A7A7A"/>
</svg>
