<svg width="268" height="205" viewBox="0 0 268 205" fill="none" xmlns="http://www.w3.org/2000/svg">
<g opacity="0.19">
<path d="M443.135 94.5069C425.211 100.133 418.787 120.004 416.553 136.726C414.007 155.791 414.158 179.652 397.258 192.591C390.607 197.683 381.22 199.494 373.218 196.863C365.217 194.231 360.943 187.187 360.009 179.135C359.132 171.574 360.473 163.975 360.566 156.408C360.644 150.075 359.81 143.372 355.346 138.519C350.166 132.888 342.325 132.079 335.233 133.889C326.986 135.995 320.357 140.993 314.323 146.791C307.894 152.968 301.774 159.882 293.747 164.038C284.32 168.92 273.612 167.935 263.456 166.476C255.26 165.299 245.607 163.18 240.348 156.157C234.834 148.793 237.613 139.346 235.845 130.968C234.178 123.063 227.742 119.024 220.162 117.736C211.112 116.197 201.399 117.154 192.369 118.374C172.706 121.03 153.743 127.113 134.453 131.54C124.723 133.773 114.873 135.602 104.906 136.33C96.0459 136.978 87.0293 136.773 78.5077 134.005C70.8135 131.506 63.6004 126.712 60.4329 118.987C56.3668 109.071 60.2457 98.4177 65.4789 89.7567C70.6777 81.1519 77.7564 73.9224 83.2123 65.4955C88.0603 58.0081 92.0661 49.1815 90.7256 40.0514C87.7893 20.0545 65.074 14.1599 49.0619 8.60139C46.6957 7.77998 44.3432 6.91406 42.0379 5.93363C39.2838 4.76226 36.176 3.0061 36.3928 -0.459969C36.6786 -5.02774 41.7795 -8.72378 44.8126 -11.579C50.7731 -17.1903 53.2344 -24.7709 53.1373 -32.8573C53.0237 -42.338 49.3459 -51.1167 45.3871 -59.5686C41.3845 -68.1147 37.271 -76.5457 35.4006 -85.8644C32.1572 -102.024 34.5247 -119.09 41.2491 -134.074C47.9707 -149.052 59.1829 -162.124 73.6237 -170.103C90.9157 -179.658 111.196 -182.1 128.312 -191.999C135.897 -196.386 142.95 -202.186 147.737 -209.606C149.854 -212.887 151.494 -216.477 152.441 -220.272C153.696 -225.303 152.889 -230.53 154.062 -235.539C156.142 -244.423 165.436 -246.951 173.438 -247.433C181 -247.889 188.487 -246.631 195.959 -248.443C201.786 -249.857 207.246 -253.035 208.852 -259.166C208.902 -259.358 208.595 -259.397 208.545 -259.206C206.346 -250.809 197 -248.324 189.363 -247.762C181.717 -247.199 174.107 -248.579 166.534 -246.795C159.465 -245.129 154.226 -240.768 153.375 -233.265C152.781 -228.038 153.139 -223.014 151.44 -217.937C150.006 -213.651 147.707 -209.703 144.884 -206.186C132.038 -190.184 111.758 -185.054 93.2254 -178.72C84.4416 -175.718 75.7269 -172.254 68.009 -167.017C61.4373 -162.557 55.6373 -156.98 50.7993 -150.689C41.2054 -138.211 35.2682 -122.906 33.9395 -107.222C33.2776 -99.4056 33.7595 -91.4852 35.5225 -83.8361C37.6156 -74.7562 41.8406 -66.5093 45.7277 -58.1058C49.9261 -49.0284 53.55 -39.4623 52.7075 -29.2828C52.3196 -24.5952 50.9885 -19.9183 48.3158 -16.0056C45.7942 -12.3134 42.0162 -9.75616 39.1149 -6.38998C37.1622 -4.1242 35.1739 -1.03587 36.5354 2.01738C38.2336 5.82487 43.9265 7.10036 47.4483 8.36137C57.2726 11.8793 67.6852 14.3621 76.4593 20.2458C84.8111 25.8464 91.1496 34.4441 90.6526 44.8926C90.1557 55.3411 83.9007 64.6097 77.7532 72.6287C67.6312 85.8325 51.2737 104.218 61.5102 121.867C69.394 135.459 87.9503 137.538 102.07 136.815C122.266 135.782 141.796 130.052 161.288 125.118C170.864 122.695 180.498 120.43 190.277 118.983C199.945 117.552 210.415 116.375 220.122 118.042C224.887 118.86 229.782 120.688 232.79 124.676C235.449 128.202 236.006 132.661 236.169 136.945C236.468 144.762 236.001 152.831 242.171 158.654C247.855 164.02 256.223 165.771 263.708 166.825C273.157 168.155 283.202 169.164 292.166 165.145C300.23 161.528 306.434 154.941 312.641 148.854C319.202 142.421 326.161 136.529 335.275 134.196C343.965 131.972 353.539 134.112 357.829 142.665C361.117 149.221 360.355 157.085 359.872 164.152C359.399 171.088 358.694 178.447 361.009 185.148C363.267 191.676 368.548 196.227 375.26 197.748C382.467 199.382 390.488 197.73 396.535 193.506C403.686 188.51 408.232 180.548 410.98 172.435C417.639 152.775 413.898 130.479 424.024 111.864C428.242 104.109 434.68 97.4841 443.255 94.7921C443.445 94.7327 443.324 94.4474 443.135 94.5069Z" fill="#2A2E30"/>
</g>
<g opacity="0.264">
<path d="M444.094 80.3224C428.257 86.2198 422.185 104.025 419.948 119.29C417.308 137.308 417.893 158.475 404.41 172.594C398.779 178.491 390.825 181.802 382.627 181.018C374.994 180.287 368.847 175.644 366.607 168.244C363.007 156.349 369.125 141.985 361.963 131.056C357.867 124.808 350.536 122.645 343.398 123.624C335.562 124.699 328.57 128.726 322.614 133.758C316.34 139.058 310.638 145.206 303.464 149.336C294.852 154.294 285.445 154.147 275.885 152.718C267.972 151.535 259.146 149.99 252.91 144.557C246.062 138.59 246.96 130.118 245.965 121.95C245.579 118.778 244.757 115.608 242.833 112.999C240.731 110.148 237.585 108.357 234.251 107.317C226.071 104.766 216.618 105.67 208.252 106.611C188.468 108.836 169.484 115.179 150.198 119.8C140.46 122.132 130.591 124.048 120.589 124.76C112.29 125.351 103.851 125.133 95.8602 122.588C88.8042 120.34 82.1012 116.124 78.7709 109.28C74.5166 100.537 76.9234 90.8162 81.174 82.583C85.5801 74.0482 92.0452 66.9485 97.4139 59.0517C102.508 51.5591 107.186 42.8674 106.786 33.5349C106.422 25.0322 101.483 17.8638 94.7357 12.99C87.1647 7.5209 77.9836 5.20107 69.4745 1.65047C67.0293 0.630381 63.701 -0.439331 61.9759 -2.54032C60.3788 -4.48614 60.6599 -6.90175 61.7866 -8.98546C63.7832 -12.6777 67.313 -15.254 70.0893 -18.3104C75.6579 -24.4402 77.0366 -33.149 76.2355 -41.1425C75.3176 -50.2983 71.3414 -58.7478 67.6795 -67.0677C64.2437 -74.8741 61.2526 -82.7424 60.165 -91.2504C58.2326 -106.373 61.3831 -121.911 68.2113 -135.475C75.1182 -149.195 85.8695 -161.02 99.2613 -168.63C115.721 -177.983 134.91 -181.538 150.848 -191.902C157.658 -196.331 163.97 -201.929 168.29 -208.874C170.191 -211.929 171.682 -215.238 172.57 -218.73C173.764 -223.425 173.058 -228.572 174.845 -233.106C177.691 -240.325 186.005 -242.225 192.963 -242.642C200.183 -243.075 207.34 -241.888 214.491 -243.478C219.967 -244.696 225.381 -247.46 227.181 -253.134C227.263 -253.391 226.875 -253.557 226.792 -253.298C224.431 -245.854 215.996 -243.681 209.06 -243.107C201.871 -242.513 194.701 -243.787 187.547 -242.421C181.482 -241.263 175.734 -238.156 173.987 -231.835C172.708 -227.205 173.218 -222.309 171.843 -217.666C170.657 -213.664 168.68 -209.933 166.226 -206.568C154.996 -191.165 136.573 -184.723 119.495 -178.186C110.878 -174.888 102.247 -171.351 94.5373 -166.213C88.3754 -162.107 82.8482 -157.055 78.115 -151.365C68.7208 -140.07 62.351 -126.213 60.0847 -111.687C58.9707 -104.546 58.8615 -97.236 59.8992 -90.0788C61.0965 -81.8212 64.0867 -74.1757 67.4334 -66.5791C71.3286 -57.7371 75.4792 -48.7476 75.98 -38.9462C76.2282 -34.0821 75.6152 -29.0541 73.6316 -24.572C71.7618 -20.3465 68.6066 -17.4917 65.454 -14.2521C63.2856 -12.0245 60.4638 -9.14161 60.3972 -5.80255C60.3257 -2.19518 63.6422 -0.515188 66.4752 0.797089C75.4592 4.95981 85.4451 7.10521 93.6938 12.774C101.961 18.455 107.368 27.2906 106.226 37.5699C105.055 48.1121 98.4239 57.3273 92.1924 65.5387C82.8754 77.8168 69.9257 95.068 79.1657 110.912C86.5298 123.539 103.585 125.914 116.838 125.39C137.068 124.59 156.558 118.573 176.018 113.528C185.771 111 195.607 108.674 205.607 107.359C210.994 106.651 216.425 106.233 221.86 106.24C226.156 106.245 230.547 106.502 234.648 107.888C238.826 109.3 242.372 111.988 244.116 116.128C245.619 119.696 245.739 123.664 245.962 127.473C246.388 134.736 247.793 141.371 253.951 145.934C260.196 150.561 268.321 152.017 275.829 153.137C284.554 154.439 293.396 154.845 301.518 150.856C308.769 147.295 314.529 141.429 320.51 136.139C327.109 130.301 334.516 125.269 343.455 124.043C351.914 122.883 360.227 126.477 363.363 134.766C365.762 141.109 365.021 148.219 364.908 154.85C364.806 160.846 364.942 167.245 367.996 172.595C371.329 178.428 377.633 181.347 384.194 181.538C400.777 182.021 411.019 167.768 415.205 153.302C420.495 135.02 417.786 114.748 426.738 97.4874C430.551 90.1335 436.35 83.6571 444.255 80.7134C444.51 80.6188 444.346 80.2295 444.091 80.3246L444.094 80.3224Z" fill="#2A2E30"/>
</g>
<g opacity="0.337">
<path d="M445.057 66.139C430.618 72.526 425.2 89.298 423.09 103.687C420.585 120.774 421.021 140.232 409.359 154.275C404.449 160.188 397.567 164 389.803 164.244C382.71 164.466 375.959 161.325 372.984 154.635C368.25 143.989 373.617 130.701 366.535 120.837C357.286 107.955 338.88 115.043 328.783 122.754C322.633 127.452 316.964 132.981 309.983 136.47C301.588 140.666 292.637 140.01 283.674 138.325C276.236 136.926 268.037 135.05 262.35 129.695C256.236 123.939 256.922 116.088 255.454 108.513C254.138 101.718 249.785 97.3021 243.095 95.6C235.146 93.5774 226.239 94.5148 218.218 95.5637C199.753 97.9786 182.063 104.1 164.035 108.507C155.039 110.706 145.918 112.493 136.669 113.164C128.802 113.734 120.79 113.538 113.207 111.156C106.508 109.053 100.124 105.144 96.779 98.765C92.7147 91.0157 94.1909 82.1589 97.5966 74.4737C104.656 58.5447 120.808 46.21 122.558 28.042C123.306 20.2904 120.431 12.9382 114.785 7.61787C108.56 1.75124 100.234 -0.62828 92.692 -4.25871C90.7388 -5.19872 88.4887 -6.13916 86.8897 -7.63417C84.9621 -9.43601 84.9233 -11.9273 86.0232 -14.168C87.6751 -17.5325 90.6926 -20.0942 93.1881 -22.8128C98.5667 -28.6725 100.213 -36.6746 99.6628 -44.4359C99.0525 -53.0484 95.7144 -61.0881 92.486 -68.9922C89.4069 -76.5303 86.5607 -84.0914 85.5945 -92.2271C83.8745 -106.705 87.2439 -121.478 93.9363 -134.336C100.748 -147.423 111.063 -158.73 123.662 -166.443C139.006 -175.836 156.814 -180.528 171.67 -190.792C178.033 -195.188 183.973 -200.521 188.201 -207.052C190.193 -210.129 191.783 -213.472 192.727 -217.021C193.789 -221.013 193.507 -225.405 195.217 -229.212C198.251 -235.966 206.37 -237.557 213.027 -237.883C219.75 -238.211 226.404 -237.179 233.076 -238.528C238.227 -239.57 243.519 -241.933 245.527 -247.142C245.65 -247.463 245.158 -247.671 245.034 -247.35C242.455 -240.661 234.468 -238.877 228.065 -238.395C221.193 -237.877 214.341 -239.058 207.497 -237.819C201.638 -236.758 196.002 -233.89 194.143 -227.842C192.91 -223.829 193.049 -219.56 191.735 -215.546C190.476 -211.699 188.472 -208.135 186.049 -204.904C175.139 -190.357 157.846 -183.361 141.779 -176.204C133.971 -172.725 126.156 -169.053 119.145 -164.116C113.337 -160.025 108.092 -155.14 103.539 -149.69C94.5033 -138.874 88.0947 -125.724 85.6676 -111.809C84.4754 -104.973 84.2672 -97.9515 85.2026 -91.0699C86.2766 -83.1698 89.1242 -75.8103 92.1218 -68.4713C95.5435 -60.0934 99.0284 -51.5387 99.2253 -42.3597C99.3251 -37.7055 98.5966 -32.9351 96.5794 -28.7087C94.8069 -24.9954 91.9045 -22.3436 89.1841 -19.3528C87.1844 -17.154 84.6611 -14.3298 84.7149 -11.1467C84.7673 -8.02459 87.4214 -6.42309 89.8834 -5.09072C97.7176 -0.852337 106.754 1.29927 113.591 7.25327C121.054 13.7535 123.633 23.2847 121.149 32.7954C118.664 42.3061 112.588 50.4802 106.865 58.2764C98.357 69.8646 88.2173 86.4523 97.2202 100.588C104.617 112.202 120.536 114.401 133.128 113.895C151.958 113.139 170.077 107.484 188.139 102.606C197.129 100.179 206.183 97.9064 215.396 96.5019C224.092 95.1758 233.782 93.9621 242.458 95.9911C246.493 96.9343 250.358 98.8724 252.647 102.455C254.75 105.746 255.19 109.718 255.594 113.514C256.335 120.467 257.666 126.812 263.455 131.347C269.17 135.823 276.616 137.539 283.603 138.853C291.793 140.393 300.193 141.23 308.077 137.933C315.032 135.024 320.705 129.875 326.515 125.213C333.034 119.982 340.202 115.531 348.675 114.498C356.664 113.525 364.632 116.691 367.918 124.404C370.333 130.071 369.968 136.496 370.223 142.521C370.463 148.183 371.155 154.181 374.86 158.733C378.658 163.4 384.828 165.108 390.655 164.737C406.251 163.743 415.162 149.612 418.871 135.856C423.543 118.526 421.381 99.5396 429.447 83.1125C432.868 76.1456 438.038 69.8272 445.262 66.6315C445.576 66.4926 445.37 65.999 445.054 66.1387L445.057 66.139Z" fill="#2A2E30"/>
</g>
<g opacity="0.411">
<path d="M446.018 51.9552C433.138 58.7466 428.302 74.2286 426.292 87.6515C423.886 103.725 424.232 121.488 414.523 135.371C410.372 141.308 404.551 145.73 397.325 147.035C391.083 148.162 384.073 146.877 380.093 141.546C373.452 132.652 378.122 119.889 371.382 110.948C362.424 99.066 345.075 104.927 334.951 111.777C328.914 115.861 323.27 120.734 316.483 123.569C308.341 126.97 299.86 125.835 291.51 123.889C284.429 122.239 276.675 119.984 271.526 114.525C266.457 109.15 266.753 102.145 264.944 95.4561C263.259 89.226 258.799 85.4827 252.575 84.0841C244.874 82.3536 236.366 83.3427 228.654 84.481C211.583 87.0005 195.249 92.8323 178.57 97.043C170.298 99.1316 161.909 100.833 153.393 101.515C146.071 102.102 138.625 102.009 131.506 100.009C125.255 98.2532 119.154 94.9598 115.508 89.4151C111.023 82.5928 111.394 74.2233 114.032 66.7928C119.548 51.2521 133.221 39.9776 137.53 23.8807C139.39 16.933 138.946 9.38292 134.875 3.27969C130.757 -2.89086 124.073 -5.72422 117.757 -9.08488C114.164 -10.9961 108.324 -13.6232 110 -18.6383C111.138 -22.0415 114.093 -24.7461 116.409 -27.3691C121.339 -32.952 123.26 -39.8517 123.065 -47.2335C122.642 -63.2215 112.793 -77.019 110.973 -92.7655C109.374 -106.597 112.858 -120.598 119.372 -132.786C126.015 -145.215 135.823 -156.012 147.529 -163.854C161.578 -173.266 177.707 -179.115 191.488 -188.973C197.55 -193.308 203.279 -198.378 207.603 -204.491C209.601 -207.315 211.295 -210.38 212.432 -213.653C213.712 -217.339 213.739 -221.449 215.427 -224.98C218.424 -231.249 226.017 -232.752 232.302 -233.081C238.683 -233.414 245.019 -232.439 251.371 -233.527C256.309 -234.373 261.595 -236.339 263.872 -241.151C264.051 -241.528 263.454 -241.778 263.276 -241.403C260.379 -235.282 252.475 -233.968 246.412 -233.642C239.904 -233.292 233.435 -234.336 226.962 -233.131C221.387 -232.092 216.129 -229.371 214.214 -223.699C212.954 -219.964 212.743 -216.012 211.239 -212.328C209.791 -208.779 207.708 -205.513 205.312 -202.532C194.644 -189.258 178.83 -181.765 164.065 -174.072C156.936 -170.358 149.793 -166.528 143.355 -161.681C137.92 -157.589 132.968 -152.85 128.616 -147.623C119.927 -137.187 113.5 -124.644 111.025 -111.238C109.833 -104.782 109.588 -98.1332 110.465 -91.6204C111.482 -84.0669 114.215 -76.9712 116.861 -69.8706C119.872 -61.7905 122.756 -53.4586 122.41 -44.7103C122.245 -40.5564 121.381 -36.3735 119.431 -32.675C117.621 -29.2403 114.724 -26.6519 112.311 -23.6628C110.626 -21.5742 108.701 -18.9043 109.055 -16.0559C109.442 -12.9382 112.682 -11.2502 115.108 -9.82516C121.946 -5.80996 129.771 -3.22659 134.363 3.67252C145.174 19.9201 130.139 38.3804 121.341 51.5442C113.921 62.6438 106.537 78.2328 115.553 90.6097C123.206 101.116 138.061 102.943 150.067 102.373C167.324 101.554 183.912 96.3126 200.423 91.6564C208.871 89.2741 217.375 87.0139 226.038 85.5487C234.29 84.1534 243.354 82.9557 251.658 84.5519C255.479 85.2861 259.261 86.8632 261.698 90.0214C263.949 92.9389 264.651 96.5976 265.237 100.148C266.299 106.586 267.732 112.422 272.986 116.763C278.195 121.067 284.963 123.023 291.426 124.529C299.188 126.338 307.203 127.552 314.912 124.862C321.63 122.518 327.255 117.992 332.989 113.926C339.368 109.403 346.341 105.639 354.271 104.917C361.928 104.219 369.5 107.282 372.765 114.574C375.049 119.676 374.999 125.429 375.728 130.875C376.399 135.887 377.859 140.989 381.865 144.378C386.226 148.069 392.487 148.671 397.909 147.581C411.749 144.797 419.132 131.521 422.395 118.874C426.683 102.253 424.877 84.1968 432.313 68.3858C435.348 61.9308 439.858 55.9318 446.271 52.5502C446.637 52.3577 446.389 51.7588 446.02 51.9539L446.018 51.9552Z" fill="#2A2E30"/>
</g>
<g opacity="0.485">
<path d="M446.897 37.8201C435.346 45.1341 431.2 59.8159 429.356 72.5388C427.168 87.6296 427.255 104.008 418.869 117.356C415.291 123.052 410.278 127.657 403.757 129.635C398.302 131.29 391.507 131.237 387.035 127.248C379.298 120.347 382.596 107.96 375.74 100.367C366.439 90.067 350.491 95.2528 340.362 101.276C334.447 104.793 328.74 108.947 322.06 110.909C314.254 113.201 306.243 111.429 298.642 109.186C292.163 107.275 285.299 104.655 280.803 99.3675C276.375 94.1603 276.553 87.4568 274.004 81.4464C271.548 75.6553 266.145 73.0382 260.157 72.2865C252.832 71.3668 245.123 72.3452 237.902 73.6242C222.322 76.3834 207.423 81.8916 192.136 85.8248C178.203 89.4093 162.442 92.5199 148.276 88.4122C142.465 86.7275 136.852 83.6536 133.371 78.5632C129.173 72.4232 129.051 64.7763 131.088 57.8423C135.418 43.0978 147.343 32.1691 152.482 17.7715C154.768 11.3681 155.683 4.11405 153.08 -2.34666C150.647 -8.38498 145.549 -11.4502 140.396 -14.9393C137.354 -16.9989 133.04 -19.6493 134.325 -23.9099C135.303 -27.1555 137.981 -29.8194 140.091 -32.3684C144.496 -37.6898 146.416 -43.9378 146.396 -50.8264C146.351 -65.9661 137.584 -79.2833 136.138 -94.1946C134.866 -107.322 138.608 -120.428 145.025 -131.81C151.63 -143.526 161.047 -153.679 171.933 -161.537C184.5 -170.608 198.492 -177.516 210.927 -186.802C216.597 -191.037 222.031 -195.752 226.454 -201.304C228.559 -203.947 230.435 -206.799 231.851 -209.872C233.319 -213.059 233.782 -216.538 235.129 -219.751C237.773 -226.056 244.748 -227.815 250.962 -228.242C257.126 -228.665 263.275 -227.695 269.428 -228.513C274.178 -229.144 279.577 -230.678 282.168 -235.074C282.413 -235.49 281.815 -235.96 281.567 -235.539C278.383 -230.136 270.982 -229.164 265.289 -228.923C259.151 -228.663 253.055 -229.596 246.946 -228.536C241.412 -227.577 236.285 -225.009 234.209 -219.484C232.954 -216.145 232.387 -212.665 230.8 -209.432C229.203 -206.176 227.095 -203.191 224.753 -200.43C214.79 -188.688 201.013 -180.693 188.03 -172.768C181.453 -168.753 174.785 -164.795 168.694 -160.057C163.491 -156.011 158.689 -151.439 154.401 -146.434C146.004 -136.635 139.428 -124.993 136.592 -112.334C135.216 -106.194 134.771 -99.8378 135.44 -93.5744C136.212 -86.3344 138.659 -79.4655 140.971 -72.607C143.572 -64.8949 146.044 -56.9572 145.587 -48.7172C145.377 -44.9473 144.58 -41.1692 142.878 -37.7785C141.23 -34.4927 138.584 -31.9317 136.383 -29.032C134.851 -27.0129 133.16 -24.5473 133.299 -21.8884C133.459 -18.8177 136.467 -16.8031 138.726 -15.179C141.534 -13.1598 144.618 -11.517 147.231 -9.23159C149.757 -7.02145 151.684 -4.20888 152.764 -1.02403C155.43 6.84442 153.092 15.3776 149.632 22.5989C146.114 29.9391 141.204 36.4356 136.996 43.3675C130.516 54.0404 124.833 68.525 133.315 79.7847C140.613 89.4742 154.305 91.3794 165.595 90.917C181.56 90.2627 196.895 85.3989 212.102 80.9033C219.831 78.6181 227.595 76.3999 235.51 74.8445C243.36 73.3014 251.785 72.0672 259.785 73.0055C263.291 73.4165 266.918 74.3761 269.677 76.6854C272.406 78.9694 273.699 82.2555 274.558 85.6124C275.326 88.615 275.849 91.6915 277.023 94.5751C278.18 97.4153 279.987 99.8979 282.266 101.944C287.148 106.329 293.6 108.565 299.812 110.307C306.974 112.315 314.401 113.79 321.736 111.785C328.001 110.072 333.439 106.396 338.913 103.037C345.309 99.1109 352.144 95.8674 359.753 95.3659C366.884 94.8961 373.975 97.5933 377.449 104.135C379.883 108.721 380.174 114.007 381.51 118.94C382.683 123.267 384.914 127.327 388.98 129.53C393.613 132.04 399.384 131.798 404.283 130.262C417.081 126.251 423.37 112.911 426.173 100.77C429.759 85.2336 428.536 68.5946 435.091 53.7779C437.773 47.7152 441.683 42.0163 447.361 38.4213C447.774 38.1597 447.308 37.5591 446.898 37.8191L446.897 37.8201Z" fill="#2A2E30"/>
</g>
<g opacity="0.558">
<path d="M447.846 23.6433C437.707 31.4355 434.162 45.0879 432.456 57.1343C430.469 71.1615 430.332 86.0329 423.412 98.7921C420.342 104.453 415.905 109.467 409.899 112.043C405.088 114.106 398.94 114.971 394.127 112.434C389.761 110.133 387.961 105.644 386.464 101.229C385.043 97.0443 383.478 92.9462 380.156 89.8738C370.514 80.9562 355.67 85.6675 345.429 90.8272C339.73 93.6988 334.045 96.938 327.657 97.9673C320.263 99.1586 312.837 96.9038 305.957 94.3663C300.055 92.1893 294.028 89.2407 290.089 84.1595C286.388 79.3862 286.078 73.2301 283.07 68.143C279.97 62.899 274.153 61.112 268.376 60.7713C261.395 60.3598 254.253 61.3901 247.434 62.8003C233.278 65.7267 219.738 70.9314 205.778 74.5951C192.896 77.9761 178.383 80.7012 165.286 76.8851C159.833 75.2962 154.58 72.4171 151.231 67.7087C147.443 62.383 146.802 55.7101 148.111 49.4467C151.006 35.5994 161.305 24.8931 166.941 12.2206C169.617 6.20241 171.471 -0.436474 170.753 -7.07624C170.469 -9.71011 169.714 -12.2989 168.357 -14.5847C167.066 -16.7583 165.25 -18.4565 163.434 -20.1819C161.057 -22.4395 157.71 -25.3274 158.598 -28.9526C159.376 -32.1267 161.844 -34.7863 163.787 -37.3151C167.806 -42.5456 169.668 -48.3849 169.714 -54.9876C169.812 -69.1056 162.21 -81.791 161.172 -95.742C160.218 -108.575 164.531 -121.164 171.257 -131.95C178.145 -142.996 187.456 -152.493 197.833 -160.295C209.27 -168.894 221.116 -176.889 232.192 -185.973C237.29 -190.153 242.253 -194.591 246.473 -199.675C248.478 -202.089 250.307 -204.661 251.792 -207.429C253.355 -210.34 254.065 -213.633 255.695 -216.493C258.71 -221.784 265.175 -223.136 270.794 -223.475C276.633 -223.827 282.454 -222.95 288.288 -223.619C292.7 -224.125 297.7 -225.326 300.503 -229.069C300.84 -229.519 300.15 -230.053 299.814 -229.603C296.393 -225.036 289.561 -224.377 284.299 -224.209C278.404 -224.022 272.55 -224.884 266.681 -223.901C261.778 -223.08 257.03 -221.002 254.644 -216.395C253.084 -213.383 252.299 -210.067 250.618 -207.092C248.966 -204.167 246.916 -201.471 244.707 -198.946C240.05 -193.618 234.63 -189 229.107 -184.602C223.435 -180.084 217.654 -175.701 211.791 -171.434C205.987 -167.209 199.993 -163.215 194.388 -158.725C189.35 -154.689 184.627 -150.252 180.331 -145.433C172.085 -136.185 165.235 -125.311 162.032 -113.252C160.465 -107.35 159.83 -101.204 160.349 -95.1116C160.942 -88.1579 163.146 -81.4945 165.142 -74.8492C167.289 -67.698 169.279 -60.3442 168.766 -52.8034C168.516 -49.1263 167.693 -45.4446 165.987 -42.1576C164.447 -39.1921 162.104 -36.748 160.209 -34.0179C158.837 -32.0417 157.358 -29.6588 157.553 -27.1485C157.766 -24.3991 160.172 -22.1648 162.019 -20.3402C163.987 -18.3963 166.123 -16.6181 167.566 -14.2206C169.246 -11.4295 169.935 -8.17762 170.019 -4.94843C170.414 10.3554 159.539 22.6718 152.669 35.3866C147.176 45.555 143.188 58.8559 151.072 68.9541C158.083 77.935 170.793 79.8431 181.463 79.4431C196.068 78.8953 210.087 74.4292 223.937 70.1345C238.032 65.7632 253.036 60.8499 267.993 61.6227C271.306 61.7941 274.746 62.3503 277.676 63.9891C280.553 65.598 282.407 68.2392 283.608 71.2485C284.694 73.9707 285.359 76.8401 286.475 79.5521C287.569 82.2151 289.11 84.6081 291.131 86.6637C295.44 91.0448 301.219 93.6332 306.933 95.6428C313.419 97.9243 320.321 99.8946 327.253 98.9106C333.561 98.0151 339.214 94.9657 344.815 92.114C350.907 89.0118 357.218 86.4103 364.114 85.895C370.728 85.4007 377.466 87.251 381.586 92.7492C384.408 96.5151 385.268 101.171 387.075 105.42C388.771 109.411 391.659 112.783 395.908 114.104C400.654 115.58 405.98 114.72 410.453 112.752C421.931 107.701 427.283 94.861 429.756 83.352C432.863 68.8905 432.085 53.5937 437.628 39.683C439.958 33.8363 443.326 28.2163 448.377 24.3346C448.822 23.9919 448.291 23.3001 447.845 23.6428L447.846 23.6433Z" fill="#2A2E30"/>
</g>
<g opacity="0.632">
<path d="M448.797 9.46674C440.058 17.7497 437.084 30.4443 435.525 41.9335C433.734 55.128 433.416 68.9909 427.346 81.1408C424.678 86.4792 420.845 91.4837 415.552 94.419C411.248 96.8055 405.815 98.2293 400.943 96.9417C396.579 95.7883 393.972 92.3814 391.859 88.6403C389.833 85.0531 387.736 81.6173 384.309 79.1878C374.359 72.1333 361.142 75.9735 350.818 80.0419C345.009 82.3311 339.113 84.7076 332.77 84.7283C326.043 84.7506 319.414 82.158 313.383 79.3904C308.036 76.9366 302.768 73.6743 299.302 68.8059C296.136 64.3592 295.258 58.5491 291.546 54.4716C287.729 50.2783 281.861 49.3778 276.454 49.405C269.975 49.4375 263.498 50.5122 257.21 52.0087C244.242 55.0948 231.834 60.0914 218.956 63.5001C206.96 66.6755 193.372 68.9975 181.271 65.0429C176.289 63.4147 171.598 60.5807 168.612 56.1774C165.201 51.1461 164.55 44.9433 165.627 39.0744C168 26.1347 176.964 15.6984 182.416 4.03339C185.054 -1.61162 187.017 -7.587 187.536 -13.8243C187.912 -18.3381 187.169 -22.3175 185.137 -26.3405C183.837 -28.9127 182.112 -31.6854 183.013 -34.6487C183.855 -37.4164 185.803 -39.8003 187.451 -42.1253C189.118 -44.4763 190.595 -46.856 191.515 -49.6078C192.499 -52.5524 192.951 -55.6564 193.027 -58.7543C193.357 -72.1048 186.66 -84.3401 186.062 -97.5765C185.505 -109.917 190.364 -121.714 197.242 -131.736C204.351 -142.092 213.524 -150.911 223.275 -158.756C228.5 -162.959 233.694 -167.162 238.656 -171.676C243.446 -176.034 248.169 -180.462 252.984 -184.792C257.599 -188.944 262.202 -193.146 266.311 -197.808C268.262 -200.022 270.106 -202.344 271.687 -204.839C273.282 -207.356 274.277 -210.243 275.989 -212.674C279.167 -217.182 284.989 -218.365 290.165 -218.68C295.653 -219.014 301.13 -218.229 306.619 -218.671C310.904 -219.015 315.701 -219.876 318.842 -223.062C319.287 -223.514 318.503 -224.112 318.064 -223.666C314.339 -219.887 307.914 -219.551 302.938 -219.486C297.416 -219.415 291.936 -220.147 286.438 -219.273C281.684 -218.517 277.145 -216.599 274.592 -212.312C273.006 -209.648 271.862 -206.797 270.103 -204.221C268.365 -201.675 266.38 -199.304 264.295 -197.037C259.858 -192.215 254.937 -187.869 250.069 -183.494C245.131 -179.056 240.344 -174.452 235.375 -170.047C225.739 -161.504 215.275 -154.067 206.437 -144.629C198.116 -135.744 190.744 -125.408 187.194 -113.639C185.562 -108.231 184.794 -102.583 185.113 -96.9351C185.491 -90.2431 187.425 -83.7738 189.128 -77.3307C190.905 -70.6063 192.531 -63.7033 191.934 -56.6968C191.651 -53.3799 190.898 -50.0735 189.415 -47.0788C188.017 -44.2586 185.931 -41.849 184.233 -39.2143C183.008 -37.3141 181.737 -35.1499 181.731 -32.8194C181.725 -30.2778 183.294 -27.8185 184.402 -25.6168C186.776 -20.9003 186.992 -16.1154 186.193 -10.9309C184.069 2.83076 175.254 13.7356 169.242 25.8922C164.459 35.5658 161.28 47.7945 168.205 57.306C174.418 65.841 186.025 68.152 195.959 68.0025C209.55 67.7984 222.591 63.6933 235.399 59.5248C248.391 55.2971 261.634 50.781 275.426 50.3998C281.753 50.2247 288.559 51.288 292.247 57.0064C293.771 59.3693 294.678 62.0664 295.836 64.6128C297.005 67.1825 298.446 69.5808 300.361 71.6677C304.179 75.8267 309.2 78.6514 314.324 80.8881C320.138 83.426 326.415 85.7482 332.843 85.7085C338.938 85.6711 344.639 83.5379 350.233 81.3314C356.16 78.9932 362.127 76.8841 368.534 76.4031C374.789 75.9335 381.09 77.221 385.76 81.6513C388.867 84.5987 390.399 88.567 392.779 92.0347C395.037 95.3235 398.344 97.6577 402.34 98.2225C406.985 98.8788 411.879 97.5728 415.935 95.326C426.144 89.6688 430.866 77.655 433.144 66.8062C436.027 53.0764 435.505 38.669 440.266 25.3393C442.25 19.7829 445.073 14.3457 449.397 10.2472C449.853 9.81486 449.258 9.02978 448.797 9.4663L448.797 9.46674Z" fill="#2A2E30"/>
</g>
<g opacity="0.705">
<path d="M449.647 -4.61044C442.243 4.24747 439.888 16.3369 438.494 27.4733C436.954 39.7798 436.381 52.5922 430.991 63.99C426.674 73.1181 417.858 81.9768 406.908 80.9844C402.775 80.6099 399.626 78.2724 396.831 75.3914C393.899 72.3685 390.915 69.6636 387.029 67.9069C376.281 63.0489 364.26 67.1078 353.528 69.782C347.731 71.2263 341.825 71.981 335.937 70.58C330.005 69.1687 324.172 66.3178 319.03 63.0793C314.158 60.0114 309.997 56.1612 307.058 51.1792C304.604 47.0198 302.566 42.5492 298.085 40.1891C293.267 37.6518 287.338 37.8775 282.082 38.3948C276.05 38.9883 270.138 40.3593 264.329 42.0574C252.552 45.4995 241.188 50.2878 229.238 53.1484C218.401 55.7428 205.891 57.1041 195.409 52.4033C190.699 50.2905 186.744 46.8272 184.598 42.0726C182.356 37.1023 182.38 31.5524 183.553 26.3111C186.201 14.4832 193.901 4.54766 198.896 -6.30829C201.336 -11.6094 203.158 -17.097 204.687 -22.7219C205.671 -26.3444 207.037 -30.238 207.031 -34.0183C207.029 -35.3171 206.836 -36.6212 206.903 -37.9187C206.971 -39.2432 207.431 -40.4814 208.006 -41.6641C209.281 -44.2912 211.081 -46.6291 212.574 -49.1304C215.426 -53.9072 216.446 -59.3464 216.359 -64.8656C216.16 -77.4753 210.175 -89.3423 210.869 -102.028C211.469 -112.97 216.619 -122.938 223.168 -131.505C230.001 -140.444 238.33 -148.126 246.747 -155.54C251.266 -159.52 255.712 -163.511 259.739 -167.999C263.834 -172.563 267.652 -177.366 271.933 -181.763C275.944 -185.884 280.163 -189.796 284.188 -193.903C288.143 -197.939 291.597 -202.153 294.757 -206.829C301.321 -216.541 314.249 -213.4 324.195 -213.715C328.544 -213.853 333.45 -214.313 337.078 -216.958C337.65 -217.375 336.981 -218.244 336.41 -217.828C332.153 -214.725 325.93 -214.697 320.889 -214.783C315.765 -214.871 310.672 -215.415 305.577 -214.551C303.256 -214.158 300.942 -213.498 298.882 -212.335C296.634 -211.066 295.024 -209.221 293.615 -207.087C290.514 -202.39 286.915 -198.224 282.968 -194.217C278.773 -189.958 274.375 -185.901 270.241 -181.581C265.903 -177.05 262.039 -172.097 257.792 -167.483C253.546 -162.868 248.801 -158.841 244.131 -154.686C239.956 -150.97 235.848 -147.173 231.938 -143.177C224.307 -135.381 217.161 -126.637 213.051 -116.424C211.11 -111.601 209.907 -106.466 209.742 -101.261C209.548 -95.1694 210.825 -89.1901 212.192 -83.2898C213.674 -76.8938 215.343 -70.4275 215.274 -63.8138C215.241 -60.6176 214.832 -57.3869 213.813 -54.3485C212.853 -51.488 211.235 -49.0088 209.604 -46.4958C208.228 -44.3746 206.713 -42.1555 206.073 -39.6772C205.468 -37.3367 206.094 -34.9079 205.882 -32.5285C205.72 -30.7101 205.145 -28.9536 204.71 -27.1883C204.082 -24.6485 203.409 -22.1235 202.67 -19.6139C200.95 -13.7732 198.718 -8.15871 195.943 -2.7357C193.02 2.97397 189.631 8.44043 186.827 14.212C182.389 23.3487 179.107 34.6263 184.408 44.1276C189.201 52.7173 199.426 56.0235 208.713 56.4718C221.031 57.0665 233.055 53.6111 244.611 49.7337C256.5 45.7446 268.351 41.0913 280.892 39.6279C286.704 38.9494 293.808 38.4198 298.876 41.9487C303.274 45.0112 304.934 50.3895 307.957 54.5896C311.156 59.035 315.622 62.4153 320.325 65.1327C325.419 68.0761 331.008 70.7239 336.803 71.8927C348.579 74.2669 359.699 68.1932 371.246 67.0418C377.556 66.4124 383.892 66.9948 389.388 70.3901C392.785 72.4879 395.179 75.5641 398.126 78.1773C404.805 84.1003 414.147 82.5722 421.117 77.925C430.341 71.7751 434.528 60.2284 436.618 49.829C439.22 36.888 438.96 23.4275 442.96 10.7629C444.626 5.48934 446.946 0.333328 450.515 -3.93643C450.969 -4.4799 450.099 -5.14944 449.647 -4.60884L449.647 -4.61044Z" fill="#2A2E30"/>
</g>
<g opacity="0.779">
<path d="M450.589 -18.7773C438.055 0.823198 443.89 25.8998 434.696 46.6595C430.693 55.6982 423.151 63.9709 412.77 64.9566C408.92 65.322 405.268 64.1989 401.88 62.4602C397.935 60.4351 394.104 58.3887 389.793 57.2167C378.926 54.2619 367.79 57.702 356.883 58.3577C350.893 58.718 345.162 57.7523 339.69 55.2707C334.621 52.9714 329.783 49.9434 325.489 46.4004C323.281 44.5784 321.207 42.5888 319.361 40.3976C317.705 38.4311 316.285 36.2848 314.702 34.2618C311.791 30.5408 308.2 27.9946 303.488 27.1608C298.049 26.1985 292.276 26.9852 286.913 28.0561C281.494 29.1384 276.204 30.8104 270.992 32.6247C260.222 36.3733 249.591 40.9629 238.289 42.8945C228.379 44.588 216.589 44.6639 208.163 38.3314C204.227 35.3743 201.605 31.0124 200.706 26.1812C199.767 21.1362 200.617 15.9222 202.154 11.083C203.821 5.83571 206.339 0.916836 208.901 -3.93849C211.685 -9.21429 214.458 -14.4753 216.96 -19.8925C219.088 -24.4974 220.915 -29.4261 224.145 -33.4051C225.319 -34.8501 226.786 -35.9846 228.044 -37.3461C229.441 -38.8585 230.243 -40.655 230.751 -42.6351C232.104 -47.9109 235.745 -51.9741 237.73 -56.9759C239.735 -62.029 239.994 -67.646 239.477 -73.0041C238.386 -84.3093 233.927 -95.388 235.974 -106.857C237.666 -116.335 243.13 -124.583 249.359 -131.719C255.9 -139.212 263.436 -145.742 270.677 -152.534C274.602 -156.216 278.44 -159.972 281.645 -164.314C285.084 -168.973 287.871 -174.078 291.406 -178.67C297.899 -187.108 306.357 -193.738 313.399 -201.678C315.261 -203.777 317.057 -205.813 319.637 -207.04C321.887 -208.111 324.351 -208.641 326.815 -208.922C331.938 -209.507 337.054 -208.863 342.185 -208.843C346.542 -208.826 351.265 -208.966 355.275 -210.867C355.976 -211.2 355.511 -212.317 354.805 -211.982C350.267 -209.83 344.729 -209.933 339.824 -210.089C334.715 -210.252 329.611 -210.74 324.539 -209.81C322.315 -209.403 320.109 -208.74 318.136 -207.616C315.985 -206.391 314.372 -204.611 312.754 -202.773C309.172 -198.701 305.196 -194.994 301.331 -191.196C297.465 -187.399 293.585 -183.527 290.288 -179.2C286.676 -174.458 283.825 -169.194 280.23 -164.441C273.869 -156.031 265.301 -149.383 257.73 -142.112C250.741 -135.401 243.912 -128.219 239.282 -119.628C237.124 -115.624 235.514 -111.309 234.74 -106.818C233.826 -101.516 234.243 -96.155 235.126 -90.878C237.068 -79.275 241.364 -66.5492 235.643 -55.3165C234.392 -52.8595 232.844 -50.5693 231.542 -48.1401C230.986 -47.1027 230.468 -46.0366 230.109 -44.9131C229.734 -43.7406 229.546 -42.5161 229.113 -41.3608C228.276 -39.1323 226.689 -37.7046 225.015 -36.1062C223.685 -34.8357 222.548 -33.4162 221.556 -31.8674C218.655 -27.3409 216.751 -22.2184 214.447 -17.3802C211.798 -11.8158 208.784 -6.44578 205.992 -0.954157C201.541 7.80107 197.203 18.187 199.923 28.1482C202.478 37.5029 210.76 42.7541 219.894 44.3945C230.824 46.3577 242.092 43.8426 252.48 40.473C263.534 36.8875 274.237 32.0634 285.624 29.5592C291.186 28.336 297.197 27.3974 302.876 28.2841C305.697 28.7243 308.304 29.749 310.52 31.5725C312.442 33.154 313.915 35.1835 315.373 37.1798C321.815 45.9997 330.662 52.9298 340.806 57.0692C346 59.1886 351.471 59.8903 357.051 59.5549C362.782 59.2107 368.428 58.039 374.148 57.5585C380.09 57.0594 386.07 57.1383 391.763 59.0839C395.743 60.444 399.247 62.6496 403.054 64.3745C410.833 67.9002 419.389 65.8093 425.936 60.6551C434.191 54.1561 438.002 43.3557 439.982 33.397C442.378 21.3478 442.365 8.9205 445.408 -3.01372C446.745 -8.25789 448.619 -13.4593 451.547 -18.0374C451.963 -18.6898 451.01 -19.4349 450.59 -18.7787L450.589 -18.7773Z" fill="#2A2E30"/>
</g>
<g opacity="0.853">
<path d="M451.439 -32.7952C442.247 -12.9166 446.704 10.2116 438.001 30.1907C434.157 39.0141 427.304 46.7404 417.667 49.1341C408.972 51.2937 400.684 47.9474 392.109 46.9092C381.438 45.6173 370.576 47.6267 359.961 45.7424C348.743 43.7514 339.454 36.4272 331.621 28.5301C328.327 25.2091 325.384 21.2864 321.456 18.6699C317.343 15.9304 312.554 15.2301 307.696 15.4567C297.068 15.9518 286.978 19.9701 277.189 23.8006C267.176 27.7192 256.979 31.7241 246.109 32.1973C237.112 32.5887 226.751 30.4717 221.342 22.5597C215.806 14.4615 217.678 4.08906 221.013 -4.47263C223.061 -9.72782 225.719 -14.7183 228.326 -19.7097C230.799 -24.4436 233.092 -29.3971 236.159 -33.7863C238.902 -37.7132 242.409 -40.1457 246.698 -42.1132C248.596 -42.9841 250.513 -43.9072 252.073 -45.3238C253.73 -46.8277 254.669 -48.6817 255.667 -50.6423C257.924 -55.0746 260.779 -59.1674 262.039 -64.0434C263.38 -69.2284 263.206 -74.6654 262.522 -79.9344C261.167 -90.3915 257.972 -100.976 261.379 -111.384C264.014 -119.43 269.592 -126.104 275.533 -131.962C281.749 -138.091 288.579 -143.554 294.842 -149.633C298.21 -152.902 301.475 -156.339 304.004 -160.315C306.91 -164.885 308.7 -170.003 311.18 -174.793C315.927 -183.964 324.035 -190.838 331.861 -197.324C333.864 -198.983 335.83 -200.773 338.158 -201.97C340.215 -203.026 342.482 -203.617 344.759 -203.963C349.759 -204.722 354.773 -204.236 359.792 -204.03C364.309 -203.845 368.999 -203.717 373.421 -204.799C374.239 -204.999 374.067 -206.311 373.238 -206.109C363.429 -203.709 353.237 -206.98 343.37 -205.065C341.274 -204.658 339.195 -204.028 337.309 -203.013C335.07 -201.807 333.159 -200.114 331.211 -198.501C327.397 -195.343 323.621 -192.132 320.113 -188.633C316.486 -185.016 313.148 -181.095 310.653 -176.602C307.891 -171.625 306.118 -166.152 303.081 -161.321C298.064 -153.34 290.371 -147.2 283.395 -141.008C276.924 -135.265 270.337 -129.383 265.404 -122.211C263.08 -118.832 261.148 -115.159 259.948 -111.227C258.548 -106.642 258.262 -101.888 258.646 -97.1255C259.552 -85.8846 263.942 -74.276 260.398 -63.078C259.606 -60.5763 258.379 -58.2431 257.104 -55.9592C255.881 -53.7669 254.735 -51.5411 253.539 -49.3363C251.152 -44.9336 246.574 -43.8525 242.533 -41.5221C238.444 -39.1632 235.589 -35.6146 233.219 -31.5967C230.419 -26.8485 227.959 -21.8924 225.422 -17.0005C220.887 -8.25579 216.164 1.29423 216.502 11.4093C216.648 15.7861 217.957 20.0987 220.512 23.6782C223.036 27.2131 226.715 29.7459 230.736 31.3017C240.103 34.9257 250.786 33.798 260.245 31.1719C270.609 28.2945 280.338 23.6029 290.549 20.2757C295.866 18.5433 301.346 17.2125 306.938 16.8209C312.478 16.4328 317.814 17.3105 322.22 20.8796C326.194 24.0993 329.381 28.2813 333.086 31.8034C337.06 35.5807 341.35 39.0568 346.071 41.8623C350.823 44.6872 355.953 46.547 361.434 47.313C366.845 48.0692 372.327 47.8661 377.772 47.7825C383.217 47.6988 388.721 47.6282 394.101 48.5316C398.557 49.2804 402.948 50.4888 407.441 51.0114C415.967 52.0042 424.327 49.2652 430.623 43.4096C437.933 36.6105 441.438 26.5744 443.33 17.0155C445.578 5.65346 445.73 -6.00605 448.016 -17.3632C449.046 -22.4786 450.463 -27.5365 452.657 -32.2824C453.015 -33.0564 451.795 -33.568 451.438 -32.7968L451.439 -32.7952Z" fill="#2A2E30"/>
</g>
<g opacity="0.926">
<path d="M452.373 -46.9493C449.3 -36.7723 448.454 -26.1472 447.427 -15.6189C446.426 -5.34886 445.18 5.14674 440.901 14.6502C436.896 23.5446 430.152 30.5958 421.05 34.2795C417.183 35.8445 413.136 36.8084 408.981 37.174C404.315 37.5844 399.654 37.2458 394.987 37.0505C384.5 36.612 373.731 36.1906 363.951 31.9757C359.199 29.927 354.895 27.019 351.027 23.5952C347.213 20.2185 343.899 16.3341 340.229 12.8097C336.906 9.61922 333.242 6.72477 328.819 5.2504C324.077 3.67031 318.997 3.80801 314.113 4.57588C304.319 6.11563 295.299 10.4422 286.215 14.1939C276.897 18.0429 267.11 21.4012 256.874 20.5086C247.946 19.73 239.415 15.3047 236.377 6.40638C233.364 -2.41791 236.449 -12.2131 240.058 -20.3607C242.164 -25.114 244.577 -29.8011 247.265 -34.2518C249.814 -38.4721 252.787 -42.5062 257.192 -44.9257C261.087 -47.0645 265.458 -47.8351 269.651 -49.1602C273.89 -50.5001 277.361 -52.6439 279.914 -56.3403C282.681 -60.3468 284.881 -64.7918 285.799 -69.5997C286.77 -74.6817 286.443 -79.889 285.782 -84.9856C284.501 -94.8555 282.251 -105.035 286.562 -114.502C289.705 -121.403 295.326 -126.808 301.039 -131.621C306.989 -136.633 313.355 -141.172 318.956 -146.589C321.879 -149.416 324.619 -152.472 326.714 -155.973C329.425 -160.501 330.519 -165.542 331.947 -170.558C333.34 -175.452 335.474 -179.813 338.769 -183.71C341.805 -187.301 345.461 -190.351 349.351 -192.976C353.36 -195.682 357.577 -198.05 362.379 -198.949C367.355 -199.88 372.412 -199.619 377.432 -199.286C382.186 -198.97 386.954 -198.596 391.721 -198.772C392.642 -198.806 392.439 -200.228 391.522 -200.193C381.456 -199.821 371.162 -202.375 361.197 -200.17C356.663 -199.167 352.631 -196.885 348.798 -194.33C344.847 -191.696 341.147 -188.624 338.021 -185.038C334.785 -181.326 332.455 -177.127 331.009 -172.42C329.418 -167.244 328.484 -161.879 325.742 -157.133C321.596 -149.957 314.837 -144.568 308.461 -139.465C302.338 -134.564 295.975 -129.778 290.879 -123.761C288.508 -120.962 286.444 -117.871 284.988 -114.495C283.195 -110.334 282.493 -105.872 282.537 -101.357C282.642 -90.5194 286.597 -79.7612 284.2 -68.9332C283.615 -66.2926 282.583 -63.7678 281.321 -61.3819C280.136 -59.1429 278.757 -56.8176 277.017 -54.9599C273.771 -51.4953 268.986 -50.4173 264.585 -49.2136C260.321 -48.0472 256.146 -46.5247 252.763 -43.5784C249.144 -40.426 246.619 -36.1433 244.319 -31.9892C239.574 -23.4197 234.841 -14.1287 233.913 -4.22505C233.114 4.31409 236.013 12.9611 243.491 17.7288C251.389 22.7636 261.634 22.8864 270.521 20.9615C280.295 18.8445 289.3 14.2677 298.548 10.6202C303.38 8.71405 308.312 7.03572 313.442 6.14236C318.724 5.22214 324.283 4.97863 329.357 6.97114C334.043 8.81132 337.787 12.3052 341.264 15.8431C344.863 19.5058 348.294 23.3307 352.311 26.5524C356.328 29.7741 360.787 32.3929 365.62 34.192C370.453 35.9911 375.522 36.9876 380.626 37.5549C385.976 38.1492 391.358 38.3065 396.731 38.5584C401.352 38.7752 405.972 38.9975 410.581 38.4516C419.177 37.4339 427.508 33.7954 433.731 27.7216C440.758 20.8635 444.412 11.3509 446.421 1.91527C448.736 -8.95373 449.007 -20.117 450.525 -31.1008C451.238 -36.2598 452.186 -41.4009 453.694 -46.3913C453.959 -47.2676 452.638 -47.8328 452.372 -46.9495L452.373 -46.9493Z" fill="#2A2E30"/>
</g>
<path d="M453.247 -60.9026C451.618 -50.462 451.355 -39.8819 450.364 -29.3753C449.39 -19.044 447.691 -8.57129 442.989 0.790998C434.687 17.3219 416.698 27.8072 398.245 27.3634C388.545 27.1299 378.979 24.0522 370.828 18.8145C366.818 16.2378 363.126 13.1523 359.92 9.62285C356.533 5.89263 353.813 1.533 349.926 -1.73034C342.454 -8.00445 331.968 -8.39494 322.846 -6.31831C312.772 -4.02509 303.807 1.37107 294.278 5.15396C285.651 8.5794 275.964 10.6212 266.887 7.62359C262.742 6.25433 259.026 3.81973 256.433 0.27164C253.962 -3.10963 252.751 -7.18469 252.517 -11.3377C252.027 -20.0526 255.321 -28.7835 259.308 -36.3776C261.58 -40.7074 264.173 -45.0915 267.991 -48.2461C271.297 -50.9786 275.349 -52.3643 279.491 -53.2497C287.133 -54.8836 295.854 -55.0181 302.182 -60.1979C309.361 -66.0736 310.305 -76.1259 309.619 -84.7597C308.798 -95.1115 305.761 -106.054 310.797 -115.836C314.032 -122.123 319.744 -126.694 325.406 -130.702C331.29 -134.865 337.551 -138.579 342.921 -143.424C345.463 -145.717 347.806 -148.27 349.603 -151.196C351.774 -154.733 352.941 -158.583 353.467 -162.691C354.15 -168.026 354.151 -173.498 356.566 -178.43C358.498 -182.374 361.6 -185.643 365.173 -188.151C373.501 -193.996 383.792 -195.268 393.723 -194.68C399.12 -194.36 404.472 -193.555 409.811 -192.744C410.796 -192.595 410.997 -194.129 410.012 -194.279C399.122 -195.933 387.736 -197.67 376.854 -195.019C368.447 -192.971 360.275 -188.076 355.884 -180.426C353.261 -175.856 352.733 -170.767 352.231 -165.617C351.775 -160.939 350.949 -156.435 348.509 -152.357C344.802 -146.164 338.795 -141.755 332.951 -137.732C326.939 -133.593 320.626 -129.729 315.433 -124.542C312.974 -122.085 310.82 -119.327 309.256 -116.212C307.063 -111.849 306.331 -107.007 306.385 -102.161C306.502 -91.6758 310.095 -81.0203 307.051 -70.6427C305.76 -66.2415 303.171 -62.3986 299.215 -59.992C295.65 -57.824 291.467 -56.9403 287.408 -56.2277C283.346 -55.5144 279.236 -54.977 275.284 -53.7577C270.979 -52.4291 267.244 -50.1247 264.242 -46.7457C261.103 -43.2135 258.783 -38.9341 256.731 -34.7033C254.778 -30.6766 253.172 -26.4707 252.113 -22.1181C250.149 -14.039 250.305 -4.95337 255.678 1.83649C261.256 8.88464 270.628 11.0941 279.236 10.5118C299.803 9.12102 316.562 -9.13158 337.917 -5.4711C342.965 -4.60586 347.466 -2.28736 351.018 1.41139C354.564 5.103 357.372 9.40603 361.04 12.9987C367.917 19.7332 376.563 24.6377 385.858 27.1218C403.8 31.9171 423.436 26.5372 436.278 13.0603C451.127 -2.5218 451.602 -25.021 453.117 -45.2062C453.506 -50.3878 453.981 -55.5656 454.783 -60.702C454.936 -61.6865 453.402 -61.887 453.248 -60.903L453.247 -60.9026Z" fill="#2A2E30"/>
</svg>
