<svg width="12" height="10" viewBox="0 0 12 10" fill="none" xmlns="http://www.w3.org/2000/svg">
<path d="M11.2091 1.98799C10.7901 2.17422 10.3478 2.29061 9.88218 2.36045C10.3478 2.0811 10.7202 1.6388 10.8832 1.10338C10.4409 1.35945 9.95202 1.54568 9.4166 1.66208C8.99758 1.21978 8.39232 0.94043 7.74051 0.94043C6.48344 0.94043 5.45917 1.96471 5.45917 3.22177C5.45917 3.40801 5.48245 3.57096 5.529 3.73391C3.6434 3.6408 1.94404 2.73291 0.803364 1.33617C0.617132 1.68536 0.500737 2.05782 0.500737 2.47684C0.500737 3.26833 0.89648 3.9667 1.52501 4.38572C1.15255 4.36244 0.803364 4.26933 0.477457 4.10638V4.12965C0.477457 5.24705 1.26894 6.17821 2.3165 6.38772C2.13027 6.43428 1.92076 6.45756 1.71125 6.45756C1.57157 6.45756 1.40862 6.43428 1.26894 6.411C1.57157 7.31888 2.40962 7.99397 3.41061 7.99397C2.61913 8.59923 1.64141 8.97169 0.570574 8.97169C0.384341 8.97169 0.198109 8.97169 0.0351562 8.94841C1.05943 9.60022 2.24666 9.97269 3.55029 9.97269C7.76379 9.97269 10.0684 6.48084 10.0684 3.45456C10.0684 3.36145 10.0684 3.24505 10.0684 3.15194C10.5107 2.84931 10.9065 2.45357 11.2091 1.98799Z" fill="white"/>
</svg>
