<svg width="22" height="26" viewBox="0 0 22 26" fill="none" xmlns="http://www.w3.org/2000/svg">
<path d="M20.0929 4.40268L16.5622 1.13868C15.9222 0.530676 15.0796 0.200012 14.1942 0.200012H4.2849C2.36484 0.200012 0.796875 1.76798 0.796875 3.68803V22.312C0.796875 24.232 2.36484 25.8 4.2849 25.8H17.7142C19.6342 25.8 21.2022 24.232 21.2022 22.312V6.96264C21.2022 5.992 20.7969 5.06401 20.0929 4.40268ZM7.51686 8.96798C10.4006 6.08427 10.3005 6.17009 10.4076 6.09865C10.5782 5.98133 10.7915 5.91733 10.9942 5.91733H11.0049C11.2822 5.91733 11.5489 6.03465 11.7516 6.22671C12.8632 7.34269 14.594 9.08019 14.4822 8.96798C14.8982 9.384 14.8982 10.056 14.4822 10.472C14.0662 10.888 13.3942 10.888 12.9782 10.472L12.0716 9.56531V13.3307C12.0716 13.928 11.5915 14.3973 11.0049 14.3973C10.4076 14.3973 9.93822 13.928 9.93822 13.3307V9.56531L9.0209 10.4827C8.62175 10.8818 7.94115 10.907 7.51686 10.4827C7.10085 10.0667 7.10085 9.384 7.51686 8.96798ZM15.1329 20.0827H6.86621C6.27956 20.0827 5.79954 19.6027 5.79954 19.016C5.79954 18.4293 6.27956 17.9494 6.86621 17.9494H15.1329C15.7195 17.9494 16.1995 18.4293 16.1995 19.016C16.1995 19.6027 15.7195 20.0827 15.1329 20.0827Z" fill="#FFC300"/>
</svg>
